<?xml version="1.0" encoding="UTF-8"?><svg id="Livello_2" xmlns="http://www.w3.org/2000/svg" viewBox="0 0 442.08 339.87"><defs><style>.cls-1{fill:#ffdc00;}.cls-2{fill:#fbf2bc;}.cls-3{fill:#cc5269;}.cls-4{fill:#c4b029;}</style></defs><g id="FONDI"><g><rect class="cls-1" x="384.06" y="217.33" width="57.83" height="121.91"/><rect class="cls-4" x="384.06" y="217.33" width="57.83" height="121.91"/><polygon class="cls-2" points="383.91 217.33 412.46 217.33 384.06 217.33 384.06 339.14 383.91 339.14 383.91 217.33"/><rect class="cls-3" x="384.06" y="217.33" width="28.4" height="121.81"/><polygon class="cls-3" points="442.08 217.33 413.08 169.18 384.08 217.33 442.08 217.33"/><polygon points="423.5 186.49 413.08 169.18 402.53 186.49 423.5 186.49"/><rect class="cls-1" x="288.09" y="48.15" width="57.83" height="291.09"/><rect class="cls-4" x="288.09" y="48.15" width="57.83" height="291.09"/><polygon class="cls-2" points="287.93 48.15 316.48 48.15 288.09 48.15 288.09 339.14 287.93 339.14 287.93 48.15"/><rect class="cls-3" x="288.08" y="48.87" width="28.4" height="290.99"/><polygon class="cls-3" points="346.1 48.15 317.1 0 288.1 48.15 346.1 48.15"/><polygon points="327.52 17.3 317.1 0 306.55 17.3 327.52 17.3"/><rect class="cls-1" x="192.11" y="142.14" width="57.83" height="197.1"/><rect class="cls-4" x="192.11" y="142.14" width="57.83" height="197.1"/><polygon class="cls-2" points="191.96 142.14 220.5 142.14 192.11 142.14 192.11 339.14 191.96 339.14 191.96 142.14"/><rect class="cls-3" x="192.11" y="142.14" width="28.4" height="197"/><polygon class="cls-3" points="250.12 142.14 221.12 93.99 192.12 142.14 250.12 142.14"/><polygon points="231.55 111.3 221.12 93.99 210.57 111.3 231.55 111.3"/><rect class="cls-1" x="96.13" y="104.54" width="57.83" height="234.7"/><rect class="cls-4" x="96.13" y="104.54" width="57.83" height="234.7"/><polygon class="cls-2" points="95.98 104.54 124.53 104.54 96.13 104.54 96.13 339.14 95.98 339.14 95.98 104.54"/><rect class="cls-3" x="96.13" y="104.54" width="28.4" height="234.6"/><polygon class="cls-3" points="154.15 104.54 125.14 56.39 96.14 104.54 154.15 104.54"/><polygon points="135.57 73.7 125.15 56.4 114.59 73.7 135.57 73.7"/><rect class="cls-1" x=".15" y="179.74" width="57.83" height="159.51"/><rect class="cls-4" x=".15" y="179.74" width="57.83" height="159.51"/><polygon class="cls-2" points="0 179.74 28.55 179.74 .15 179.74 .15 339.14 0 339.14 0 179.74"/><rect class="cls-3" x=".15" y="179.74" width="28.4" height="159.4"/><polygon class="cls-3" points="58.17 179.74 29.17 131.59 .17 179.74 58.17 179.74"/><polygon points="39.59 148.89 29.17 131.59 18.62 148.89 39.59 148.89"/></g></g></svg>