<?xml version="1.0" encoding="UTF-8"?><svg id="Livello_2" xmlns="http://www.w3.org/2000/svg" xmlns:xlink="http://www.w3.org/1999/xlink" viewBox="0 0 998.67 994.27"><defs><style>.cls-1{fill:none;}.cls-2{clip-path:url(#clippath);}.cls-3{fill:#fff;}.cls-4{fill:#ffdc00;}.cls-5{fill:#fdf2bc;}.cls-6{fill:#add2d0;}.cls-7{fill:#cc5269;}.cls-8{fill:#c4b029;}.cls-9{clip-path:url(#clippath-1);}</style><clipPath id="clippath"><rect class="cls-5" x="58.48" y="114.61" width="349.33" height="360.85" transform="translate(-36.52 32.96) rotate(-7.5)"/></clipPath><clipPath id="clippath-1"><rect class="cls-1" x="484.03" y="491.39" width="360.85" height="349.33" transform="translate(-253.79 870.89) rotate(-57.64)"/></clipPath></defs><g id="FONDI"><g><g><rect class="cls-3" x="28.82" y="83.21" width="414.59" height="468.82" transform="translate(-39.44 33.54) rotate(-7.5)"/><rect class="cls-5" x="58.48" y="114.61" width="349.33" height="360.85" transform="translate(-36.52 32.96) rotate(-7.5)"/><g><rect class="cls-5" x="58.48" y="114.61" width="349.33" height="360.85" transform="translate(-36.52 32.96) rotate(-7.5)"/><g class="cls-2"><path class="cls-7" d="M303.11,838.21c95.64-12.59,161.08-114.7,146.15-228.06-14.92-113.37-104.55-195.06-200.19-182.46-95.64,12.59-161.08,114.7-146.15,228.06,14.93,113.36,104.56,195.05,200.2,182.46"/></g></g><path class="cls-4" d="M248.12,409.54c43.78-5.77,73.49-54.4,66.35-108.65-7.14-54.24-48.42-93.53-92.2-87.77-43.78,5.76-73.49,54.4-66.35,108.64,7.14,54.24,48.42,93.53,92.21,87.77"/><path class="cls-6" d="M292.24,194.57c.17-20.16-48.24-29.89-81.71-15.58-33.48,14.31-41.95,28.31-52.82,38.85-10.22,9.9-21.96,15.06-32.84,5.64-15.26,19.12-5.08,56.12,14.16,72.54,45.09,38.46,138.37-49.17,138.37-49.17,25.7,25.22,30.15,28.95,30.15,28.95l8.97,40.67s28.34-7.68,19.07-67.69c-7.88-50.98-43.35-54.2-43.35-54.2"/><polygon class="cls-4" points="217.37 391.37 210.65 444.92 256.38 459.96 293.48 434.01 270.74 384.34 217.37 391.37"/></g><polygon class="cls-7" points="707.26 687.23 680.15 733.9 716.37 765.62 760.66 756.23 759.13 701.61 707.26 687.23"/><g><rect class="cls-3" x="417.85" y="478.01" width="468.82" height="414.59" transform="translate(-275.72 869.52) rotate(-57.64)"/><rect class="cls-5" x="484.03" y="491.39" width="360.85" height="349.34" transform="translate(-253.79 870.87) rotate(-57.64)"/><g class="cls-9"><path class="cls-6" d="M370.06,1127.86c81.49,51.63,197.16,15.18,258.35-81.42,61.19-96.58,44.74-216.73-36.75-268.36-81.49-51.63-197.15-15.19-258.34,81.4-61.2,96.59-44.75,216.75,36.74,268.38"/></g><g><path class="cls-7" d="M602.57,763.56c37.3,23.63,91.28,5.33,120.56-40.89,29.28-46.21,22.77-102.83-14.53-126.47-37.3-23.64-91.28-5.34-120.56,40.88-29.28,46.22-22.77,102.84,14.53,126.47"/><path class="cls-4" d="M627.38,554.75c8.32-18.37,54.71-28.96,107.25-2.03,33.03,16.93,58.09,61.43,58.81,81.9,1.93,54.34-79.85,80.61-80.5,55.33-1.98-75.78-65.58-85.45-65.58-85.45-33.92,12.08-39.52,13.6-39.52,13.6l-24.71,34.47s-14.79-12.52-5.35-46.07c11.39-40.47,49.6-51.75,49.6-51.75"/></g><path class="cls-4" d="M775.38,673.16s1.12,23.94-17.95,45.89c-34.37,39.57-56.86,29.87-56.86,29.87,0,0,18.95-18.44,29.49-38.67,6.28-12.03,8.33-24.62,8.33-24.62l36.99-12.47Z"/></g></g><g><rect class="cls-4" x="606.5" y="86.64" width="393.21" height="93.34" transform="translate(31.08 391.63) rotate(-27.92)"/><g><rect class="cls-3" x="616.76" y="185.61" width="13.41" height="85.83" transform="translate(-34.43 318.54) rotate(-27.92)"/><polygon class="cls-5" points="597.44 193.74 637.64 269.58 649.49 263.3 629 224.64 609.29 187.46 597.44 193.74"/><polygon class="cls-3" points="581.89 230.7 597.44 193.74 637.64 269.58 598.32 261.7 581.89 230.7"/><rect class="cls-3" x="582.3" y="230.38" width="8.3" height="35.54" transform="translate(-47.93 303.42) rotate(-27.91)"/><rect class="cls-5" x="582.3" y="230.38" width="8.3" height="35.54" transform="translate(-47.93 303.53) rotate(-27.92)"/><polygon class="cls-4" points="566.42 246.28 577.62 240.35 587.94 259.82 573.94 267.24 566.42 246.28"/><polygon class="cls-8" points="607.53 184.14 609.29 187.46 629 224.64 976.32 40.55 954.86 .05 607.53 184.14 607.53 184.14"/></g></g></g></svg>