<?xml version="1.0" encoding="UTF-8"?><svg id="Livello_2" xmlns="http://www.w3.org/2000/svg" viewBox="0 0 617.58 574.91"><defs><style>.cls-1{fill:#fff;}.cls-2{fill:#ececec;}.cls-3{fill:#b1b1b0;}.cls-4{fill:#d9d9d9;}</style></defs><g id="FONDI"><g><polygon class="cls-4" points="100.6 412.4 197.95 512.88 454.73 537.27 454.49 356.72 572.44 285.61 462.99 105.17 229.93 .02 68.9 0 130.08 203.25 0 219.67 100.6 412.4"/><polygon class="cls-1" points="145.73 474.43 175.22 265.28 499.62 418.76 243.08 574.91 145.73 474.43"/><polygon class="cls-2" points="499.63 418.76 508.13 167.2 175.21 265.28 499.63 418.76"/><polygon class="cls-3" points="175.21 265.28 275.07 62.05 508.13 167.2 175.21 265.28"/><polygon class="cls-1" points="499.63 418.76 617.58 347.64 508.13 167.2 499.63 418.76"/><polygon class="cls-2" points="175.21 265.28 45.14 281.71 145.73 474.43 175.21 265.28"/><polygon class="cls-1" points="275.07 62.05 114.04 62.03 175.21 265.28 275.07 62.05"/></g></g></svg>