<?xml version="1.0" encoding="UTF-8"?><svg id="Livello_2" xmlns="http://www.w3.org/2000/svg" viewBox="0 0 1920 1128"><defs><style>.cls-1{fill:none;}.cls-2{fill:#fff;}.cls-3{fill:#ffdc00;}.cls-4{fill:#fdf2bc;}.cls-5{fill:#add2d0;}.cls-6{fill:#cc5269;}.cls-7{fill:#d8e9e8;}.cls-8{fill:#e2bebe;}</style></defs><g id="FONDI"><g><rect class="cls-1" width="1920" height="1.55"/><polygon class="cls-3" points="0 842.08 851.73 965.73 781.55 490 782.35 488.94 781.93 489 868.03 375.02 868.12 375.71 1920 162 1920 1.55 0 1.55 0 842.08"/><polygon class="cls-2" points="881.96 475.06 782.35 488.94 781.55 490 851.73 965.73 1920 1120.81 1920 162 868.12 375.71 881.96 475.06"/><polygon class="cls-6" points="875.67 1128 1920 1128 1920 1120.81 851.73 965.73 875.67 1128"/><polygon class="cls-6" points="868.12 375.71 868.03 375.02 781.93 489 782.35 488.94 867.85 375.76 868.12 375.71"/><polygon class="cls-6" points="868.12 375.71 867.85 375.76 782.35 488.94 881.96 475.06 868.12 375.71"/><polygon class="cls-6" points="0 842.08 0 1128 875.67 1128 851.73 965.73 0 842.08"/></g><g><polygon class="cls-4" points="1134.77 215.44 1116.98 267.83 1125.16 270.61 1134.23 243.91 1142.95 218.22 1134.77 215.44"/><polygon class="cls-2" points="1110.56 224.49 1134.77 215.44 1116.98 267.83 1103.29 245.91 1110.56 224.49"/><rect class="cls-4" x="1092.94" y="231.67" width="22.91" height="5.35" transform="translate(527.36 1204.72) rotate(-71.24)"/><polygon class="cls-6" points="1096.41 224.13 1104.14 226.76 1099.58 240.21 1089.91 236.92 1096.41 224.13"/><rect class="cls-6" x="1223.98" y="158.44" width="60.17" height="253.46" transform="translate(580.77 1380.92) rotate(-71.24)"/></g><g><path class="cls-1" d="M289.78,1058.09h0c-22,26.07-46.32,49.31-71.39,69.91h0c25.08-20.59,49.4-43.83,71.39-69.91Z"/><path class="cls-6" d="M353.61,957.76h0c-.84,1.83-1.66,3.65-2.52,5.48-16.39,35.07-37.49,66.62-61.31,94.85h0c23.82-28.23,44.92-59.78,61.31-94.85,.86-1.84,1.68-3.66,2.52-5.48Z"/><path class="cls-8" d="M353.61,957.76h0c31.68-69.05,48.89-130.8,53.94-184.35-5.06,53.55-22.26,115.3-53.95,184.35Z"/><path class="cls-7" d="M1,867.43c-.33-.3-.67-.6-1-.91v113.83c.33,.22,.67,.43,1,.65v-113.57Z"/><path class="cls-7" d="M1,787.39c-.33,.02-.67,.04-1,.06v79.08c.33,.3,.67,.6,1,.91v-80.05Z"/><path class="cls-7" d="M1,787.38c-.33,.02-.67,.04-1,.06H0c.33-.02,.67-.04,1-.06h0Z"/><path class="cls-5" d="M56.89,1119.2l42.06-89.16c-.73-.27-1.45-.54-2.18-.81l-39.88,89.96Z"/><path class="cls-5" d="M96.77,1029.24c.73,.27,1.45,.54,2.18,.81l38.65-81.93c-1.41-.48-2.82-.97-4.22-1.47l-36.61,82.59Z"/><path class="cls-7" d="M542.79,801.75h0s0,0,0,0Z"/><g><path class="cls-1" d="M1920,2H1V181.25c38.66-25.23,81.65-45.25,128.29-58.77,79.48-23.03,160.09-24.48,235.57-7.81,61.02-42.52,134.47-66.86,207.05-80.17,164.64-30.19,324.72-3.61,324.72-3.61,0,0,17.45,287.08-165.79,457.98,47.67,240.45-95.82,481.55-335.67,551.06-35.09,10.17-70.39,16.12-105.38,18.18-22,26.07-46.32,49.31-71.39,69.91H1920V2Z"/><path class="cls-1" d="M571.91,34.49c-72.57,13.31-146.03,37.65-207.05,80.17h0c61.02-42.52,134.47-66.86,207.04-80.17Z"/><path class="cls-6" d="M320.29,151.07c4.29-3.99,8.69-7.96,13.22-11.93,10-8.77,20.48-16.9,31.35-24.48h0c-10.87,7.57-21.34,15.71-31.35,24.47-4.52,3.96-8.93,7.94-13.22,11.93Z"/><path class="cls-6" d="M279.37,193.36c-.17,.2-.36,.4-.53,.6h0c.17-.2,.35-.4,.52-.6Z"/><path class="cls-6" d="M1,181.25c-.33,.22-.67,.43-1,.64v113.94c.33-.3,.67-.6,1-.91v-113.67Z"/><path class="cls-6" d="M154.39,209.03c41.56-12.04,83.49-16.81,124.45-15.06,.17-.2,.35-.4,.53-.6,1.71-1.98,3.44-3.96,5.21-5.94,.07-.08,.15-.16,.22-.25,1.11-1.24,2.22-2.47,3.35-3.71,.16-.18,.32-.35,.48-.53,1.04-1.14,2.1-2.29,3.16-3.43,.22-.23,.44-.46,.65-.7,1.02-1.09,2.04-2.18,3.08-3.27,.25-.26,.49-.52,.74-.77,1.02-1.07,2.04-2.13,3.07-3.19,.26-.27,.53-.55,.8-.82,1.03-1.05,2.06-2.11,3.1-3.16,.27-.27,.54-.54,.81-.82,1.06-1.06,2.12-2.13,3.2-3.19,.25-.25,.51-.5,.76-.76,1.11-1.1,2.23-2.19,3.36-3.28,.22-.22,.45-.43,.67-.65,1.19-1.15,2.38-2.29,3.58-3.43,.17-.16,.34-.33,.52-.49,1.31-1.24,2.64-2.49,3.97-3.73,.06-.06,.12-.12,.19-.18,4.29-3.99,8.69-7.97,13.22-11.93,10-8.76,20.48-16.9,31.35-24.47-75.48-16.67-156.09-15.22-235.57,7.81-46.64,13.52-89.63,33.54-128.29,58.77v113.67c42.5-38.85,94.34-68.78,153.39-85.89Z"/><path class="cls-6" d="M721.11,497.66c-3.48,3.05-6.93,6.05-10.36,9.01-21.42,18.54-41.94,35.53-61.66,50.91,10.97,177.06-101.5,344.34-278.99,395.78-5.49,1.59-10.99,3.05-16.49,4.39-.84,1.83-1.66,3.65-2.52,5.48-16.39,35.07-37.49,66.62-61.31,94.85,34.99-2.05,70.3-8.01,105.38-18.18,239.84-69.51,383.33-310.6,335.67-551.06-2.76,2.57-5.57,5.11-8.42,7.63-.44,.39-.87,.78-1.31,1.17Z"/><path class="cls-8" d="M460.86,659.35c34.8-7.2,71.29-23.17,110.84-47.38-39.55,24.21-76.05,40.18-110.84,47.38h0Z"/><path class="cls-8" d="M603.31,591.35c-3.59,2.48-7.15,4.89-10.68,7.24,3.54-2.35,7.1-4.77,10.68-7.24Z"/><path class="cls-8" d="M587.34,602.08c-5.27,3.44-10.48,6.74-15.64,9.89,5.16-3.16,10.37-6.46,15.64-9.89Z"/><path class="cls-8" d="M222.23,276.84c4.86-9.44,10.25-18.91,16.2-28.39-5.94,9.48-11.33,18.95-16.2,28.39Z"/><path class="cls-8" d="M278.84,193.97h0c-6.25,7.24-12.14,14.51-17.7,21.78,5.56-7.27,11.46-14.53,17.7-21.78Z"/><path class="cls-8" d="M1,294.92c-.33,.3-.67,.6-1,.91v151.02c.34-.04,.66-.06,1-.1v-151.83Z"/><path class="cls-8" d="M144,452.89c-2.01-12.79-3.44-26.92-4.15-42.52h0c17.26,2.23,32.62,5.2,46.29,8.75,0-.99,0-1.98,0-2.97v-.11c0-1.25,.03-2.5,.05-3.75v-.23c.03-1.22,.06-2.44,.11-3.66,0-.1,0-.21,.01-.31,.04-1.2,.09-2.41,.15-3.61,0-.11,.01-.23,.02-.34,.06-1.2,.13-2.41,.21-3.62,0-.11,.01-.23,.02-.34,.08-1.23,.17-2.45,.26-3.68,0-.09,.01-.18,.02-.27,.1-1.28,.21-2.56,.33-3.84v-.12c.18-1.8,.37-3.6,.58-5.41,.07-.63,.15-1.25,.22-1.88,.14-1.2,.3-2.4,.46-3.6,.05-.4,.1-.81,.15-1.21,.04-.28,.09-.57,.13-.85,.27-1.94,.56-3.88,.87-5.82,.03-.21,.07-.42,.1-.63,.15-.89,.3-1.77,.45-2.66,.06-.37,.12-.73,.19-1.1,.14-.8,.29-1.61,.44-2.42,.08-.45,.17-.91,.25-1.36,.14-.75,.29-1.5,.44-2.25,.1-.52,.2-1.03,.31-1.55,.14-.71,.29-1.42,.44-2.13,.12-.56,.24-1.12,.36-1.69,.15-.68,.3-1.35,.45-2.03,.14-.6,.27-1.2,.41-1.8,.15-.65,.3-1.29,.46-1.94,.15-.64,.31-1.28,.46-1.91,.15-.62,.3-1.23,.46-1.85,.17-.68,.35-1.36,.52-2.04,.15-.58,.3-1.16,.46-1.75,.19-.72,.39-1.45,.59-2.17,.15-.54,.29-1.08,.45-1.62,.22-.78,.44-1.57,.67-2.35,.14-.49,.28-.98,.42-1.47,.25-.87,.52-1.73,.78-2.6,.12-.41,.24-.82,.37-1.23,.32-1.03,.64-2.07,.97-3.1,.08-.24,.15-.49,.23-.73,1.27-3.94,2.62-7.9,4.07-11.87v-.03c.48-1.3,.97-2.59,1.46-3.89,.06-.16,.12-.31,.18-.47,.44-1.15,.88-2.31,1.34-3.46,.09-.23,.18-.46,.27-.69,.43-1.08,.86-2.17,1.3-3.25,.11-.27,.22-.53,.33-.8,.43-1.05,.87-2.11,1.31-3.16,.12-.28,.24-.56,.36-.84,.44-1.04,.89-2.09,1.35-3.13,.12-.28,.25-.57,.38-.86,.46-1.05,.93-2.09,1.4-3.14,.13-.28,.25-.56,.38-.84,.48-1.06,.97-2.12,1.47-3.18,.12-.26,.24-.52,.37-.78,.51-1.09,1.03-2.19,1.56-3.28,.11-.23,.22-.45,.33-.68,.55-1.14,1.12-2.29,1.69-3.43,.09-.18,.17-.35,.26-.53,.61-1.22,1.23-2.44,1.86-3.67,.05-.1,.1-.2,.15-.3,4.86-9.44,10.25-18.91,16.2-28.39l.02-.03c.83-1.32,1.67-2.64,2.52-3.96,.07-.1,.14-.21,.2-.31,.79-1.23,1.59-2.46,2.4-3.69,.1-.16,.21-.31,.31-.47,.78-1.18,1.57-2.36,2.37-3.54,.12-.19,.25-.37,.38-.56,.78-1.15,1.57-2.31,2.38-3.46,.14-.2,.28-.4,.42-.6,.79-1.14,1.6-2.28,2.41-3.43,.15-.21,.29-.41,.44-.62,.82-1.15,1.64-2.3,2.48-3.44,.14-.19,.28-.39,.42-.58,.86-1.17,1.72-2.35,2.6-3.52,.12-.16,.24-.32,.36-.49,.92-1.23,1.85-2.46,2.79-3.69,.08-.1,.15-.2,.23-.31,5.56-7.27,11.45-14.53,17.7-21.78-40.96-1.75-82.9,3.02-124.45,15.06-59.04,17.11-110.88,47.05-153.39,85.89v151.83c56.04-5.78,103.74-3.14,143,6.13Z"/><path class="cls-8" d="M639.33,565.12c-3.2,2.44-6.38,4.84-9.54,7.2-1.58,1.18-3.15,2.34-4.72,3.5-1.82,1.34-3.64,2.67-5.44,3.98-5.5,3.99-10.94,7.84-16.32,11.56-3.59,2.48-7.15,4.89-10.68,7.24-1.77,1.18-3.53,2.34-5.28,3.48-5.27,3.44-10.48,6.74-15.64,9.89-39.55,24.21-76.05,40.18-110.84,47.38,27.01,34.67,54.82,80.89,81.93,142.4h0s0,0,0,0h-.01c-54.96-13.59-98.82-31.12-133.83-50.51-.18,5.58-.49,11.24-.96,17.01-.14,1.71-.29,3.43-.45,5.16-5.06,53.55-22.26,115.29-53.94,184.35,5.5-1.34,11-2.8,16.49-4.39,177.49-51.44,289.96-218.73,278.99-395.78-1.65,1.29-3.3,2.57-4.94,3.83-1.61,1.24-3.22,2.48-4.82,3.7Z"/><path class="cls-7" d="M98.95,1030.04l-42.06,89.16,39.88-89.96c-33.64-12.46-65.77-28.65-95.77-48.23v147H218.39c25.08-20.59,49.4-43.83,71.39-69.9-65.94,3.87-130.76-6.14-190.83-28.05Z"/><path class="cls-7" d="M133.38,946.65c-48.86-17.28-93.96-44.22-132.38-79.21v113.57c29.99,19.58,62.12,35.78,95.77,48.23l36.61-82.59Z"/><path class="cls-7" d="M353.61,957.76c-73.9,17.99-148.44,13.38-216.01-9.65l-38.65,81.93c60.08,21.91,124.89,31.92,190.83,28.05,23.82-28.23,44.92-59.78,61.31-94.85,.86-1.84,1.68-3.66,2.52-5.48Z"/><path class="cls-7" d="M278.11,620.17l2.86-6.46c-.54-1.48-1.05-2.94-1.53-4.38-.29,3.63-.74,7.24-1.33,10.83Z"/><path class="cls-7" d="M279.44,609.34h0c-.29,3.63-.74,7.24-1.33,10.84h0c.59-3.59,1.04-7.2,1.33-10.84Z"/><path class="cls-7" d="M408.01,768.26c.47-5.77,.77-11.43,.96-17.01h0c-.18,5.58-.49,11.24-.96,17.01Z"/><path class="cls-7" d="M408.01,768.26c.47-5.77,.77-11.43,.96-17.01-69.44-38.47-104.04-84.29-121.26-121.28l-150.1,318.15c67.57,23.02,142.11,27.63,216.01,9.65,31.68-69.05,48.89-130.8,53.95-184.35,.16-1.73,.31-3.45,.45-5.16Z"/><path class="cls-7" d="M250.59,682.26c-2.34,3.06-4.83,6.08-7.45,9.05-.07,.07-.13,.15-.2,.22-.99,1.12-2,2.22-3.03,3.33-40.04,42.91-110.65,76.28-214.07,90.2-8.31,1.12-16.59,1.88-24.84,2.33v80.05c38.42,35,83.52,61.94,132.38,79.21l117.21-264.39Z"/><path class="cls-7" d="M243.13,691.3c-.07,.07-.13,.15-.2,.22,.07-.07,.13-.15,.2-.22Z"/><path class="cls-7" d="M239.9,694.85c-40.04,42.91-110.65,76.28-214.07,90.2-8.31,1.12-16.59,1.88-24.84,2.33h0c8.24-.45,16.53-1.21,24.84-2.33,103.41-13.92,174.02-47.29,214.07-90.2Z"/><path class="cls-5" d="M278.11,620.17h0c-3.42,20.76-11.88,40.79-25.52,59.39,13.64-18.6,22.09-38.62,25.52-59.39Z"/><path class="cls-5" d="M280.97,613.72l-2.86,6.46c-3.42,20.76-11.88,40.79-25.52,59.39-.66,.9-1.32,1.8-2,2.69h0l-117.21,264.39c1.4,.5,2.81,.98,4.22,1.47l150.1-318.15c-2.63-5.64-4.85-11.08-6.73-16.25Z"/><path class="cls-5" d="M603.21,246.64l156.79-152.67-155.12,154.37c52.85,54.32,93.51,122.03,116.08,199.9,3.92,13.51,7.2,27.06,9.89,40.61C914.08,317.96,896.63,30.89,896.63,30.89c0,0-160.08-26.58-324.72,3.61-72.57,13.31-146.02,37.66-207.04,80.17,90.4,19.97,173.44,65.94,238.34,131.98Z"/><path class="cls-5" d="M896.63,30.89s17.45,287.08-165.79,457.97h0C914.08,317.97,896.63,30.88,896.63,30.88c0,0-160.08-26.58-324.72,3.61,164.64-30.19,324.72-3.61,324.72-3.61Z"/><path class="cls-5" d="M538.64,309.51l64.56-62.87c-64.91-66.04-147.94-112.01-238.34-131.98-10.87,7.57-21.35,15.71-31.35,24.48-4.52,3.96-8.93,7.94-13.22,11.93-.06,.06-.12,.12-.19,.18-1.33,1.24-2.66,2.48-3.97,3.73-.17,.16-.34,.33-.52,.49-1.2,1.14-2.4,2.29-3.58,3.43-.22,.22-.45,.43-.67,.65-1.13,1.09-2.25,2.19-3.36,3.28-.26,.25-.51,.5-.76,.76-1.07,1.06-2.14,2.13-3.2,3.19-.27,.27-.54,.54-.81,.82-1.04,1.05-2.08,2.11-3.1,3.16-.27,.27-.53,.55-.8,.82-1.03,1.06-2.06,2.13-3.07,3.19-.25,.26-.49,.52-.74,.77-1.03,1.09-2.06,2.18-3.08,3.27-.22,.23-.44,.46-.65,.7-1.06,1.14-2.12,2.28-3.16,3.43-.16,.18-.32,.35-.48,.53-1.13,1.24-2.24,2.47-3.35,3.71-.07,.08-.15,.16-.22,.25-1.77,1.98-3.5,3.96-5.21,5.94-.17,.2-.35,.4-.52,.6,98.59,4.21,191.52,46.21,259.8,115.55Z"/><path class="cls-5" d="M279.37,193.36c1.71-1.98,3.44-3.96,5.21-5.94-1.77,1.98-3.5,3.96-5.21,5.94Z"/><path class="cls-5" d="M649.1,557.59c19.72-15.38,40.24-32.38,61.66-50.91-21.42,18.54-41.94,35.53-61.66,50.91h0Z"/><path class="cls-5" d="M722.42,496.49c2.85-2.52,5.66-5.06,8.42-7.63h0c-2.76,2.57-5.57,5.11-8.42,7.63Z"/><path class="cls-5" d="M634.42,473.33c8.13,28.05,12.94,56.28,14.68,84.26,19.72-15.38,40.23-32.38,61.66-50.91,3.43-2.97,6.88-5.97,10.36-9.01,.44-.39,.87-.78,1.31-1.17,2.85-2.52,5.66-5.06,8.42-7.63-2.69-13.55-5.97-27.1-9.89-40.61-22.56-77.88-63.22-145.59-116.08-199.9l-63.88,63.57c42.52,43.93,75.23,98.6,93.43,161.41Z"/><path class="cls-5" d="M710.75,506.67c3.43-2.97,6.88-5.97,10.36-9.01,.44-.39,.87-.78,1.31-1.17-.44,.39-.87,.78-1.31,1.17-3.48,3.05-6.93,6.05-10.36,9.01Z"/><path class="cls-5" d="M305.77,554.65c.38,.18,.76,.37,1.14,.55,2.97,1.41,5.9,2.89,8.76,4.45,35.65,5.24,88.65,27.13,145.19,99.7,34.8-7.2,71.29-23.17,110.84-47.38,5.16-3.16,10.37-6.46,15.64-9.89,1.76-1.15,3.52-2.31,5.28-3.48,3.54-2.35,7.1-4.77,10.68-7.24,5.38-3.71,10.82-7.57,16.32-11.56,1.81-1.31,3.62-2.64,5.44-3.98,1.57-1.16,3.14-2.32,4.72-3.5,3.16-2.36,6.34-4.75,9.54-7.2,1.6-1.22,3.21-2.45,4.82-3.7,1.64-1.27,3.29-2.54,4.94-3.83-1.73-27.98-6.54-56.21-14.68-84.26-18.2-62.81-50.91-117.47-93.43-161.41l-241.23,240.07c2.01,.85,4.02,1.73,6.01,2.66Z"/><path class="cls-5" d="M639.33,565.12c-3.2,2.44-6.38,4.84-9.54,7.2,3.16-2.36,6.34-4.75,9.54-7.2Z"/><path class="cls-5" d="M644.15,561.42c1.64-1.27,3.29-2.54,4.94-3.83h0c-1.65,1.29-3.3,2.57-4.94,3.83Z"/><path class="cls-5" d="M292.56,549.13h0c-1.38-.52-2.76-1.01-4.14-1.49h0c1.38,.48,2.76,.97,4.14,1.49Z"/><path class="cls-5" d="M305.77,554.65c.38,.18,.76,.37,1.14,.55h0c-.38-.18-.76-.38-1.14-.56-1.99-.93-4-1.81-6.01-2.66h0c2.01,.85,4.02,1.73,6.01,2.67Z"/><path class="cls-5" d="M186.13,416.15c0,.99,0,1.98,0,2.97h0c0-.99,0-1.98,0-2.97Z"/><path class="cls-5" d="M288.42,547.64c1.38,.48,2.76,.97,4.14,1.48l246.08-239.62c-68.28-69.33-161.2-111.33-259.8-115.55-6.25,7.24-12.15,14.51-17.7,21.78-.08,.1-.15,.2-.23,.31-.94,1.23-1.87,2.46-2.79,3.69-.12,.16-.24,.32-.36,.49-.87,1.17-1.74,2.35-2.6,3.52-.14,.19-.28,.39-.42,.58-.83,1.15-1.66,2.3-2.48,3.44-.15,.21-.29,.41-.44,.62-.81,1.14-1.61,2.28-2.41,3.43-.14,.2-.28,.4-.42,.6-.8,1.15-1.59,2.31-2.38,3.46-.13,.19-.25,.37-.38,.56-.8,1.18-1.59,2.36-2.37,3.54-.1,.16-.21,.31-.31,.47-.81,1.23-1.61,2.46-2.4,3.69-.07,.1-.14,.21-.2,.31-.85,1.32-1.69,2.64-2.52,3.96l-.02,.03c-5.94,9.48-11.33,18.95-16.2,28.39-.05,.1-.1,.2-.15,.3-.63,1.22-1.25,2.44-1.86,3.67-.09,.18-.17,.35-.26,.53-.57,1.15-1.13,2.29-1.69,3.43-.11,.23-.22,.45-.33,.68-.53,1.09-1.05,2.19-1.56,3.28-.12,.26-.24,.52-.37,.78-.5,1.06-.98,2.12-1.47,3.18-.13,.28-.25,.56-.38,.84-.47,1.05-.94,2.09-1.4,3.14-.13,.29-.25,.57-.38,.86-.46,1.05-.91,2.09-1.35,3.13-.12,.28-.24,.56-.36,.84-.45,1.05-.88,2.11-1.31,3.16-.11,.27-.22,.53-.33,.8-.44,1.08-.87,2.17-1.3,3.25-.09,.23-.18,.46-.27,.69-.45,1.15-.9,2.31-1.34,3.46-.06,.16-.12,.31-.18,.47-.49,1.3-.97,2.6-1.45,3.89v.03c-1.46,3.97-2.81,7.93-4.08,11.87-.08,.24-.15,.49-.23,.73-.33,1.03-.65,2.07-.97,3.1-.13,.41-.25,.82-.37,1.23-.26,.87-.52,1.73-.78,2.6-.14,.49-.28,.98-.42,1.47-.23,.78-.45,1.57-.67,2.35-.15,.54-.3,1.08-.45,1.62-.2,.72-.4,1.45-.59,2.17-.15,.58-.31,1.16-.46,1.75-.18,.68-.35,1.36-.52,2.04-.16,.62-.31,1.23-.46,1.85-.16,.64-.31,1.28-.46,1.91-.15,.65-.31,1.29-.46,1.94-.14,.6-.28,1.2-.41,1.8-.15,.68-.3,1.35-.45,2.03-.12,.56-.24,1.12-.36,1.69-.15,.71-.3,1.42-.44,2.13-.11,.52-.21,1.03-.31,1.55-.15,.75-.3,1.5-.44,2.25-.09,.46-.17,.91-.25,1.36-.15,.81-.3,1.61-.44,2.42-.07,.37-.13,.73-.19,1.1-.15,.89-.31,1.78-.45,2.66-.03,.21-.07,.42-.1,.63-.31,1.95-.6,3.88-.87,5.82-.1,.69-.19,1.38-.28,2.06-.16,1.2-.31,2.4-.46,3.6-.08,.63-.15,1.26-.22,1.88-.21,1.81-.4,3.61-.57,5.41v.12c-.13,1.28-.24,2.56-.34,3.84,0,.09-.01,.18-.02,.27-.1,1.23-.18,2.46-.26,3.68,0,.11-.01,.23-.02,.34-.08,1.21-.15,2.42-.21,3.62,0,.11-.01,.23-.02,.34-.06,1.21-.11,2.41-.15,3.61,0,.1,0,.21-.01,.31-.04,1.22-.08,2.44-.1,3.66v.23c-.03,1.25-.05,2.51-.06,3.75v.11c0,.99,0,1.98,0,2.97,110.02,28.66,109.72,95.85,102.29,128.52Z"/><path class="cls-5" d="M188.86,379.3c.27-1.94,.56-3.88,.87-5.82-.31,1.95-.6,3.88-.87,5.82Z"/><path class="cls-5" d="M188.12,384.96c.14-1.2,.3-2.4,.46-3.6-.16,1.2-.31,2.4-.46,3.6Z"/><path class="cls-5" d="M187.33,392.26c.17-1.8,.36-3.6,.57-5.41-.21,1.81-.4,3.61-.57,5.41Z"/><path class="cls-5" d="M188.73,380.15c-.06,.4-.1,.81-.15,1.21,.09-.69,.18-1.38,.28-2.06-.04,.28-.09,.57-.13,.85Z"/><path class="cls-5" d="M187.89,386.84c.07-.63,.15-1.25,.22-1.88-.08,.63-.15,1.26-.22,1.88Z"/><path class="cls-5" d="M292.56,549.13c-1.38-.51-2.75-1.01-4.14-1.48-.62,2.73-1.29,5.21-1.95,7.41l6.09-5.93Z"/><path class="cls-5" d="M305.43,558.54l1.48-3.34c-.38-.18-.75-.37-1.14-.55-1.99-.93-4-1.81-6.01-2.66l-6.32,6.29c3.63-.1,7.64-.04,12,.26Z"/><path class="cls-5" d="M315.66,559.65h0c-2.86-1.56-5.79-3.03-8.76-4.45h0c2.97,1.42,5.89,2.89,8.75,4.45Z"/><path class="cls-5" d="M315.66,559.65c-2.86-1.56-5.78-3.03-8.75-4.45l-1.48,3.34c3.22,.22,6.64,.58,10.23,1.11Z"/><path class="cls-7" d="M759.99,93.97l-156.79,152.67c.56,.57,1.11,1.14,1.67,1.7l155.12-154.37Z"/><path class="cls-7" d="M540.99,311.92l63.88-63.57c-.55-.57-1.11-1.14-1.67-1.7l-64.56,62.87c.79,.8,1.57,1.6,2.35,2.41Z"/><path class="cls-7" d="M299.76,551.99l241.23-240.07c-.78-.81-1.56-1.61-2.35-2.41l-246.08,239.62c2.41,.9,4.81,1.85,7.2,2.86Z"/><path class="cls-7" d="M299.76,551.99h0c-2.39-1.01-4.79-1.96-7.2-2.86h0c2.41,.9,4.81,1.85,7.2,2.86Z"/><path class="cls-7" d="M285.28,558.81c2.45-.25,5.17-.44,8.16-.53l6.32-6.29c-2.39-1.01-4.79-1.96-7.2-2.86l-6.09,5.93c-.41,1.36-.81,2.62-1.2,3.75Z"/><path class="cls-5" d="M1,618.61l-1,.16v93.81c.33-.55,.67-1.09,1-1.64v-92.33Z"/><path class="cls-5" d="M84.33,605.64L1,618.61v92.33c26.42-43.7,54.51-78.64,83.33-105.3Z"/><path class="cls-5" d="M1,446.75c-.34,.03-.66,.06-1,.1H0c.34-.03,.66-.06,1-.09h0Z"/><path class="cls-5" d="M144,452.89h0c-39.26-9.28-86.96-11.91-143-6.13h0c56.04-5.78,103.74-3.14,143,6.13Z"/><path class="cls-5" d="M1,446.75c-.34,.03-.66,.06-1,.1v168.05l1-.19v-167.96Z"/><path class="cls-5" d="M184.2,545.85c-17.71-17.6-32.88-46.46-40.2-92.96-39.26-9.28-86.96-11.91-143-6.13v167.96l93.35-17.99c29.64-25.33,59.92-42.09,89.85-50.87Z"/><path class="cls-5" d="M258.29,590.23c-1.28-1.16-2.54-2.35-3.79-3.55,1.25,1.2,2.51,2.39,3.78,3.55,6.94,6.33,13.84,12.24,20.7,17.73h0c-6.86-5.5-13.75-11.4-20.7-17.73Z"/><path class="cls-5" d="M1,710.95c-.33,.55-.67,1.08-1,1.64v74.86c.33-.02,.67-.04,1-.06v-76.44Z"/><path class="cls-5" d="M239.9,694.85c1.03-1.1,2.04-2.21,3.03-3.33,.07-.07,.13-.15,.2-.22,2.63-2.97,5.11-5.99,7.45-9.05h0l27.52-62.08c.59-3.59,1.04-7.2,1.33-10.84-.15-.46-.31-.92-.46-1.37-6.86-5.49-13.76-11.4-20.7-17.73-1.28-1.16-2.54-2.35-3.78-3.55-.25-.24-.51-.48-.76-.73-.45-.43-.89-.87-1.33-1.31-.31-.31-.63-.62-.94-.93-.41-.41-.81-.82-1.21-1.23-.34-.35-.69-.7-1.03-1.05-.38-.39-.76-.79-1.14-1.19-.02-.02-.05-.05-.07-.07l-163.69,25.48c-28.82,26.66-56.91,61.6-83.33,105.3v76.44c8.24-.45,16.53-1.21,24.84-2.33,103.41-13.92,174.02-47.29,214.07-90.2Z"/><path class="cls-5" d="M242.93,691.53c-.99,1.12-2,2.22-3.03,3.33,1.03-1.1,2.04-2.21,3.03-3.33Z"/><path class="cls-5" d="M243.13,691.3c2.63-2.97,5.11-5.99,7.45-9.05h0c-2.34,3.06-4.83,6.08-7.45,9.05Z"/><polygon class="cls-5" points="250.59 682.26 250.59 682.26 250.59 682.25 250.59 682.26"/><polygon class="cls-5" points="250.59 682.25 250.59 682.26 250.59 682.25 250.59 682.25"/><path class="cls-5" d="M184.2,545.85h0c-29.92,8.78-60.21,25.54-89.85,50.87h0c29.64-25.33,59.92-42.09,89.85-50.87Z"/><path class="cls-5" d="M1,710.94c-.33,.55-.67,1.08-1,1.64H0c.33-.55,.67-1.08,1-1.63h0Z"/><path class="cls-5" d="M84.33,605.64h0c-28.82,26.66-56.91,61.59-83.33,105.3h0c26.42-43.7,54.51-78.64,83.33-105.3Z"/><path class="cls-5" d="M94.35,596.72l137.45-26.49c-15.53-2.57-32.49-9.38-47.6-24.39-29.92,8.78-60.21,25.55-89.85,50.87Z"/><path class="cls-5" d="M278.11,620.18l-27.52,62.08c.68-.89,1.34-1.79,2-2.69,13.63-18.6,22.09-38.62,25.52-59.39Z"/><path class="cls-5" d="M252.59,679.56c-.66,.9-1.32,1.8-2,2.69h0c.68-.89,1.34-1.79,2-2.69Z"/><path class="cls-5" d="M248.02,580.17s.05,.05,.07,.07c-.02-.02-.04-.05-.07-.07h0Z"/><path class="cls-5" d="M278.98,607.96c-4.15-12.66-6.24-23.47-7.27-31.48l-23.69,3.69s.05,.05,.07,.07c.38,.4,.76,.8,1.14,1.19,.34,.35,.69,.7,1.03,1.05,.4,.41,.81,.82,1.21,1.23,.31,.31,.63,.62,.94,.93,.44,.44,.88,.88,1.33,1.31,.25,.25,.51,.49,.76,.73,1.25,1.2,2.51,2.39,3.79,3.55,6.94,6.33,13.84,12.23,20.7,17.73Z"/><polygon class="cls-7" points="1 614.71 0 614.9 0 618.77 1 618.61 1 614.71"/><path class="cls-7" d="M94.35,596.72L1,614.71v3.9l83.33-12.97c3.33-3.08,6.67-6.06,10.02-8.92Z"/><path class="cls-7" d="M94.35,596.72c-3.35,2.86-6.69,5.84-10.02,8.92h0c3.33-3.08,6.67-6.06,10.02-8.92h0Z"/><path class="cls-7" d="M245.93,577.94c-.37-.4-.74-.8-1.1-1.2-.34-.38-.69-.76-1.03-1.14-.38-.42-.76-.85-1.13-1.27-.32-.37-.65-.74-.97-1.11-.39-.45-.78-.9-1.16-1.35-.18-.21-.37-.42-.55-.64-2.67-.21-5.41-.53-8.19-.99l-137.45,26.49c-3.35,2.86-6.69,5.84-10.02,8.92l163.69-25.48c-.34-.35-.67-.71-1.01-1.06-.36-.39-.72-.77-1.08-1.16Z"/><path class="cls-7" d="M239.99,571.23c.18,.21,.37,.43,.55,.64-.18-.21-.36-.43-.54-.64h0Z"/><path class="cls-7" d="M240,571.23c.18,.21,.36,.43,.54,.64,.39,.45,.77,.9,1.16,1.35,.32,.37,.65,.74,.97,1.11,.38,.43,.75,.85,1.13,1.27,.34,.38,.68,.76,1.03,1.14,.37,.4,.73,.8,1.1,1.2,.36,.39,.72,.78,1.08,1.16,.33,.36,.67,.71,1.01,1.06l23.69-3.69c-.36-2.81-.6-5.27-.75-7.35-7.72,1.63-18.66,3.07-30.96,2.1Z"/><path class="cls-7" d="M247.01,579.1c.33,.36,.67,.71,1.01,1.06h0c-.34-.35-.67-.71-1.01-1.06Z"/><path class="cls-7" d="M398.06,662.54h0c20.5,2.36,41.33,1.26,62.8-3.19h0c-21.47,4.44-42.3,5.55-62.8,3.19Z"/><path class="cls-7" d="M398.06,662.54c1.21,3.85,2.32,7.78,3.34,11.79l73.83,67.79-72.77-63.49c4.78,20.54,7.07,43.14,6.62,67.68-.03,1.64-.07,3.28-.13,4.94,35.01,19.39,78.87,36.92,133.83,50.5-27.11-61.5-54.92-107.73-81.93-142.4-21.47,4.44-42.3,5.55-62.8,3.19Z"/><path class="cls-7" d="M282.34,610.62c-.94-.74-1.89-1.49-2.84-2.24h0c.95,.76,1.89,1.5,2.83,2.24h0Z"/><path class="cls-7" d="M279.51,608.39c-.02,.32-.04,.64-.07,.95,.48,1.44,.99,2.9,1.53,4.38l1.37-3.09c-.94-.74-1.89-1.49-2.83-2.24Z"/><path class="cls-7" d="M293.03,618.67h0c29.42,21.25,58.35,34.82,87.77,41.06h0c-29.42-6.25-58.35-19.81-87.77-41.06Z"/><path class="cls-7" d="M401.4,674.33c-1.02-4.01-2.13-7.94-3.34-11.79-3.78-.43-7.54-.98-11.3-1.65l14.63,13.44Z"/><path class="cls-7" d="M402.46,678.63l-21.66-18.9c-29.42-6.25-58.36-19.81-87.77-41.06l-5.33,11.3c17.22,36.99,51.82,82.81,121.26,121.28,.05-1.65,.1-3.3,.13-4.94,.45-24.55-1.84-47.15-6.62-67.68Z"/><path class="cls-7" d="M409.09,746.31c.45-24.55-1.84-47.15-6.62-67.68h0c4.78,20.54,7.07,43.14,6.62,67.68Z"/><path class="cls-7" d="M408.96,751.25h0c.05-1.65,.1-3.3,.13-4.94-.03,1.64-.07,3.28-.13,4.94Z"/><path class="cls-7" d="M401.4,674.33c-1.02-4.01-2.13-7.94-3.34-11.79,1.21,3.85,2.32,7.78,3.34,11.79h0Z"/><path class="cls-7" d="M386.77,660.89c3.76,.67,7.52,1.22,11.3,1.65h0c-3.78-.44-7.54-.98-11.3-1.65h0Z"/><path class="cls-7" d="M279.51,608.39h0c-.02,.32-.04,.64-.07,.95h0c.03-.32,.04-.64,.07-.95Z"/><polygon class="cls-7" points="279.51 608.38 279.51 608.38 279.51 608.39 279.51 608.38 279.51 608.38"/><path class="cls-7" d="M282.34,610.63l-1.37,3.09c1.88,5.17,4.1,10.61,6.73,16.25l5.33-11.3c-3.56-2.57-7.12-5.25-10.69-8.04Z"/><path class="cls-7" d="M282.34,610.62h0c3.57,2.79,7.13,5.48,10.69,8.04h0c-3.55-2.57-7.12-5.25-10.69-8.04Z"/><path class="cls-7" d="M377.98,618.38c-14.82-23.74-34.53-42.65-58.21-56.4h0c23.68,13.75,43.38,32.66,58.21,56.4Z"/><path class="cls-7" d="M377.98,618.38c2.12,3.39,4.14,6.88,6.05,10.47,4.87,9.11,9.06,18.86,12.57,29.22,.5,1.48,.99,2.97,1.46,4.48,20.5,2.36,41.33,1.25,62.8-3.19-56.54-72.57-109.55-94.47-145.19-99.7,1.38,.75,2.75,1.53,4.11,2.32,23.68,13.75,43.38,32.66,58.21,56.4Z"/><path class="cls-7" d="M278.85,581.91c1.08,8.89,1.3,17.73,.66,26.47h0c.64-8.74,.42-17.58-.66-26.47Z"/><path class="cls-7" d="M276.64,568.85c.38,1.73,.72,3.48,1.03,5.23,.1,.54,.21,1.08,.3,1.63,.04,.23,.07,.45,.1,.68,.19,1.21,.38,2.43,.55,3.65,.08,.63,.15,1.25,.23,1.88,1.08,8.89,1.3,17.73,.66,26.47,.95,.75,1.89,1.5,2.84,2.24l11.76-26.54-17.47-15.24Z"/><path class="cls-7" d="M384.04,628.85c4.87,9.11,9.06,18.86,12.57,29.22-3.5-10.36-7.7-20.11-12.57-29.22Z"/><path class="cls-7" d="M384.04,628.85c-1.92-3.59-3.93-7.08-6.05-10.47-14.83-23.74-34.53-42.65-58.21-56.4l-12.32,26.1,79.3,72.81c3.76,.67,7.52,1.22,11.3,1.65-.47-1.5-.96-3-1.46-4.48-3.5-10.36-7.7-20.11-12.57-29.22Z"/><path class="cls-7" d="M377.98,618.38c2.12,3.39,4.14,6.88,6.05,10.47-1.92-3.59-3.93-7.08-6.05-10.47Z"/><path class="cls-7" d="M286.74,567.63l-.76,.73,10.73,9.85,8.72-19.67c-4.36-.3-8.37-.36-12-.26l-8,7.96,1.3,1.39Z"/><path class="cls-7" d="M293.03,618.67c29.41,21.25,58.35,34.81,87.77,41.06l-75.9-66.22-11.87,25.16Z"/><path class="cls-7" d="M319.78,561.98h0c-1.36-.79-2.72-1.57-4.11-2.32h0c1.39,.75,2.75,1.53,4.11,2.32Z"/><path class="cls-7" d="M296.71,578.21l10.75,9.87,12.32-26.1c-1.36-.79-2.73-1.57-4.11-2.32-3.59-.53-7.01-.89-10.23-1.11l-8.72,19.67Z"/><path class="cls-7" d="M304.9,593.51l-10.79-9.42-11.76,26.54c3.57,2.79,7.13,5.47,10.69,8.04l11.87-25.16Z"/><path class="cls-7" d="M285.44,566.24l8-7.96c-2.99,.08-5.71,.28-8.16,.53-.75,2.2-1.43,3.96-1.94,5.2l2.1,2.23Z"/><path class="cls-7" d="M279.51,608.38c-.17-.14-.35-.28-.53-.42h0c.17,.14,.35,.28,.52,.42h0Z"/><path class="cls-7" d="M278.98,607.97c.15,.45,.3,.91,.46,1.37,.03-.32,.04-.64,.07-.95-.17-.14-.35-.28-.52-.42Z"/><path class="cls-7" d="M277.93,575.51c.01,.07,.02,.13,.04,.2-.09-.55-.2-1.09-.3-1.63,.08,.48,.18,.95,.26,1.43Z"/><path class="cls-7" d="M278.85,581.91c-.08-.62-.14-1.25-.23-1.87h0c-.16-1.22-.35-2.44-.55-3.65-.04-.23-.06-.45-.1-.68-.01-.07-.02-.13-.04-.2l-6.23,.97c1.04,8.01,3.12,18.82,7.27,31.48,.18,.14,.35,.28,.53,.42,.64-8.74,.42-17.58-.66-26.47Z"/><path class="cls-7" d="M278.62,580.04c.08,.63,.15,1.25,.23,1.87-.08-.63-.14-1.25-.23-1.88h0Z"/><path class="cls-7" d="M278.62,580.03h0c-.16-1.22-.35-2.43-.55-3.65,.19,1.21,.38,2.42,.55,3.65Z"/><path class="cls-7" d="M277.67,574.08c-.31-1.76-.66-3.5-1.03-5.23h0l-.95-.83c-1.4,.36-2.98,.74-4.73,1.11,.15,2.08,.39,4.54,.75,7.35l6.23-.97c-.08-.48-.18-.95-.26-1.43Z"/><path class="cls-7" d="M276.64,568.85c.38,1.73,.72,3.48,1.03,5.23-.31-1.76-.66-3.5-1.03-5.23h0Z"/><path class="cls-5" d="M475.23,742.12l-73.83-67.79c.36,1.43,.73,2.85,1.06,4.3l72.77,63.49Z"/><path class="cls-5" d="M386.77,660.89c-1.99-.35-3.98-.74-5.96-1.16l21.66,18.9c-.34-1.45-.7-2.87-1.06-4.3l-14.63-13.44Z"/><path class="cls-5" d="M402.46,678.63h0c-.34-1.45-.7-2.87-1.06-4.3h0c.36,1.43,.73,2.85,1.06,4.3Z"/><path class="cls-5" d="M386.76,660.89c-1.99-.36-3.98-.74-5.96-1.16h0c1.99,.42,3.97,.81,5.96,1.17h0Z"/><path class="cls-5" d="M285.98,568.36l-1.79,1.72-2.55,2.45-4.28-4.97c-.31,.08-.62,.17-.95,.26,.08,.34,.14,.68,.22,1.02h0l17.47,15.24,2.61-5.88-10.73-9.85Z"/><path class="cls-5" d="M380.8,659.73c1.99,.42,3.97,.81,5.96,1.16l-79.3-72.81-2.56,5.43,75.9,66.22Z"/><polygon class="cls-5" points="294.11 584.09 304.9 593.51 307.46 588.08 296.71 578.21 294.11 584.09"/><path class="cls-5" d="M275.69,568.02l.95,.83c-.07-.34-.14-.68-.22-1.02-.24,.06-.48,.13-.73,.19Z"/><path class="cls-5" d="M276.42,567.83c.08,.34,.14,.68,.22,1.02h0c-.07-.34-.14-.68-.22-1.02Z"/><path class="cls-7" d="M190.85,467.09l-15.58-18.09,15.22,16.2c-2.78-14.78-4.28-30.19-4.36-46.08-13.66-3.56-29.02-6.52-46.29-8.75,.72,15.6,2.14,29.73,4.15,42.52,17.4,4.11,33.15,9.52,47.23,16.09-.13-.63-.26-1.25-.38-1.88Z"/><path class="cls-7" d="M267.74,541.96h0c6.98,1.45,13.88,3.35,20.68,5.69h0c-6.8-2.35-13.7-4.25-20.68-5.69h0Z"/><path class="cls-7" d="M203.03,474.94c.15,.08,.3,.16,.45,.24,.82,.46,1.62,.93,2.43,1.39,.64,.37,1.29,.72,1.92,1.09,.43,.25,.84,.51,1.27,.77,2.88,1.73,5.65,3.53,8.36,5.37,3.54,2.41,6.94,4.9,10.18,7.48,.5,.4,.99,.8,1.48,1.2,17.26,14.13,30.16,30.84,38.64,49.47,6.98,1.45,13.88,3.35,20.68,5.69,7.43-32.67,7.73-99.86-102.29-128.52,.08,15.89,1.58,31.29,4.36,46.08l5.88,6.26c2.26,1.13,4.49,2.29,6.66,3.48Z"/><path class="cls-7" d="M190.86,467.11l-.02-.02c.12,.63,.25,1.25,.38,1.88h0c-.13-.62-.24-1.24-.37-1.86Z"/><path class="cls-7" d="M190.49,465.2c-2.78-14.78-4.27-30.19-4.36-46.08h0c.08,15.89,1.58,31.29,4.36,46.08h0Z"/><path class="cls-7" d="M190.86,467.11c.12,.62,.24,1.24,.37,1.86,.7,.32,1.39,.65,2.08,.98l-2.45-2.84Z"/><path class="cls-7" d="M217.45,483.8c3.54,2.41,6.94,4.9,10.18,7.48-3.24-2.59-6.64-5.08-10.18-7.48Z"/><path class="cls-7" d="M267.74,541.95h0c-8.48-18.64-21.38-35.34-38.64-49.47,17.26,14.13,30.16,30.84,38.64,49.47Z"/><polygon class="cls-7" points="267.74 541.96 267.74 541.95 267.74 541.95 267.74 541.96"/><path class="cls-7" d="M271.67,551.59c-.58-1.59-1.19-3.17-1.82-4.74,.64,1.57,1.25,3.15,1.82,4.74h0Z"/><path class="cls-7" d="M271.67,551.59l7.55,8.03c.94-.16,1.95-.31,3.04-.46l4.22-4.11c.66-2.2,1.33-4.68,1.95-7.41-6.8-2.34-13.7-4.24-20.68-5.69,.74,1.62,1.44,3.25,2.11,4.9,.64,1.57,1.25,3.15,1.82,4.74Z"/><path class="cls-7" d="M286.48,555.06l-4.22,4.11c.95-.13,1.96-.25,3.02-.36,.39-1.14,.79-2.39,1.2-3.75Z"/><path class="cls-7" d="M217.61,539.31c-.2-.35-.4-.7-.6-1.05l-.03-.06c-.55-.96-1.09-1.93-1.62-2.9l-.08-.15c-.52-.95-1.03-1.9-1.54-2.85-.03-.06-.06-.12-.09-.18-.5-.95-1-1.91-1.49-2.87-.03-.06-.06-.12-.09-.18-.49-.97-.98-1.94-1.46-2.92-.02-.05-.05-.09-.07-.14-.49-1-.97-2-1.45-3.01l-.03-.07c-7.88-16.71-13.93-34.79-17.83-53.95-14.08-6.56-29.83-11.97-47.23-16.08,7.32,46.5,22.49,75.37,40.2,92.96,1.68-.49,3.35-.96,5.03-1.41,9.52-2.51,18.99-4.22,28.39-5.13Z"/><path class="cls-7" d="M217.61,539.31c-9.4,.92-18.87,2.62-28.39,5.13,9.52-2.51,18.99-4.21,28.39-5.13h0Z"/><path class="cls-7" d="M191.23,468.97c-14.08-6.56-29.83-11.97-47.23-16.09h0c17.4,4.11,33.15,9.52,47.23,16.09h0Z"/><path class="cls-7" d="M237.58,568.32c-.41-.51-.83-1.02-1.24-1.53-.26-.32-.52-.65-.78-.97-.43-.54-.86-1.09-1.29-1.64-.23-.3-.47-.6-.7-.9-.46-.6-.91-1.2-1.36-1.8-.19-.26-.39-.52-.58-.78-.5-.67-1-1.35-1.49-2.03-.14-.2-.28-.39-.43-.58-.58-.8-1.15-1.61-1.72-2.43-.05-.08-.11-.15-.16-.22-3.61-5.18-7.03-10.56-10.23-16.12-9.4,.92-18.87,2.62-28.39,5.13-1.68,.44-3.35,.91-5.03,1.41,15.11,15.01,32.07,21.82,47.6,24.39l6.34-1.22c-.19-.23-.38-.46-.56-.69Z"/><path class="cls-7" d="M189.23,544.45c-1.68,.44-3.35,.91-5.03,1.41h0c1.68-.49,3.35-.96,5.03-1.41Z"/><path class="cls-7" d="M237.58,568.32c.19,.23,.38,.46,.56,.69h0c-.19-.23-.38-.46-.57-.69Z"/><path class="cls-7" d="M217.02,538.27c.2,.35,.4,.7,.6,1.05h0c-.2-.35-.41-.69-.6-1.05Z"/><polygon class="cls-7" points="217.62 539.31 217.62 539.31 217.61 539.31 217.61 539.31 217.62 539.31"/><polygon class="cls-7" points="191.23 468.97 191.23 468.97 191.23 468.97 191.23 468.97 191.23 468.97"/><path class="cls-7" d="M191.23,468.97c3.9,19.16,9.96,37.24,17.83,53.95-7.87-16.71-13.93-34.79-17.83-53.95h0Z"/><path class="cls-7" d="M261.52,540.79c2.08,.35,4.16,.74,6.22,1.17-8.48-18.64-21.38-35.34-38.64-49.47-.49-.4-.98-.8-1.48-1.2-3.24-2.59-6.64-5.08-10.18-7.48-2.71-1.84-5.48-3.64-8.36-5.37-.42-.25-.84-.52-1.27-.77-.63-.37-1.28-.73-1.92-1.09-.81-.46-1.61-.93-2.43-1.39-.15-.08-.3-.16-.45-.24-2.17-1.19-4.4-2.35-6.66-3.48l65.15,69.33Z"/><path class="cls-7" d="M227.63,491.28c.5,.4,.99,.8,1.48,1.2-.49-.4-.98-.8-1.48-1.2Z"/><path class="cls-7" d="M209.09,478.43c2.88,1.73,5.65,3.53,8.36,5.37-2.71-1.84-5.48-3.64-8.36-5.37Z"/><path class="cls-7" d="M261.52,540.79h0c2.08,.35,4.16,.74,6.22,1.17h0c-2.07-.43-4.14-.82-6.22-1.17Z"/><path class="cls-7" d="M253.29,539.6h0c-11.72-1.37-23.63-1.47-35.67-.29h0c12.04-1.18,23.95-1.07,35.67,.29Z"/><path class="cls-7" d="M253.29,539.6l-59.98-69.65c-.69-.33-1.38-.66-2.08-.98,3.9,19.16,9.96,37.24,17.83,53.95l.03,.07c.48,1.01,.96,2.01,1.45,3.01,.02,.05,.05,.09,.07,.14,.48,.98,.97,1.95,1.46,2.92,.03,.06,.06,.12,.09,.18,.49,.96,.99,1.92,1.49,2.87,.03,.06,.06,.12,.09,.18,.51,.96,1.02,1.91,1.54,2.85l.08,.15c.53,.97,1.07,1.94,1.62,2.9l.03,.06c.2,.35,.4,.7,.6,1.04,12.03-1.18,23.95-1.08,35.67,.29Z"/><path class="cls-7" d="M191.23,468.97h0c.7,.32,1.39,.65,2.08,.98h0c-.69-.33-1.38-.66-2.08-.98Z"/><path class="cls-7" d="M203.03,474.94c-2.17-1.19-4.4-2.35-6.66-3.48h0c2.26,1.13,4.49,2.29,6.66,3.48Z"/><path class="cls-7" d="M217.61,539.31c3.2,5.56,6.61,10.94,10.23,16.12-3.61-5.18-7.02-10.56-10.22-16.12h0Z"/><path class="cls-7" d="M269.85,546.86c-.67-1.65-1.37-3.28-2.11-4.9h0c-2.07-.43-4.14-.82-6.22-1.17l10.15,10.8c-.58-1.59-1.19-3.17-1.82-4.74Z"/><path class="cls-7" d="M269.85,546.86c-.67-1.65-1.37-3.28-2.11-4.9h0c.74,1.62,1.44,3.25,2.11,4.9Z"/><path class="cls-7" d="M270.7,562.74c0-.38,0-.68,0-.91l-.19-.18s.08-.02,.2-.07c0-.14,0-.24,0-.24l.2,.17c.23-.07,.57-.18,.99-.3l-18.62-21.62c-11.72-1.37-23.63-1.47-35.67-.29,3.2,5.56,6.61,10.94,10.22,16.12,.05,.08,.11,.15,.16,.22,.57,.81,1.14,1.62,1.72,2.43,.14,.2,.28,.39,.43,.58,.49,.68,.99,1.36,1.49,2.03,.19,.26,.39,.52,.58,.78,.45,.6,.91,1.2,1.36,1.8,.23,.3,.46,.6,.7,.9,.43,.55,.85,1.1,1.29,1.64,.26,.33,.52,.65,.78,.97,.41,.51,.82,1.02,1.24,1.53,.19,.23,.38,.46,.57,.69l32.55-6.27Z"/><path class="cls-7" d="M239.62,570.78c.12,.15,.25,.3,.37,.44h0c-.12-.15-.25-.29-.38-.44Z"/><path class="cls-7" d="M238.14,569.02c.09,.12,.19,.23,.29,.34-.09-.11-.19-.23-.28-.34h0Z"/><path class="cls-7" d="M238.43,569.36c-.1-.12-.19-.23-.29-.34l-6.34,1.22c2.78,.46,5.52,.78,8.19,.99-.12-.15-.25-.3-.37-.44-.4-.47-.79-.95-1.19-1.43Z"/><path class="cls-7" d="M238.15,569.01c.09,.11,.19,.23,.28,.34,.39,.48,.79,.95,1.19,1.43,.12,.15,.25,.3,.38,.44,12.31,.97,23.24-.47,30.96-2.1-.21-2.93-.26-5.1-.26-6.39l-32.55,6.27Z"/><path class="cls-7" d="M276.22,566.23l-.24-.28c.02,.1,.05,.2,.08,.31,.01,.05,.03,.1,.04,.15l.13-.17Z"/><path class="cls-7" d="M282.25,559.17c-1.08,.14-2.1,.3-3.04,.46l1.23,1.3,1.81-1.76Z"/><path class="cls-7" d="M283.34,564.01c.51-1.24,1.19-3,1.94-5.2-1.06,.11-2.07,.23-3.02,.36l-1.81,1.76,2.9,3.08Z"/><path class="cls-7" d="M270.92,561.52l-.2-.17s0,.1,0,.24c-.12,.04-.2,.07-.2,.07l.19,.18c0,.22,0,.53,0,.91l2.16-.42-.95-1.1c-.42,.12-.76,.22-.99,.3Z"/><path class="cls-7" d="M276.05,566.26c.01,.05,.03,.1,.04,.15h0c-.01-.05-.02-.1-.04-.15Z"/><path class="cls-7" d="M276.09,566.41c-.01-.05-.02-.1-.04-.15-.03-.1-.05-.2-.08-.31h0l-3.12-3.62-2.16,.42c0,1.29,.05,3.46,.26,6.39,1.75-.37,3.33-.75,4.73-1.11l-.49-.43,.89-1.18Z"/><path class="cls-7" d="M275.98,565.95c.02,.1,.05,.2,.08,.31-.03-.1-.05-.2-.08-.31h0Z"/><path class="cls-7" d="M276.22,566.23l-.13,.17c.11,.47,.22,.94,.33,1.42,.33-.09,.65-.17,.95-.26l-1.15-1.33Z"/><path class="cls-7" d="M276.09,566.41c.11,.47,.22,.94,.33,1.42-.11-.47-.22-.95-.33-1.42h0Z"/><path class="cls-7" d="M276.09,566.41l-.89,1.18,.49,.43c.25-.06,.49-.13,.73-.19-.11-.47-.22-.95-.33-1.42Z"/><polygon class="cls-5" points="285.44 566.24 284.59 567.08 285.98 568.36 286.74 567.63 285.44 566.24"/><path class="cls-5" d="M284.59,567.08l.85-.84-2.1-2.23c-.24,.58-.44,1.04-.59,1.38l1.84,1.69Z"/><path class="cls-5" d="M281.8,569.87l-2.43-2.88c-.59,.18-1.26,.38-1.99,.58l4.28,4.97,2.55-2.45,1.79-1.72-1.39-1.28-2.8,2.78Z"/><path class="cls-5" d="M282.59,565.77l.1,.11s-.08,.03-.19,.07c-.05,.1-.08,.18-.08,.18l-.11-.11c-.5,.18-1.51,.53-2.95,.97l2.43,2.88,2.8-2.78-1.84-1.69c-.06,.14-.12,.27-.17,.37Z"/><path class="cls-5" d="M175.27,449l15.58,18.09c-.12-.63-.24-1.26-.36-1.89l-15.22-16.2Z"/><path class="cls-5" d="M193.31,469.95c1.03,.49,2.05,1,3.06,1.5l-5.88-6.26c.12,.64,.25,1.27,.37,1.91l2.45,2.84Z"/><path class="cls-5" d="M190.49,465.2h0c.12,.63,.24,1.26,.36,1.89l.02,.02c-.12-.64-.25-1.27-.37-1.91Z"/><path class="cls-5" d="M279.22,559.62l-7.55-8.03c1.07,2.94,2.02,5.93,2.88,8.95,1.27-.29,2.83-.62,4.66-.92Z"/><path class="cls-5" d="M274.56,560.55h0c-.86-3.02-1.82-6.01-2.88-8.95h0c1.07,2.94,2.02,5.93,2.88,8.95Z"/><path class="cls-5" d="M196.37,471.46c-1.01-.51-2.03-1.01-3.06-1.5l59.98,69.65c2.76,.32,5.5,.73,8.23,1.19l-65.15-69.33Z"/><path class="cls-5" d="M196.37,471.46c-1.01-.51-2.03-1.01-3.06-1.5h0c1.03,.49,2.05,1,3.06,1.5h0Z"/><path class="cls-5" d="M261.52,540.79h0c-2.73-.46-5.48-.87-8.23-1.19h0c2.76,.32,5.5,.73,8.23,1.19Z"/><path class="cls-5" d="M271.67,551.59l-10.15-10.8c-2.73-.46-5.48-.86-8.23-1.19l18.62,21.62c.66-.19,1.54-.42,2.65-.68-.86-3.02-1.82-6.01-2.88-8.95Z"/><path class="cls-5" d="M274.94,561.92c.12,.44,.23,.9,.34,1.34,.23,.89,.47,1.78,.69,2.68h0l.24,.28,1.18-1.57-.36-.42,3.4-3.31-1.23-1.3c-1.83,.31-3.39,.63-4.66,.92,.13,.46,.26,.92,.39,1.38Z"/><path class="cls-5" d="M274.56,560.55h0c.13,.46,.26,.92,.39,1.38h0c-.13-.46-.26-.92-.39-1.38Z"/><path class="cls-5" d="M282.76,565.4c.15-.35,.35-.81,.59-1.38l-2.9-3.08-3.4,3.31,.36,.42,1.86-2.47,3.49,3.21Z"/><path class="cls-5" d="M274.56,560.55c-1.11,.26-1.99,.49-2.65,.68l.95,1.1,2.09-.4c-.13-.46-.26-.92-.39-1.38Z"/><path class="cls-5" d="M274.94,561.92c.12,.44,.23,.9,.34,1.34-.12-.45-.22-.9-.34-1.34h0Z"/><path class="cls-5" d="M274.94,561.92l-2.09,.4,3.12,3.62c-.22-.9-.45-1.79-.69-2.68-.12-.45-.22-.9-.34-1.34Z"/><path class="cls-5" d="M275.29,563.27c.23,.89,.47,1.78,.69,2.68h0c-.22-.9-.45-1.79-.69-2.68Z"/><path class="cls-5" d="M277.4,564.66l-1.18,1.57,1.15,1.33c.74-.2,1.4-.4,1.99-.58l-1.96-2.32Z"/><path class="cls-5" d="M282.32,566.02l.11,.11s.03-.08,.08-.18c.1-.04,.19-.07,.19-.07l-.1-.11c.05-.1,.1-.23,.17-.37l-3.49-3.21-1.86,2.47,1.96,2.32c1.44-.44,2.45-.79,2.95-.97Z"/></g></g><polygon class="cls-6" points="0 842.08 0 1128 875.67 1128 851.73 965.73 0 842.08"/></g></svg>