<?xml version="1.0" encoding="UTF-8"?><svg id="Livello_2" xmlns="http://www.w3.org/2000/svg" viewBox="0 0 679.29 971.15"><defs><style>.cls-1{fill:#ececec;}.cls-2{fill:#cc5269;}.cls-3{fill:#222221;}</style></defs><g id="FONDI"><path class="cls-3" d="M31.47,307.29S429.4,109.94,457.58,105.25c20.24-3.36,216.93,17.03,221.19,27.76,4.26,10.72-17.88,44.15-51.18,31-33.3-13.15-129.11-53.42-195.96-22.71L41.63,345.66l-10.16-38.37Z"/><path class="cls-3" d="M516.86,26.43S147.45,273.08,129.35,295.18c-13,15.87-93.34,196.56-86.16,205.6,7.18,9.04,47.19,6.5,52.38-28.92,5.19-35.43,18.02-138.56,77.96-181.21L545.06,54.36l-28.21-27.93Z"/><path class="cls-3" d="M505.51,211.17s-47.46,35.89-107.68,13.02c0,0-116.57-50.13,15.52-141.88,0,0,88.95-67.16,116.88-19.34,32.62,55.86,47.64,104.45-24.72,148.2m-237.78,88.29c-10.17,63.61-64.95,86.87-64.95,86.87-73.99,40.93-108.64,3.7-140.8-52.42-27.54-48.04,75.01-91.69,75.01-91.69,145.37-68.8,130.74,57.25,130.74,57.25m64.38-175.08s-15.48,27.26-47.36,45.91c-1.21,.71-2.46,1.41-3.72,2.1-1.23,.76-2.45,1.48-3.68,2.18-32.06,18.35-63.4,18.18-63.4,18.18C76.83,210.35,0,315.38,0,315.38l22.43,38.77c15.39,9.33,75.52,60.39,75.52,60.39,58.05,39.33,128.81-8.08,128.81-8.08,74.38-44.22,72-115.91,59.98-158.79-8.99-32.1,3.16-44.3,9.84-48.41,6.89-3.75,23.53-8.19,46.87,15.6,31.19,31.79,92.15,69.58,167.56,27.12,0,0,76.37-37.73,71.19-107.65,0,0-14.3-77.57-14.72-95.57L545.04,0s-129.34,14.27-212.93,124.38"/><path class="cls-1" d="M205.62,221.79c-17.56,.88-39.99,6.87-68.64,20.43,0,0-45.32,19.29-67.61,46.34,32.6-16.08,82.69-40.71,136.25-66.77m47.6,18.18l-79.7,50.68c-32.62,23.21-51.29,64.34-62.36,102.73,7.9,4.96,16.49,8.31,26,9.65,18.01,2.53,39.33-2.15,65.61-16.68,0,0,54.78-23.26,64.95-86.87,0,0,4.24-36.5-14.5-59.5m-128.2,62l-62.57,32.79c8.73,15.17,17.66,28.93,27.52,40.09,13.96-31.27,27.51-59.63,35.05-72.88"/><path class="cls-1" d="M486.2,46.95c-34.31,6.25-72.85,35.35-72.85,35.35-25.45,17.68-41.68,33.82-51.27,48.35,49.46-33.55,95.36-64.4,124.12-83.69m44.38,16.62l-64.97,41.31c16.24,.08,50.76,2.78,87.39,6.63-4.67-15.38-12.75-31.34-22.42-47.95m-9.94,68.78c-30.38-4.27-62.04-3.43-89,8.95l-75.17,39.39,192.62-10.55c4.07-7.36,6.51-14.86,7.59-22.51,.36-2.58,.57-5.19,.63-7.8-11.71-3.07-24.08-5.71-36.66-7.48"/><path class="cls-1" d="M549.08,170.14l-192.62,10.55-2.89,1.52c10.7,27.54,44.26,41.97,44.26,41.97,8.72,3.32,17.17,5.39,25.25,6.53,47.71,6.71,82.43-19.55,82.43-19.55,21.85-13.21,35.74-26.86,43.57-41.03"/><path class="cls-2" d="M509.66,649.19l-40.19,41.54c-2.7,2.8-6.61,3.72-10.13,2.73-1.58-.45-3.06-1.27-4.34-2.5-2.8-2.71-3.71-6.62-2.73-10.13,.45-1.58,1.27-3.06,2.5-4.34l54.15-55.97c.84-.87,1.31-2.05,1.29-3.25-.02-1.2-.53-2.37-1.39-3.21-.87-.83-2.05-1.31-3.26-1.29-1.2,.02-2.37,.53-3.21,1.4l-.75,.77c-1.75,1.82-1.71,4.71,.11,6.46,1.81,1.76,4.71,1.71,6.46-.11,4.74-4.9,11.58-6.5,17.72-4.79,2.77,.78,5.37,2.22,7.59,4.37,4.9,4.74,6.51,11.58,4.79,17.72-.78,2.77-2.22,5.37-4.37,7.59-.85,.88-1.31,2.05-1.28,3.26,.02,1.22,.52,2.37,1.4,3.22h.01l3.16-3.29-3.28-3.17-53,54.79c-6.78,7.01-16.56,9.3-25.34,6.85-3.95-1.11-7.69-3.18-10.86-6.25-7.01-6.77-9.3-16.56-6.85-25.33,1.11-3.96,3.18-7.69,6.25-10.86l39.8-41.13c1.75-1.81,1.7-4.7-.11-6.47-1.81-1.75-4.71-1.7-6.46,.11l-39.8,41.14c-4.14,4.28-6.98,9.38-8.48,14.74-3.34,11.88-.2,25.18,9.29,34.37,4.28,4.14,9.37,6.97,14.74,8.48,11.88,3.34,25.19,.2,34.38-9.29l53-54.79c.85-.88,1.31-2.04,1.29-3.26-.03-1.22-.53-2.37-1.41-3.21h-.01l-3.17,3.29,3.29,3.18c3.22-3.33,5.43-7.3,6.6-11.48,2.6-9.25,.16-19.61-7.23-26.76-3.33-3.22-7.3-5.43-11.48-6.6-9.25-2.6-19.61-.16-26.76,7.23-1.75,1.82-1.71,4.71,.11,6.46,1.81,1.76,4.71,1.71,6.46-.11l.75-.77c.84-.87,1.31-2.05,1.29-3.25-.02-1.2-.53-2.37-1.39-3.21-.87-.83-2.05-1.31-3.26-1.29-1.2,.02-2.37,.53-3.21,1.4l-54.15,55.97c-2.3,2.38-3.89,5.23-4.73,8.22-1.86,6.62-.11,14.05,5.18,19.17,2.38,2.3,5.23,3.89,8.23,4.73,6.62,1.87,14.04,.11,19.16-5.18l40.19-41.54c1.76-1.81,1.71-4.71-.11-6.46-1.81-1.76-4.7-1.7-6.46,.11"/><path class="cls-2" d="M430.46,897.44l49.04,30.6c3.3,2.06,5.02,5.69,4.79,9.33-.11,1.64-.6,3.26-1.53,4.76-2.06,3.31-5.69,5.01-9.33,4.79-1.64-.11-3.26-.6-4.76-1.53l-66.07-41.23c-1.03-.64-2.28-.85-3.45-.58-1.17,.27-2.21,1.01-2.85,2.03-.63,1.02-.85,2.28-.57,3.46,.27,1.17,1.01,2.2,2.04,2.84l.91,.57c2.14,1.33,4.96,.69,6.29-1.46,1.34-2.14,.69-4.96-1.46-6.29-5.78-3.61-8.78-9.96-8.39-16.33,.18-2.87,1.05-5.72,2.68-8.34,3.6-5.79,9.96-8.79,16.32-8.4,2.87,.18,5.72,1.05,8.34,2.68,1.04,.64,2.28,.85,3.46,.57,1.19-.28,2.21-1.01,2.85-2.04h0l-3.89-2.41-2.41,3.88,64.67,40.36c8.27,5.16,12.56,14.25,12,23.34-.26,4.1-1.5,8.18-3.84,11.92-5.15,8.27-14.25,12.56-23.34,12-4.1-.26-8.19-1.5-11.93-3.83l-48.56-30.3c-2.14-1.33-4.96-.68-6.3,1.46-1.33,2.14-.68,4.96,1.46,6.29l48.56,30.3c5.05,3.15,10.63,4.86,16.19,5.2,12.31,.78,24.67-5.07,31.66-16.28,3.15-5.05,4.86-10.62,5.21-16.19,.78-12.32-5.08-24.67-16.29-31.67l-64.67-40.36c-1.03-.65-2.27-.85-3.46-.58-1.19,.28-2.2,1.01-2.85,2.05h0l3.89,2.42,2.42-3.88c-3.93-2.45-8.27-3.78-12.61-4.05-9.59-.61-19.21,3.95-24.66,12.68-2.45,3.93-3.78,8.28-4.05,12.61-.61,9.59,3.95,19.21,12.68,24.66,2.14,1.33,4.96,.69,6.29-1.46,1.34-2.14,.69-4.96-1.46-6.29l-.91-.57c-1.03-.64-2.28-.85-3.45-.58-1.17,.27-2.21,1.01-2.85,2.03-.63,1.02-.85,2.28-.57,3.46,.27,1.17,1.01,2.2,2.04,2.84l66.07,41.23c2.81,1.76,5.93,2.71,9.03,2.9,6.87,.43,13.76-2.83,17.66-9.08,1.76-2.81,2.71-5.93,2.9-9.03,.44-6.86-2.83-13.75-9.08-17.65l-49.03-30.6c-2.14-1.34-4.96-.69-6.29,1.46-1.34,2.14-.68,4.96,1.46,6.29"/></g></svg>