<?xml version="1.0" encoding="UTF-8"?><svg id="Livello_2" xmlns="http://www.w3.org/2000/svg" viewBox="0 0 1920 1131"><defs><style>.cls-1{fill:none;}.cls-2{fill:#fdf2bc;}.cls-3{fill:#cc5269;}</style></defs><g id="FONDI"><rect class="cls-3" y="0" width="1920" height="933"/><g><polygon class="cls-1" points="0 3 0 921.41 1920 734.26 1920 3 0 3"/><polygon class="cls-2" points="0 1131 1920 1131 1920 734.26 0 921.41 0 1131"/></g><rect class="cls-3" x="72.74" y="969.99" width="50.7" height="25.6" transform="translate(-111.9 17.7) rotate(-6.58)"/><rect class="cls-3" x="151.28" y="960.94" width="50.7" height="25.6" transform="translate(-110.34 26.63) rotate(-6.58)"/><rect class="cls-3" x="229.82" y="951.89" width="50.7" height="25.6" transform="translate(-108.79 35.57) rotate(-6.58)"/><rect class="cls-3" x="308.35" y="942.83" width="50.7" height="25.6" transform="translate(-107.24 44.5) rotate(-6.58)"/><rect class="cls-3" x="386.89" y="933.78" width="50.7" height="25.6" transform="translate(-105.68 53.43) rotate(-6.58)"/><rect class="cls-3" x="465.43" y="924.73" width="50.7" height="25.6" transform="translate(-104.13 62.37) rotate(-6.58)"/><rect class="cls-3" x="543.96" y="915.68" width="50.7" height="25.6" transform="translate(-102.58 71.3) rotate(-6.58)"/><rect class="cls-3" x="622.5" y="906.62" width="50.7" height="25.6" transform="translate(-101.02 80.23) rotate(-6.58)"/><rect class="cls-3" x="701.03" y="897.57" width="50.7" height="25.6" transform="translate(-99.47 89.17) rotate(-6.58)"/><rect class="cls-3" x="779.57" y="888.52" width="50.7" height="25.6" transform="translate(-97.92 98.1) rotate(-6.58)"/><rect class="cls-3" x="858.11" y="879.46" width="50.7" height="25.6" transform="translate(-96.36 107.04) rotate(-6.58)"/><rect class="cls-3" x="936.64" y="870.41" width="50.7" height="25.6" transform="translate(-94.81 115.97) rotate(-6.58)"/><rect class="cls-3" x="1015.18" y="861.36" width="50.7" height="25.6" transform="translate(-93.26 124.9) rotate(-6.58)"/><rect class="cls-3" x="1093.72" y="852.3" width="50.7" height="25.6" transform="translate(-91.7 133.84) rotate(-6.58)"/><rect class="cls-3" x="1172.25" y="843.25" width="50.7" height="25.6" transform="translate(-90.15 142.77) rotate(-6.58)"/><rect class="cls-3" x="1250.79" y="834.2" width="50.7" height="25.6" transform="translate(-88.6 151.7) rotate(-6.58)"/><rect class="cls-3" x="1329.32" y="825.15" width="50.7" height="25.6" transform="translate(-87.04 160.64) rotate(-6.58)"/><rect class="cls-3" x="1407.86" y="816.09" width="50.7" height="25.6" transform="translate(-85.49 169.57) rotate(-6.58)"/><rect class="cls-3" x="1489.32" y="807.15" width="50.7" height="25.6" transform="translate(-83.93 178.84) rotate(-6.58)"/><rect class="cls-3" x="1567.86" y="798.09" width="50.7" height="25.6" transform="translate(-82.38 187.78) rotate(-6.58)"/><rect class="cls-3" x="1650.32" y="788.15" width="50.7" height="25.6" transform="translate(-80.7 197.15) rotate(-6.58)"/><rect class="cls-3" x="1728.86" y="779.09" width="50.7" height="25.6" transform="translate(-79.14 206.09) rotate(-6.58)"/><rect class="cls-3" x="1804.32" y="770.15" width="50.7" height="25.6" transform="translate(-77.62 214.67) rotate(-6.58)"/></g></svg>