<?xml version="1.0" encoding="UTF-8"?><svg id="Livello_2" xmlns="http://www.w3.org/2000/svg" viewBox="0 0 1941.95 3600.45"><defs><style>.cls-1{fill:none;}.cls-2{fill:#ffdc00;}.cls-3{fill:#fdf2bc;}.cls-4{fill:#add2d0;}.cls-5{fill:#cc5269;}.cls-6{fill:#d8e9e8;}.cls-7{fill:#e2bebe;}</style></defs><g id="FONDI"><polygon class="cls-2" points="1927.09 0 7.09 0 7.09 1430.45 1927.09 1155.32 1927.09 0"/><rect class="cls-1" x="8.09" y=".45" width="1919" height="1119"/><g><path class="cls-1" d="M579,32.94c-72.57,13.31-146.03,37.65-207.05,80.17h0c61.02-42.52,134.47-66.86,207.04-80.17Z"/><path class="cls-1" d="M7.09,1250.09h0c55.15-20.46,194.33-80.4,289.78-193.55h0c-95.46,113.15-234.63,173.09-289.78,193.55Z"/><path class="cls-5" d="M311.13,165.23c1.06-1.06,2.12-2.13,3.2-3.19-1.07,1.06-2.14,2.13-3.2,3.19Z"/><path class="cls-5" d="M327.38,149.52c4.29-3.99,8.69-7.96,13.22-11.93,10-8.77,20.48-16.9,31.35-24.48h0c-10.87,7.57-21.34,15.71-31.35,24.47-4.52,3.96-8.93,7.94-13.22,11.93Z"/><path class="cls-5" d="M307.22,169.21c1.03-1.05,2.06-2.11,3.1-3.16-1.04,1.05-2.08,2.11-3.1,3.16Z"/><path class="cls-5" d="M315.09,161.28c1.11-1.1,2.23-2.19,3.36-3.28-1.13,1.09-2.25,2.19-3.36,3.28Z"/><path class="cls-5" d="M295.72,181.39c1.04-1.14,2.1-2.29,3.16-3.43-1.06,1.14-2.12,2.28-3.16,3.43Z"/><path class="cls-5" d="M303.35,173.22c1.02-1.07,2.04-2.13,3.07-3.19-1.03,1.06-2.06,2.13-3.07,3.19Z"/><path class="cls-5" d="M291.67,185.87c-1.95,2.18-3.86,4.36-5.74,6.54h0c1.88-2.18,3.79-4.36,5.73-6.54Z"/><path class="cls-5" d="M360.7,956.2h0c-.84,1.83-1.66,3.65-2.52,5.48-16.39,35.07-37.49,66.62-61.31,94.85h0c23.82-28.23,44.92-59.78,61.31-94.85,.86-1.84,1.68-3.66,2.52-5.48Z"/><path class="cls-5" d="M323.23,153.42c1.31-1.24,2.64-2.49,3.97-3.73-1.33,1.24-2.66,2.48-3.97,3.73Z"/><path class="cls-5" d="M161.48,207.47c41.56-12.04,83.49-16.81,124.45-15.06,1.88-2.18,3.79-4.36,5.74-6.54,.07-.08,.15-.16,.22-.25,1.11-1.24,2.22-2.47,3.35-3.71,.16-.18,.32-.35,.48-.53,1.04-1.14,2.1-2.29,3.16-3.43,.22-.23,.44-.46,.65-.7,1.02-1.09,2.04-2.18,3.08-3.27,.25-.26,.49-.52,.74-.77,1.02-1.07,2.04-2.13,3.07-3.19,.26-.27,.53-.55,.8-.82,1.03-1.05,2.06-2.11,3.1-3.16,.27-.27,.54-.54,.81-.82,1.06-1.06,2.12-2.13,3.2-3.19,.25-.25,.51-.5,.76-.76,1.11-1.1,2.23-2.19,3.36-3.28,.22-.22,.45-.43,.67-.65,1.19-1.15,2.38-2.29,3.58-3.43,.17-.16,.34-.33,.52-.49,1.31-1.24,2.64-2.49,3.97-3.73,.06-.06,.12-.12,.19-.18,4.29-3.99,8.69-7.97,13.22-11.93,10-8.76,20.48-16.9,31.35-24.47-75.48-16.67-156.09-15.22-235.57,7.81-47.04,13.63-90.38,33.88-129.29,59.42v113.94c42.69-39.29,94.88-69.56,154.39-86.8Z"/><path class="cls-5" d="M656.19,556.03c10.97,177.06-101.5,344.34-278.99,395.78-5.49,1.59-10.99,3.05-16.49,4.39-.84,1.83-1.66,3.65-2.52,5.48-16.39,35.07-37.49,66.62-61.31,94.85,34.99-2.05,70.3-8.01,105.38-18.18,239.84-69.51,383.33-310.6,335.67-551.06-3.18,2.97-6.42,5.9-9.72,8.8-25.2,22.08-49.14,42.08-72.02,59.93Z"/><path class="cls-5" d="M299.53,177.27c1.02-1.09,2.04-2.18,3.08-3.27-1.03,1.09-2.06,2.18-3.08,3.27Z"/><path class="cls-5" d="M291.89,185.63c1.11-1.24,2.22-2.47,3.35-3.71-1.13,1.24-2.24,2.47-3.35,3.71Z"/><path class="cls-5" d="M319.12,157.35c1.19-1.15,2.38-2.29,3.58-3.43-1.2,1.14-2.4,2.29-3.58,3.43Z"/><path class="cls-7" d="M253.71,234.33c.78-1.15,1.57-2.31,2.38-3.46-.8,1.15-1.59,2.31-2.38,3.46Z"/><path class="cls-7" d="M205.17,335.21c.25-.87,.52-1.73,.78-2.6-.26,.87-.52,1.73-.78,2.6Z"/><path class="cls-7" d="M204.08,339.03c.22-.78,.44-1.57,.67-2.35-.23,.78-.45,1.57-.67,2.35Z"/><path class="cls-7" d="M206.32,331.39c.32-1.03,.64-2.07,.97-3.1-.33,1.03-.66,2.07-.97,3.1Z"/><path class="cls-7" d="M250.97,238.43c.78-1.18,1.57-2.36,2.37-3.54-.8,1.18-1.59,2.36-2.37,3.54Z"/><path class="cls-7" d="M207.52,327.55c1.27-3.94,2.62-7.9,4.07-11.87-1.44,3.97-2.8,7.93-4.07,11.87Z"/><path class="cls-7" d="M198.7,361.5c.1-.52,.2-1.03,.31-1.55-.11,.52-.21,1.03-.31,1.55Z"/><path class="cls-7" d="M262.26,222.19c.86-1.17,1.72-2.35,2.6-3.52-.87,1.17-1.74,2.35-2.6,3.52Z"/><path class="cls-7" d="M211.6,315.65c.47-1.3,.95-2.59,1.45-3.89-.49,1.3-.97,2.6-1.45,3.89Z"/><path class="cls-7" d="M632.16,574.26c6.28-4.62,12.64-9.42,19.08-14.39-6.44,4.97-12.8,9.77-19.08,14.39Z"/><path class="cls-7" d="M259.35,226.22c.82-1.15,1.64-2.3,2.48-3.44-.83,1.15-1.66,2.3-2.48,3.44Z"/><path class="cls-7" d="M245.53,246.86c.83-1.32,1.67-2.64,2.52-3.96-.85,1.32-1.69,2.64-2.52,3.96Z"/><path class="cls-7" d="M221.64,291.13c.48-1.06,.97-2.12,1.47-3.18-.5,1.06-.98,2.12-1.47,3.18Z"/><path class="cls-7" d="M193.22,414.59v0Z"/><path class="cls-7" d="M214.83,307.14c.43-1.08,.86-2.17,1.3-3.25-.44,1.08-.88,2.17-1.3,3.25Z"/><path class="cls-7" d="M256.51,230.26c.79-1.14,1.6-2.28,2.41-3.43-.81,1.14-1.61,2.28-2.41,3.43Z"/><path class="cls-7" d="M626.72,578.24c-58.66,42.55-110.35,69.54-158.77,79.56h0c48.41-10.02,100.11-37,158.77-79.56Z"/><path class="cls-7" d="M265.21,218.18c.92-1.23,1.85-2.46,2.79-3.69-.94,1.23-1.87,2.46-2.79,3.69Z"/><path class="cls-7" d="M197.37,368.63c.06-.37,.12-.73,.19-1.1-.07,.37-.13,.73-.19,1.1Z"/><path class="cls-7" d="M196.82,371.92c.03-.21,.07-.42,.1-.63-.03,.21-.07,.42-.1,.63Z"/><path class="cls-7" d="M194.41,390.83v0Z"/><path class="cls-7" d="M201.14,350.37c.15-.64,.31-1.28,.46-1.91-.16,.64-.31,1.28-.46,1.91Z"/><path class="cls-7" d="M194.06,394.94c0-.09,.01-.18,.02-.27,0,.09-.01,.18-.02,.27Z"/><path class="cls-7" d="M199.46,357.83c.12-.56,.24-1.12,.36-1.69-.12,.56-.24,1.12-.36,1.69Z"/><path class="cls-7" d="M248.25,242.59c.79-1.23,1.59-2.46,2.4-3.69-.81,1.23-1.61,2.46-2.4,3.69Z"/><path class="cls-7" d="M198.01,365.12c.08-.45,.17-.91,.25-1.36-.09,.46-.17,.91-.25,1.36Z"/><path class="cls-7" d="M203.04,342.83c.19-.72,.39-1.45,.59-2.17-.2,.72-.4,1.45-.59,2.17Z"/><path class="cls-7" d="M200.27,354.11c.14-.6,.27-1.2,.41-1.8-.14,.6-.28,1.2-.41,1.8Z"/><path class="cls-7" d="M225.36,283.21c.55-1.14,1.12-2.29,1.69-3.43-.57,1.15-1.13,2.29-1.69,3.43Z"/><path class="cls-7" d="M193.27,410.73v0Z"/><path class="cls-7" d="M227.31,279.24c.61-1.22,1.23-2.44,1.86-3.67-.63,1.22-1.25,2.44-1.86,3.67Z"/><path class="cls-7" d="M223.47,287.16c.51-1.09,1.03-2.19,1.56-3.28-.53,1.09-1.05,2.19-1.56,3.28Z"/><path class="cls-7" d="M202.06,346.61c.17-.68,.35-1.36,.52-2.04-.18,.68-.35,1.36-.52,2.04Z"/><path class="cls-7" d="M193.55,402.92c0-.11,.01-.23,.02-.34,0,.11-.01,.23-.02,.34Z"/><path class="cls-7" d="M229.32,275.28c4.86-9.44,10.25-18.91,16.2-28.39-5.94,9.48-11.33,18.95-16.2,28.39Z"/><path class="cls-7" d="M193.38,406.85c0-.1,0-.21,.01-.31v.31Z"/><path class="cls-7" d="M193.77,398.96c0-.11,.01-.23,.02-.34,0,.11-.01,.23-.02,.34Z"/><path class="cls-7" d="M219.86,295.1c.46-1.05,.93-2.09,1.4-3.14-.47,1.05-.94,2.09-1.4,3.14Z"/><path class="cls-7" d="M285.94,192.41h0c-6.25,7.24-12.14,14.51-17.7,21.78,5.56-7.27,11.46-14.53,17.7-21.78Z"/><path class="cls-7" d="M151.09,451.33c-2.01-12.79-3.44-26.92-4.15-42.52h0c17.26,2.23,32.62,5.2,46.29,8.75,0-.99,0-1.98,0-2.97v-.11c0-1.25,.03-2.5,.05-3.75v-.23c.03-1.22,.06-2.44,.11-3.66v-.31c.05-1.2,.11-2.41,.17-3.61,0-.11,.01-.23,.02-.34,.06-1.2,.13-2.41,.21-3.62,0-.11,.01-.23,.02-.34,.08-1.23,.17-2.45,.26-3.68,0-.09,.01-.18,.02-.27,.1-1.28,.21-2.56,.33-3.84v-.12c.59-6.2,1.39-12.47,2.41-18.78,.03-.21,.07-.42,.1-.63,.15-.89,.3-1.77,.45-2.66,.06-.37,.12-.73,.19-1.1,.14-.8,.29-1.61,.44-2.42,.08-.45,.17-.91,.25-1.36,.14-.75,.29-1.5,.44-2.25,.1-.52,.2-1.03,.31-1.55,.14-.71,.29-1.42,.44-2.13,.12-.56,.24-1.12,.36-1.69,.15-.68,.3-1.35,.45-2.03,.14-.6,.27-1.2,.41-1.8,.15-.65,.3-1.29,.46-1.94,.15-.64,.31-1.28,.46-1.91,.15-.62,.3-1.23,.46-1.85,.17-.68,.35-1.36,.52-2.04,.15-.58,.3-1.16,.46-1.75,.19-.72,.39-1.45,.59-2.17,.15-.54,.29-1.08,.45-1.62,.22-.78,.44-1.57,.67-2.35,.14-.49,.28-.98,.42-1.47,.25-.87,.52-1.73,.78-2.6,.12-.41,.24-.82,.37-1.23,.32-1.03,.64-2.07,.97-3.1,.08-.24,.15-.49,.23-.73,1.27-3.94,2.62-7.9,4.07-11.87v-.03c.48-1.3,.97-2.59,1.46-3.89,.06-.16,.12-.31,.18-.47,.44-1.15,.88-2.31,1.34-3.46,.09-.23,.18-.46,.27-.69,.43-1.08,.86-2.17,1.3-3.25,.11-.27,.22-.53,.33-.8,.43-1.05,.87-2.11,1.31-3.16,.12-.28,.24-.56,.36-.84,.44-1.04,.89-2.09,1.35-3.13,.12-.28,.25-.57,.38-.86,.46-1.05,.93-2.09,1.4-3.14,.13-.28,.25-.56,.38-.84,.48-1.06,.97-2.12,1.47-3.18,.12-.26,.24-.52,.37-.78,.51-1.09,1.03-2.19,1.56-3.28,.11-.23,.22-.45,.33-.68,.55-1.14,1.12-2.29,1.69-3.43,.09-.18,.17-.35,.26-.53,.61-1.22,1.23-2.44,1.86-3.67,.05-.1,.1-.2,.15-.3,4.86-9.44,10.25-18.91,16.2-28.39l.02-.03c.83-1.32,1.67-2.64,2.52-3.96,.07-.1,.14-.21,.2-.31,.79-1.23,1.59-2.46,2.4-3.69,.1-.16,.21-.31,.31-.47,.78-1.18,1.57-2.36,2.37-3.54,.12-.19,.25-.37,.38-.56,.78-1.15,1.57-2.31,2.38-3.46,.14-.2,.28-.4,.42-.6,.79-1.14,1.6-2.28,2.41-3.43,.15-.21,.29-.41,.44-.62,.82-1.15,1.64-2.3,2.48-3.44,.14-.19,.28-.39,.42-.58,.86-1.17,1.72-2.35,2.6-3.52,.12-.16,.24-.32,.36-.49,.92-1.23,1.85-2.46,2.79-3.69,.08-.1,.15-.2,.23-.31,5.56-7.27,11.45-14.53,17.7-21.78-40.96-1.75-82.9,3.02-124.45,15.06-59.5,17.24-111.7,47.51-154.39,86.8v151.02c56.48-5.91,104.51-3.29,144,6.04Z"/><path class="cls-7" d="M213.22,311.29c.44-1.15,.88-2.31,1.34-3.46-.45,1.15-.9,2.31-1.34,3.46Z"/><path class="cls-7" d="M216.46,303.09c.43-1.05,.87-2.11,1.31-3.16-.45,1.05-.88,2.11-1.31,3.16Z"/><path class="cls-7" d="M360.7,956.21h0c32.7-71.28,49.98-134.77,54.39-189.5-4.41,54.73-21.69,118.22-54.4,189.5Z"/><path class="cls-7" d="M218.13,299.09c.44-1.04,.89-2.09,1.35-3.13-.46,1.05-.91,2.09-1.35,3.13Z"/><path class="cls-7" d="M632.16,574.26c-1.82,1.34-3.64,2.67-5.44,3.98-58.66,42.55-110.35,69.54-158.77,79.56,27.01,34.67,54.82,80.89,81.93,142.4h0s0,0,0,0h-.01c-54.96-13.59-98.82-31.12-133.83-50.51-.18,5.58-.49,11.24-.96,17.01-4.41,54.73-21.69,118.22-54.39,189.5,5.5-1.34,11-2.8,16.49-4.39,177.49-51.44,289.96-218.73,278.99-395.78-1.65,1.29-3.3,2.57-4.94,3.83-6.44,4.97-12.8,9.77-19.08,14.39Z"/><path class="cls-6" d="M106.04,1028.49l-42.06,89.16,39.88-89.96c-34.01-12.59-66.49-29.01-96.77-48.88v271.28c55.15-20.46,194.32-80.4,289.78-193.55-65.94,3.87-130.76-6.14-190.83-28.05Z"/><path class="cls-6" d="M7.09,864.97v113.83c30.28,19.87,62.75,36.28,96.77,48.88l36.61-82.59c-49.28-17.43-94.74-44.68-133.38-80.12Z"/><path class="cls-6" d="M144.69,946.56l-38.65,81.93c60.08,21.91,124.89,31.92,190.83,28.05,23.82-28.23,44.92-59.78,61.31-94.85,.86-1.84,1.68-3.66,2.52-5.48-73.9,17.99-148.44,13.38-216.01-9.65Z"/><path class="cls-6" d="M285.2,618.62l2.86-6.46c-.54-1.48-1.05-2.94-1.53-4.38-.29,3.63-.74,7.24-1.33,10.83Z"/><path class="cls-6" d="M286.53,607.79c-.29,3.63-.74,7.25-1.33,10.84h0c.59-3.59,1.04-7.2,1.33-10.84h0Z"/><path class="cls-6" d="M415.1,766.7c.47-5.77,.77-11.43,.96-17.01h0c-.18,5.58-.49,11.24-.96,17.01Z"/><path class="cls-6" d="M416.05,749.69c-69.44-38.47-104.04-84.29-121.26-121.28l-150.1,318.15c67.57,23.02,142.11,27.63,216.01,9.65,32.7-71.28,49.99-134.77,54.4-189.5,.47-5.77,.77-11.43,.96-17.01Z"/><path class="cls-6" d="M32.93,783.5c-8.64,1.16-17.26,1.95-25.84,2.39v79.08c38.64,35.44,84.1,62.69,133.38,80.12l117.21-264.39c-37.48,48.92-111.42,87.54-224.75,102.8Z"/><path class="cls-6" d="M32.93,783.5c-8.64,1.16-17.26,1.95-25.84,2.39h0c8.57-.44,17.19-1.23,25.84-2.39,113.33-15.25,187.28-53.87,224.75-102.8h0c-37.48,48.92-111.42,87.54-224.75,102.8Z"/><path class="cls-4" d="M63.98,1117.65l42.06-89.16c-.73-.27-1.45-.54-2.18-.81l-39.88,89.96Z"/><path class="cls-4" d="M103.86,1027.68c.73,.27,1.45,.54,2.18,.81l38.65-81.93c-1.41-.48-2.82-.97-4.22-1.47l-36.61,82.59Z"/><path class="cls-4" d="M257.68,680.7h0c14.82-19.35,23.93-40.31,27.52-62.08h0c-3.59,21.77-12.7,42.73-27.52,62.08Z"/><path class="cls-4" d="M285.2,618.62c-3.59,21.77-12.7,42.73-27.52,62.08l-117.21,264.39c1.4,.5,2.81,.98,4.22,1.47l150.1-318.15c-2.63-5.64-4.85-11.08-6.73-16.25l-2.86,6.46Z"/><path class="cls-4" d="M610.3,245.09l156.79-152.67-155.12,154.37c52.85,54.32,93.51,122.03,116.08,199.9,3.92,13.51,7.2,27.06,9.89,40.61C921.17,316.41,903.72,29.33,903.72,29.33c0,0-160.08-26.58-324.72,3.61-72.57,13.31-146.02,37.66-207.04,80.17,90.4,19.97,173.44,65.94,238.34,131.98Z"/><path class="cls-4" d="M903.72,29.33s-160.08-26.58-324.72,3.61c164.64-30.19,324.72-3.61,324.72-3.61,0,0,17.45,287.08-165.79,457.97h0C921.17,316.42,903.72,29.33,903.72,29.33Z"/><path class="cls-4" d="M306.42,170.03c.26-.27,.53-.55,.8-.82-.27,.27-.53,.55-.8,.82Z"/><path class="cls-4" d="M310.32,166.05c.27-.27,.54-.54,.81-.82-.27,.27-.54,.54-.81,.82Z"/><path class="cls-4" d="M314.33,162.04c.25-.25,.51-.5,.76-.76-.26,.25-.51,.5-.76,.76Z"/><path class="cls-4" d="M545.73,307.96l64.56-62.87c-64.91-66.04-147.94-112.01-238.34-131.98-10.87,7.57-21.35,15.71-31.35,24.48-4.52,3.96-8.93,7.94-13.22,11.93-.06,.06-.12,.12-.19,.18-1.33,1.24-2.66,2.48-3.97,3.73-.17,.16-.35,.33-.52,.49-1.2,1.14-2.4,2.29-3.58,3.43-.22,.22-.45,.43-.67,.65-1.13,1.09-2.25,2.19-3.36,3.28-.26,.25-.51,.5-.76,.76-1.07,1.06-2.14,2.13-3.2,3.19-.27,.27-.54,.54-.81,.82-1.04,1.05-2.08,2.11-3.1,3.16-.27,.27-.53,.55-.8,.82-1.03,1.06-2.06,2.13-3.07,3.19-.25,.26-.49,.52-.74,.77-1.03,1.09-2.06,2.18-3.08,3.27-.22,.23-.44,.46-.65,.7-1.06,1.14-2.12,2.28-3.16,3.43-.16,.18-.32,.35-.48,.53-1.13,1.24-2.24,2.47-3.35,3.71-.07,.08-.15,.16-.22,.25-1.95,2.18-3.85,4.36-5.73,6.54,98.59,4.21,191.52,46.21,259.8,115.55Z"/><path class="cls-4" d="M318.45,158c.22-.22,.45-.43,.67-.65-.22,.22-.45,.43-.67,.65Z"/><path class="cls-4" d="M302.61,174c.25-.26,.49-.52,.74-.77-.25,.26-.49,.52-.74,.77Z"/><path class="cls-4" d="M728.2,496.11c-25.2,22.08-49.14,42.08-72.02,59.93h0c22.88-17.85,46.82-37.85,72.02-59.93,3.3-2.9,6.54-5.83,9.72-8.8h0c-3.18,2.97-6.42,5.9-9.72,8.8Z"/><path class="cls-4" d="M611.96,246.79l-63.88,63.57c42.52,43.93,75.23,98.6,93.43,161.41,8.13,28.05,12.94,56.28,14.68,84.26,22.88-17.85,46.82-37.85,72.02-59.93,3.3-2.9,6.54-5.83,9.72-8.8-2.69-13.55-5.97-27.1-9.89-40.61-22.56-77.88-63.22-145.59-116.08-199.9Z"/><path class="cls-4" d="M295.24,181.92c.16-.18,.32-.35,.48-.53-.16,.18-.32,.35-.48,.53Z"/><path class="cls-4" d="M298.88,177.96c.22-.23,.44-.46,.65-.7-.22,.23-.44,.46-.65,.7Z"/><path class="cls-4" d="M322.71,153.91c.17-.16,.34-.33,.52-.49-.17,.16-.34,.33-.52,.49Z"/><path class="cls-4" d="M291.67,185.87c.07-.08,.15-.16,.22-.25-.07,.08-.15,.16-.22,.25Z"/><path class="cls-4" d="M327.2,149.69c.06-.06,.12-.12,.19-.18-.06,.06-.12,.12-.19,.18Z"/><path class="cls-4" d="M202.58,344.57c.15-.58,.3-1.16,.46-1.75-.15,.58-.31,1.16-.46,1.75Z"/><path class="cls-4" d="M201.6,348.46c.15-.62,.3-1.23,.46-1.85-.16,.62-.31,1.23-.46,1.85Z"/><path class="cls-4" d="M193.39,406.53c.04-1.2,.09-2.41,.15-3.61-.06,1.21-.11,2.41-.15,3.61Z"/><path class="cls-4" d="M193.28,410.5c.03-1.22,.06-2.44,.1-3.66-.04,1.22-.08,2.44-.1,3.66Z"/><path class="cls-4" d="M193.56,402.58c.06-1.2,.13-2.41,.21-3.62-.08,1.21-.15,2.42-.21,3.62Z"/><path class="cls-4" d="M626.72,578.24c1.81-1.31,3.62-2.64,5.44-3.98-1.82,1.34-3.64,2.67-5.44,3.98Z"/><path class="cls-4" d="M203.63,340.65c.15-.54,.29-1.08,.45-1.62-.15,.54-.3,1.08-.45,1.62Z"/><path class="cls-4" d="M193.79,398.62c.08-1.23,.17-2.45,.26-3.68-.1,1.23-.18,2.46-.26,3.68Z"/><path class="cls-4" d="M245.52,246.89l.02-.03-.02,.03Z"/><path class="cls-4" d="M194.08,394.66c.1-1.28,.21-2.56,.33-3.84-.12,1.28-.23,2.56-.33,3.84Z"/><path class="cls-4" d="M268,214.49c.08-.1,.15-.2,.23-.31-.08,.1-.15,.2-.23,.31Z"/><path class="cls-4" d="M225.03,283.88c.11-.23,.22-.45,.33-.68-.11,.23-.22,.45-.33,.68Z"/><path class="cls-4" d="M227.05,279.77c.09-.18,.17-.35,.26-.53-.09,.18-.17,.35-.26,.53Z"/><path class="cls-4" d="M229.17,275.58c.05-.1,.1-.2,.15-.3-.05,.1-.1,.2-.15,.3Z"/><path class="cls-4" d="M199.01,359.95c.14-.71,.29-1.42,.44-2.13-.15,.71-.3,1.42-.44,2.13Z"/><path class="cls-4" d="M197.56,367.53c.14-.8,.29-1.61,.44-2.42-.15,.81-.3,1.61-.44,2.42Z"/><path class="cls-4" d="M261.83,222.77c.14-.19,.28-.39,.42-.58-.14,.19-.28,.39-.42,.58Z"/><path class="cls-4" d="M248.05,242.9c.07-.1,.14-.21,.2-.31-.07,.1-.14,.21-.2,.31Z"/><path class="cls-4" d="M264.85,218.67c.12-.16,.24-.32,.36-.49-.12,.16-.24,.32-.36,.49Z"/><path class="cls-4" d="M198.26,363.75c.14-.75,.29-1.5,.44-2.25-.15,.75-.3,1.5-.44,2.25Z"/><path class="cls-4" d="M204.75,336.68c.14-.49,.28-.98,.42-1.47-.14,.49-.28,.98-.42,1.47Z"/><path class="cls-4" d="M196.92,371.29c.15-.89,.3-1.77,.45-2.66-.15,.89-.31,1.78-.45,2.66Z"/><path class="cls-4" d="M548.08,310.37l-241.23,240.07c2.01,.85,4.02,1.73,6.01,2.66,.38,.18,.76,.37,1.14,.55,2.97,1.41,5.9,2.89,8.76,4.45,35.65,5.24,88.65,27.13,145.19,99.7,48.41-10.02,100.11-37,158.77-79.56,1.81-1.31,3.62-2.64,5.44-3.98,6.28-4.62,12.64-9.42,19.08-14.39,1.64-1.27,3.29-2.54,4.94-3.83-1.73-27.98-6.54-56.21-14.68-84.26-18.2-62.81-50.91-117.47-93.43-161.41Z"/><path class="cls-4" d="M217.78,299.93c.12-.28,.24-.56,.36-.84-.12,.28-.24,.56-.36,.84Z"/><path class="cls-4" d="M199.82,356.14c.15-.68,.3-1.35,.45-2.03-.15,.68-.3,1.35-.45,2.03Z"/><path class="cls-4" d="M656.19,556.03h0c-1.65,1.29-3.3,2.57-4.94,3.83,1.64-1.27,3.29-2.54,4.94-3.83Z"/><path class="cls-4" d="M258.92,226.84c.15-.21,.29-.41,.44-.62-.15,.21-.29,.41-.44,.62Z"/><path class="cls-4" d="M200.68,352.31c.15-.65,.3-1.29,.46-1.94-.15,.65-.31,1.29-.46,1.94Z"/><path class="cls-4" d="M193.22,414.48c0-1.25,.02-2.5,.05-3.75-.03,1.25-.04,2.51-.05,3.75Z"/><path class="cls-4" d="M256.09,230.87c.14-.2,.28-.4,.42-.6-.14,.2-.28,.4-.42,.6Z"/><path class="cls-4" d="M213.04,311.76c.06-.16,.12-.31,.18-.47-.06,.16-.12,.31-.18,.47Z"/><path class="cls-4" d="M214.56,307.83c.09-.23,.18-.46,.27-.69-.09,.23-.18,.46-.27,.69Z"/><path class="cls-4" d="M295.52,546.09c1.38,.48,2.76,.97,4.14,1.48h0c-1.38-.52-2.76-1.01-4.14-1.49h0Z"/><path class="cls-4" d="M211.58,315.68v0Z"/><path class="cls-4" d="M223.1,287.95c.12-.26,.24-.52,.37-.78-.12,.26-.24,.52-.37,.78Z"/><path class="cls-4" d="M312.86,553.1c.38,.18,.76,.37,1.14,.55h0c-.38-.18-.76-.38-1.14-.56-1.99-.93-4-1.81-6.01-2.66h0c2.01,.85,4.02,1.73,6.01,2.67Z"/><path class="cls-4" d="M193.22,414.59c0,.99,0,1.98,0,2.97h0c0-.99,0-1.98,0-2.97Z"/><path class="cls-4" d="M295.52,546.09c1.38,.48,2.76,.97,4.14,1.48l246.08-239.62c-68.28-69.33-161.2-111.33-259.8-115.55-6.25,7.24-12.15,14.51-17.7,21.78-.08,.1-.15,.2-.23,.31-.94,1.23-1.87,2.46-2.79,3.69-.12,.16-.24,.32-.36,.49-.87,1.17-1.74,2.35-2.6,3.52-.14,.19-.28,.39-.42,.58-.83,1.15-1.66,2.3-2.48,3.44-.15,.21-.29,.41-.44,.62-.81,1.14-1.61,2.28-2.41,3.43-.14,.2-.28,.4-.42,.6-.8,1.15-1.59,2.31-2.38,3.46-.13,.19-.25,.37-.38,.56-.8,1.18-1.59,2.36-2.37,3.54-.1,.16-.21,.31-.31,.47-.81,1.23-1.61,2.46-2.4,3.69-.07,.1-.14,.21-.2,.31-.85,1.32-1.69,2.64-2.52,3.96l-.02,.03c-5.94,9.48-11.33,18.95-16.2,28.39-.05,.1-.1,.2-.15,.3-.63,1.22-1.25,2.44-1.86,3.67-.09,.18-.17,.35-.26,.53-.57,1.15-1.13,2.29-1.69,3.43-.11,.23-.22,.45-.33,.68-.53,1.09-1.05,2.19-1.56,3.28-.12,.26-.24,.52-.37,.78-.5,1.06-.98,2.12-1.47,3.18-.13,.28-.25,.56-.38,.84-.47,1.05-.94,2.09-1.4,3.14-.13,.29-.25,.57-.38,.86-.46,1.05-.91,2.09-1.35,3.13-.12,.28-.24,.56-.36,.84-.45,1.05-.88,2.11-1.31,3.16-.11,.27-.22,.53-.33,.8-.44,1.08-.87,2.17-1.3,3.25-.09,.23-.18,.46-.27,.69-.45,1.15-.9,2.31-1.34,3.46-.06,.16-.12,.31-.18,.47-.49,1.3-.97,2.6-1.45,3.89v.03c-1.46,3.97-2.81,7.93-4.08,11.87-.08,.24-.15,.49-.23,.73-.33,1.03-.65,2.07-.97,3.1-.13,.41-.25,.82-.37,1.23-.26,.87-.52,1.73-.78,2.6-.14,.49-.28,.98-.42,1.47-.23,.78-.45,1.57-.67,2.35-.15,.54-.3,1.08-.45,1.62-.2,.72-.4,1.45-.59,2.17-.15,.58-.31,1.16-.46,1.75-.18,.68-.35,1.36-.52,2.04-.16,.62-.31,1.23-.46,1.85-.16,.64-.31,1.28-.46,1.91-.15,.65-.31,1.29-.46,1.94-.14,.6-.28,1.2-.41,1.8-.15,.68-.3,1.35-.45,2.03-.12,.56-.24,1.12-.36,1.69-.15,.71-.3,1.42-.44,2.13-.11,.52-.21,1.03-.31,1.55-.15,.75-.3,1.5-.44,2.25-.09,.46-.17,.91-.25,1.36-.15,.81-.3,1.61-.44,2.42-.07,.37-.13,.73-.19,1.1-.15,.89-.31,1.78-.45,2.66-.03,.21-.07,.42-.1,.63-.36,2.23-.7,4.46-1,6.67-.56,4.06-1.02,8.1-1.4,12.11v.12c-.13,1.28-.24,2.56-.34,3.84,0,.09-.01,.18-.02,.27-.1,1.23-.18,2.46-.26,3.68,0,.11-.01,.23-.02,.34-.08,1.21-.15,2.42-.21,3.62,0,.11-.01,.23-.02,.34-.06,1.21-.11,2.41-.15,3.61,0,.1,0,.21-.01,.31-.04,1.22-.08,2.44-.1,3.66v.23c-.03,1.25-.05,2.51-.06,3.75v.11c0,.99,0,1.98,0,2.97,110.02,28.66,109.72,95.85,102.29,128.52Z"/><path class="cls-4" d="M253.34,234.89c.12-.19,.25-.37,.38-.56-.13,.19-.25,.37-.38,.56Z"/><path class="cls-4" d="M216.13,303.89c.11-.27,.22-.53,.33-.8-.11,.27-.22,.53-.33,.8Z"/><path class="cls-4" d="M196.82,371.92c-1.02,6.31-1.82,12.58-2.4,18.78,.38-4.01,.84-8.05,1.4-12.11,.31-2.22,.64-4.44,1-6.67Z"/><path class="cls-4" d="M221.26,291.97c.13-.28,.25-.56,.38-.84-.13,.28-.25,.56-.38,.84Z"/><path class="cls-4" d="M219.48,295.96c.12-.28,.25-.57,.38-.86-.13,.29-.25,.57-.38,.86Z"/><path class="cls-4" d="M250.66,238.9c.1-.16,.21-.31,.31-.47-.1,.16-.21,.31-.31,.47Z"/><path class="cls-4" d="M205.95,332.61c.12-.41,.24-.82,.37-1.23-.13,.41-.25,.82-.37,1.23Z"/><path class="cls-4" d="M207.29,328.29c.08-.24,.15-.49,.23-.73-.08,.24-.15,.49-.23,.73Z"/><path class="cls-4" d="M293.57,553.5l6.09-5.93c-1.38-.51-2.75-1.01-4.14-1.48-.62,2.73-1.29,5.21-1.95,7.41Z"/><path class="cls-4" d="M312.52,556.99l1.48-3.34c-.38-.18-.75-.37-1.14-.55-1.99-.93-4-1.81-6.01-2.66l-6.32,6.29c3.63-.1,7.64-.04,12,.26Z"/><path class="cls-4" d="M322.75,558.1h0c-2.86-1.56-5.79-3.03-8.76-4.45h0c2.97,1.42,5.89,2.89,8.75,4.45Z"/><path class="cls-4" d="M322.75,558.1c-2.86-1.56-5.78-3.03-8.75-4.45l-1.48,3.34c3.22,.22,6.64,.58,10.23,1.11Z"/><path class="cls-6" d="M767.08,92.42l-156.79,152.67c.56,.57,1.11,1.14,1.67,1.7l155.12-154.37Z"/><path class="cls-6" d="M548.08,310.37l63.88-63.57c-.55-.57-1.11-1.14-1.67-1.7l-64.56,62.87c.79,.8,1.57,1.6,2.35,2.41Z"/><path class="cls-6" d="M299.66,547.58c2.41,.9,4.81,1.85,7.2,2.86l241.23-240.07c-.78-.81-1.56-1.61-2.35-2.41l-246.08,239.62Z"/><path class="cls-6" d="M299.65,547.58c2.41,.9,4.81,1.85,7.2,2.86h0c-2.39-1.01-4.79-1.96-7.2-2.86h0Z"/><path class="cls-6" d="M292.37,557.26c2.45-.25,5.17-.44,8.16-.53l6.32-6.29c-2.39-1.01-4.79-1.96-7.2-2.86l-6.09,5.93c-.41,1.36-.81,2.62-1.2,3.75Z"/><path class="cls-4" d="M91.42,604.09l-84.33,13.13v93.81c26.71-44.48,55.14-79.94,84.33-106.94Z"/><path class="cls-4" d="M151.09,451.33h0c-39.49-9.33-87.52-11.95-144-6.04h0c56.48-5.91,104.51-3.29,144,6.04Z"/><path class="cls-4" d="M101.44,595.17c29.64-25.33,59.92-42.09,89.85-50.87-17.71-17.6-32.88-46.46-40.2-92.96-39.49-9.33-87.52-11.95-144-6.04v168.05l94.35-18.18Z"/><path class="cls-4" d="M260.83,584.4c-.45-.43-.89-.87-1.33-1.31,.44,.44,.88,.88,1.33,1.31Z"/><path class="cls-4" d="M265.38,588.68c-1.28-1.16-2.54-2.35-3.79-3.55,1.25,1.2,2.51,2.39,3.78,3.55,6.94,6.33,13.84,12.24,20.7,17.73h0c-6.86-5.5-13.75-11.4-20.7-17.73Z"/><path class="cls-4" d="M265.38,588.68c-1.28-1.16-2.54-2.35-3.78-3.55-.25-.24-.51-.48-.76-.73-.45-.43-.89-.87-1.33-1.31-.31-.31-.63-.62-.94-.93-.41-.41-.81-.82-1.21-1.23-.34-.35-.69-.7-1.03-1.05-.38-.39-.76-.79-1.14-1.19-.02-.02-.05-.05-.07-.07l-163.69,25.48c-29.19,27-57.62,62.46-84.33,106.94v74.86c8.57-.44,17.19-1.23,25.84-2.39,113.33-15.25,187.28-53.87,224.75-102.8l27.52-62.08c.59-3.59,1.04-7.2,1.33-10.84-.15-.46-.31-.92-.46-1.37-6.86-5.49-13.76-11.4-20.7-17.73Z"/><path class="cls-4" d="M191.29,544.3h0c-29.92,8.78-60.21,25.54-89.85,50.87h0c29.64-25.33,59.92-42.09,89.85-50.87Z"/><path class="cls-4" d="M256.31,579.88c-.38-.39-.76-.79-1.14-1.19,.38,.4,.76,.8,1.14,1.19Z"/><path class="cls-4" d="M258.56,582.16c-.41-.41-.81-.82-1.21-1.23,.4,.41,.81,.82,1.21,1.23Z"/><path class="cls-4" d="M91.42,604.09h0c-29.19,27-57.62,62.46-84.33,106.94h0c26.71-44.48,55.14-79.94,84.33-106.94Z"/><path class="cls-4" d="M191.29,544.3c-29.92,8.78-60.21,25.55-89.85,50.87l137.45-26.49c-15.53-2.57-32.49-9.38-47.6-24.39Z"/><path class="cls-4" d="M285.2,618.62l-27.52,62.08c14.82-19.35,23.93-40.31,27.52-62.08Z"/><path class="cls-4" d="M255.11,578.61s.05,.05,.07,.07c-.02-.02-.04-.05-.07-.07h0Z"/><path class="cls-4" d="M286.07,606.41c-4.15-12.66-6.24-23.47-7.27-31.48l-23.69,3.69s.05,.05,.07,.07c.38,.4,.76,.8,1.14,1.19,.34,.35,.69,.7,1.03,1.05,.4,.41,.81,.82,1.21,1.23,.31,.31,.63,.62,.94,.93,.44,.44,.88,.88,1.33,1.31,.25,.25,.51,.49,.76,.73,1.25,1.2,2.51,2.39,3.79,3.55,6.94,6.33,13.84,12.23,20.7,17.73Z"/><path class="cls-4" d="M261.59,585.13c-.25-.24-.51-.48-.76-.73,.25,.25,.51,.49,.76,.73Z"/><path class="cls-4" d="M259.5,583.09c-.31-.31-.63-.62-.94-.93,.31,.31,.63,.62,.94,.93Z"/><path class="cls-4" d="M257.34,580.93c-.34-.35-.69-.7-1.03-1.05,.34,.35,.69,.7,1.03,1.05Z"/><path class="cls-6" d="M101.44,595.17l-94.35,18.18v3.87l84.33-13.13c3.33-3.08,6.67-6.06,10.02-8.92Z"/><path class="cls-6" d="M251.92,575.19c-.34-.38-.69-.76-1.03-1.14,.34,.38,.68,.76,1.03,1.14Z"/><path class="cls-6" d="M249.76,572.77c-.32-.37-.65-.74-.97-1.11,.32,.37,.65,.74,.97,1.11Z"/><path class="cls-6" d="M254.1,577.55c-.36-.39-.72-.77-1.08-1.16,.36,.39,.72,.78,1.08,1.16Z"/><path class="cls-6" d="M91.42,604.09c3.33-3.08,6.67-6.06,10.02-8.92h0c-3.35,2.86-6.69,5.84-10.02,8.92h0Z"/><path class="cls-6" d="M254.1,577.55c-.36-.39-.72-.77-1.08-1.16-.37-.4-.74-.8-1.1-1.2-.34-.38-.69-.76-1.03-1.14-.38-.42-.76-.85-1.13-1.27-.32-.37-.65-.74-.97-1.11-.39-.45-.78-.9-1.16-1.35-.18-.21-.37-.42-.55-.64-2.67-.21-5.41-.53-8.19-.99l-137.45,26.49c-3.35,2.86-6.69,5.84-10.02,8.92l163.69-25.48c-.34-.35-.67-.71-1.01-1.06Z"/><path class="cls-6" d="M247.08,569.67c.18,.21,.37,.43,.55,.64-.18-.21-.36-.43-.54-.64h0Z"/><path class="cls-6" d="M248.79,571.66c-.39-.45-.78-.9-1.16-1.35,.39,.45,.77,.9,1.16,1.35Z"/><path class="cls-6" d="M253.02,576.39c-.37-.4-.74-.8-1.1-1.2,.37,.4,.73,.8,1.1,1.2Z"/><path class="cls-6" d="M250.89,574.04c-.38-.42-.76-.85-1.13-1.27,.38,.43,.75,.85,1.13,1.27Z"/><path class="cls-6" d="M278.8,574.93c-.36-2.81-.6-5.27-.75-7.35-7.72,1.63-18.66,3.07-30.96,2.1,.18,.21,.36,.43,.54,.64,.39,.45,.77,.9,1.16,1.35,.32,.37,.65,.74,.97,1.11,.38,.43,.75,.85,1.13,1.27,.34,.38,.68,.76,1.03,1.14,.37,.4,.73,.8,1.1,1.2,.36,.39,.72,.78,1.08,1.16,.33,.36,.67,.71,1.01,1.06l23.69-3.69Z"/><path class="cls-6" d="M254.1,577.55c.33,.36,.67,.71,1.01,1.06h0c-.34-.35-.67-.71-1.01-1.06Z"/><path class="cls-6" d="M549.89,800.2h0s0,0,0,0Z"/><path class="cls-6" d="M405.16,660.99h0c20.5,2.36,41.33,1.26,62.8-3.19h0c-21.47,4.44-42.3,5.55-62.8,3.19Z"/><path class="cls-6" d="M405.16,660.99c1.21,3.85,2.32,7.78,3.34,11.79l73.83,67.79-72.77-63.49c5.1,21.9,7.37,46.16,6.5,72.62,35.01,19.39,78.87,36.92,133.83,50.5-27.11-61.5-54.92-107.73-81.93-142.4-21.47,4.44-42.3,5.55-62.8,3.19Z"/><path class="cls-6" d="M286.6,606.83h0c.95,.76,1.89,1.5,2.83,2.24h0c-.94-.74-1.89-1.49-2.84-2.24Z"/><path class="cls-6" d="M286.53,607.79c.48,1.44,.99,2.9,1.53,4.38l1.37-3.09c-.94-.74-1.89-1.49-2.83-2.24-.02,.32-.04,.64-.07,.95Z"/><path class="cls-6" d="M300.12,617.11h0c29.42,21.25,58.35,34.82,87.77,41.06h0c-29.42-6.25-58.35-19.81-87.77-41.06Z"/><path class="cls-6" d="M408.49,672.78c-1.02-4.01-2.13-7.94-3.34-11.79-3.78-.43-7.54-.98-11.3-1.65l14.63,13.44Z"/><path class="cls-6" d="M409.55,677.07l-21.66-18.9c-29.42-6.25-58.36-19.81-87.77-41.06l-5.33,11.3c17.22,36.99,51.82,82.81,121.26,121.28,.87-26.46-1.4-50.71-6.5-72.62Z"/><path class="cls-6" d="M409.56,677.07h0c5.1,21.9,7.37,46.16,6.5,72.62h0c.87-26.46-1.4-50.71-6.5-72.62Z"/><polygon class="cls-6" points="405.16 660.99 405.16 660.99 405.16 660.99 405.16 660.99 405.16 660.99"/><path class="cls-6" d="M408.49,672.78h0c-1.02-4.01-2.13-7.94-3.34-11.79h0c1.21,3.85,2.32,7.78,3.34,11.79Z"/><path class="cls-6" d="M405.16,660.99h0c-3.78-.44-7.54-.98-11.3-1.65h0c3.76,.67,7.52,1.22,11.3,1.65Z"/><path class="cls-6" d="M286.53,607.79h0c.03-.32,.04-.64,.07-.95h0c-.02,.32-.04,.64-.07,.95Z"/><polygon class="cls-6" points="286.6 606.83 286.6 606.83 286.6 606.83 286.6 606.83 286.6 606.83"/><path class="cls-6" d="M289.43,609.07l-1.37,3.09c1.88,5.17,4.1,10.61,6.73,16.25l5.33-11.3c-3.56-2.57-7.12-5.25-10.69-8.04Z"/><path class="cls-6" d="M289.44,609.07h0c3.57,2.79,7.13,5.48,10.69,8.04h0c-3.55-2.57-7.12-5.25-10.69-8.04Z"/><path class="cls-6" d="M391.13,627.29c-15.33-28.71-37.2-51.16-64.26-66.87h0c27.06,15.71,48.93,38.17,64.26,66.87Z"/><path class="cls-6" d="M391.13,627.29c5.56,10.41,10.25,21.66,14.03,33.69,20.5,2.36,41.33,1.25,62.8-3.19-56.54-72.57-109.55-94.47-145.19-99.7,1.38,.75,2.75,1.53,4.11,2.32,27.06,15.71,48.93,38.17,64.26,66.87Z"/><path class="cls-6" d="M285.71,578.48h0c1.28,9.53,1.57,19,.89,28.35h0c.68-9.35,.39-18.82-.89-28.35Z"/><path class="cls-6" d="M283.73,567.29c.38,1.73,.72,3.48,1.03,5.23,.1,.54,.21,1.08,.3,1.63,.04,.23,.07,.45,.1,.68,.19,1.21,.38,2.42,.55,3.65h0c1.28,9.53,1.57,19,.89,28.35,.95,.75,1.89,1.5,2.84,2.24l11.76-26.54-17.47-15.24Z"/><path class="cls-6" d="M405.16,660.99c-3.78-12.04-8.47-23.28-14.03-33.69,5.56,10.41,10.25,21.66,14.03,33.69h0Z"/><path class="cls-6" d="M393.85,659.34c3.76,.67,7.52,1.22,11.3,1.65-3.78-12.04-8.47-23.28-14.03-33.69-15.33-28.71-37.2-51.16-64.26-66.87l-12.32,26.1,79.3,72.81Z"/><path class="cls-6" d="M285.06,574.16c.04,.23,.07,.45,.1,.68-.04-.23-.06-.45-.1-.68Z"/><path class="cls-6" d="M293.83,566.08l-.76,.73,10.73,9.85,8.72-19.67c-4.36-.3-8.37-.36-12-.26l-8,7.96,1.3,1.39Z"/><path class="cls-6" d="M300.12,617.11c29.41,21.25,58.35,34.81,87.77,41.06l-75.9-66.22-11.87,25.16Z"/><path class="cls-6" d="M326.87,560.42h0c-1.36-.79-2.72-1.57-4.11-2.32h0c1.39,.75,2.75,1.53,4.11,2.32Z"/><path class="cls-6" d="M303.8,576.66l10.75,9.87,12.32-26.1c-1.36-.79-2.73-1.57-4.11-2.32-3.59-.53-7.01-.89-10.23-1.11l-8.72,19.67Z"/><path class="cls-6" d="M301.2,582.53l-11.76,26.54c3.57,2.79,7.13,5.47,10.69,8.04l11.87-25.16-10.79-9.42Z"/><path class="cls-6" d="M292.53,564.69l8-7.96c-2.99,.08-5.71,.28-8.16,.53-.75,2.2-1.43,3.96-1.94,5.2l2.1,2.23Z"/><path class="cls-6" d="M286.07,606.41c.17,.14,.35,.28,.52,.42h0c-.17-.14-.35-.28-.53-.42h0Z"/><path class="cls-6" d="M286.07,606.41c.15,.45,.3,.91,.46,1.37,.03-.32,.04-.64,.07-.95-.17-.14-.35-.28-.52-.42Z"/><path class="cls-6" d="M285.06,574.16c-.09-.55-.2-1.09-.3-1.63,.08,.48,.18,.95,.26,1.43,.01,.07,.02,.13,.04,.2Z"/><path class="cls-6" d="M285.71,578.48c-.16-1.22-.35-2.43-.55-3.65,.19,1.21,.38,2.43,.55,3.65h0Z"/><path class="cls-6" d="M278.8,574.93c1.04,8.01,3.12,18.82,7.27,31.48,.18,.14,.35,.28,.53,.42,.68-9.35,.39-18.82-.89-28.35-.16-1.22-.35-2.44-.55-3.65-.04-.23-.06-.45-.1-.68-.01-.07-.02-.13-.04-.2l-6.23,.97Z"/><path class="cls-6" d="M284.76,572.53c-.31-1.76-.66-3.5-1.03-5.23h0c.38,1.73,.72,3.48,1.03,5.23Z"/><path class="cls-6" d="M282.78,566.47c-1.4,.36-2.98,.74-4.73,1.11,.15,2.08,.39,4.54,.75,7.35l6.23-.97c-.08-.48-.18-.95-.26-1.43-.31-1.76-.66-3.5-1.03-5.23l-.95-.83Z"/><path class="cls-4" d="M482.32,740.56l-73.83-67.79c.36,1.43,.73,2.85,1.06,4.3l72.77,63.49Z"/><path class="cls-4" d="M393.86,659.34c-1.99-.35-3.98-.74-5.96-1.16l21.66,18.9c-.34-1.45-.7-2.87-1.06-4.3l-14.63-13.44Z"/><path class="cls-4" d="M409.55,677.07h0c-.34-1.45-.7-2.87-1.06-4.3h0c.36,1.43,.73,2.85,1.06,4.3Z"/><path class="cls-4" d="M393.85,659.34c-1.99-.36-3.98-.74-5.96-1.16h0c1.99,.42,3.97,.81,5.96,1.17h0Z"/><path class="cls-4" d="M291.29,568.53l-2.55,2.45-4.28-4.97c-.31,.08-.62,.17-.95,.26,.08,.34,.14,.68,.22,1.02l17.47,15.24,2.61-5.88-10.73-9.85-1.79,1.72Z"/><path class="cls-4" d="M387.89,658.17c1.99,.42,3.97,.81,5.96,1.16l-79.3-72.81-2.56,5.43,75.9,66.22Z"/><polygon class="cls-4" points="311.99 591.95 314.55 586.53 303.8 576.66 301.2 582.53 311.99 591.95"/><path class="cls-4" d="M283.73,567.29h0c-.07-.34-.14-.68-.22-1.02h0c.08,.34,.14,.68,.22,1.02Z"/><path class="cls-4" d="M283.73,567.29c-.07-.34-.14-.68-.22-1.02-.24,.06-.48,.13-.73,.19l.95,.83Z"/><path class="cls-6" d="M197.94,465.54l-15.58-18.09,15.22,16.2c-2.78-14.78-4.28-30.19-4.36-46.08-13.66-3.56-29.02-6.52-46.29-8.75,.72,15.6,2.14,29.73,4.15,42.52,17.4,4.11,33.15,9.52,47.23,16.09-.13-.63-.26-1.25-.38-1.88Z"/><path class="cls-6" d="M274.83,540.4c6.98,1.45,13.88,3.35,20.68,5.69h0c-6.8-2.35-13.7-4.25-20.68-5.69h0Z"/><path class="cls-6" d="M210.12,473.39c.15,.08,.3,.16,.45,.24,.82,.46,1.62,.93,2.43,1.39,.64,.37,1.29,.72,1.92,1.09,.43,.25,.84,.51,1.27,.77,27.59,16.55,47.17,38.27,58.65,63.52,6.98,1.45,13.88,3.35,20.68,5.69,7.43-32.67,7.73-99.86-102.29-128.52,.08,15.89,1.58,31.29,4.36,46.08l5.88,6.26c2.26,1.13,4.49,2.29,6.66,3.48Z"/><path class="cls-6" d="M197.96,465.56l-.02-.02c.12,.63,.25,1.25,.38,1.88h0c-.13-.62-.24-1.24-.37-1.86Z"/><path class="cls-6" d="M197.58,463.65c-2.78-14.78-4.27-30.19-4.36-46.08h0c.08,15.89,1.58,31.29,4.36,46.08h0Z"/><path class="cls-6" d="M213,475.02c.64,.37,1.29,.72,1.92,1.09-.63-.37-1.28-.73-1.92-1.09Z"/><path class="cls-6" d="M210.12,473.39c.15,.08,.3,.16,.45,.24-.15-.08-.3-.16-.45-.24Z"/><path class="cls-6" d="M197.96,465.56c.12,.62,.24,1.24,.37,1.86,.7,.32,1.39,.65,2.08,.98l-2.45-2.84Z"/><path class="cls-6" d="M274.83,540.4h0c-11.49-25.25-31.06-46.97-58.65-63.52,27.59,16.55,47.17,38.27,58.65,63.52Z"/><polygon class="cls-6" points="274.83 540.4 274.83 540.4 274.83 540.4 274.83 540.4 274.83 540.4"/><path class="cls-6" d="M278.76,550.04h0c-1.18-3.27-2.49-6.48-3.93-9.64h0c1.44,3.16,2.75,6.37,3.93,9.64Z"/><path class="cls-6" d="M278.77,550.04l7.55,8.03c.94-.16,1.95-.31,3.04-.46l4.22-4.11c.66-2.2,1.33-4.68,1.95-7.41-6.8-2.34-13.7-4.24-20.68-5.69,1.44,3.16,2.75,6.37,3.93,9.64Z"/><path class="cls-6" d="M292.37,557.26c.39-1.14,.79-2.39,1.2-3.75l-4.22,4.11c.95-.13,1.96-.25,3.02-.36Z"/><path class="cls-6" d="M224.71,537.76c-.2-.35-.4-.7-.6-1.05l-.03-.06c-.55-.96-1.09-1.93-1.62-2.9l-.08-.15c-.52-.95-1.03-1.9-1.54-2.85-.03-.06-.06-.12-.09-.18-.5-.95-1-1.91-1.49-2.87-.03-.06-.06-.12-.09-.18-.49-.97-.98-1.94-1.46-2.92-.02-.05-.05-.09-.07-.14-.49-1-.97-2-1.45-3.01l-.03-.07c-7.88-16.71-13.93-34.79-17.83-53.95-14.08-6.56-29.83-11.97-47.23-16.08,7.32,46.5,22.49,75.37,40.2,92.96,1.68-.49,3.35-.96,5.03-1.41,9.52-2.51,18.99-4.22,28.39-5.13Z"/><path class="cls-6" d="M224.11,536.71l-.03-.06,.03,.06Z"/><path class="cls-6" d="M219.25,527.7c-.03-.06-.06-.12-.09-.18,.03,.06,.06,.12,.09,.18Z"/><path class="cls-6" d="M217.7,524.6s-.05-.09-.07-.14c.02,.05,.05,.09,.07,.14Z"/><path class="cls-6" d="M220.84,530.75c-.03-.06-.06-.12-.09-.18,.03,.06,.06,.12,.09,.18Z"/><path class="cls-6" d="M224.71,537.76c-9.4,.92-18.87,2.62-28.39,5.13,9.52-2.51,18.99-4.21,28.39-5.13h0Z"/><path class="cls-6" d="M198.32,467.42h0c-14.08-6.56-29.83-11.97-47.23-16.09h0c17.4,4.11,33.15,9.52,47.23,16.09Z"/><path class="cls-6" d="M216.19,521.44l-.03-.07,.03,.07Z"/><path class="cls-6" d="M222.46,533.76c-.03-.05-.06-.1-.08-.15l.08,.15Z"/><path class="cls-6" d="M235.09,554.1c-.05-.08-.11-.15-.16-.22,.05,.08,.11,.15,.16,.22Z"/><path class="cls-6" d="M239.31,559.92c-.19-.26-.39-.52-.58-.78,.19,.26,.39,.52,.58,.78Z"/><path class="cls-6" d="M237.24,557.11c-.14-.2-.28-.39-.43-.58,.14,.2,.28,.39,.43,.58Z"/><path class="cls-6" d="M245.23,567.46c-.19-.23-.38-.46-.56-.69-.41-.51-.83-1.02-1.24-1.53-.26-.32-.52-.65-.78-.97-.43-.54-.86-1.09-1.29-1.64-.23-.3-.47-.6-.7-.9-.46-.6-.91-1.2-1.36-1.8-.19-.26-.39-.52-.58-.78-.5-.67-1-1.35-1.49-2.03-.14-.2-.28-.39-.43-.58-.58-.8-1.15-1.61-1.72-2.43-.05-.08-.11-.15-.16-.22-3.61-5.18-7.03-10.56-10.23-16.12-9.4,.92-18.87,2.62-28.39,5.13-1.68,.44-3.35,.91-5.03,1.41,15.11,15.01,32.07,21.82,47.6,24.39l6.34-1.22Z"/><path class="cls-6" d="M196.32,542.89c-1.68,.44-3.35,.91-5.03,1.41h0c1.68-.49,3.35-.96,5.03-1.41Z"/><path class="cls-6" d="M241.37,562.62c-.23-.3-.47-.6-.7-.9,.23,.3,.46,.6,.7,.9Z"/><path class="cls-6" d="M244.67,566.77c.19,.23,.38,.46,.56,.69h0c-.19-.23-.38-.46-.57-.69Z"/><path class="cls-6" d="M243.43,565.24c-.26-.32-.52-.65-.78-.97,.26,.33,.52,.65,.78,.97Z"/><path class="cls-6" d="M220.74,530.57c-.5-.95-1-1.91-1.49-2.87,.49,.96,.99,1.92,1.49,2.87Z"/><path class="cls-6" d="M224.11,536.71c.2,.35,.4,.7,.6,1.05h0c-.2-.35-.41-.69-.6-1.05Z"/><polygon class="cls-6" points="224.71 537.76 224.71 537.76 224.71 537.76 224.71 537.76 224.71 537.76"/><path class="cls-6" d="M219.16,527.52c-.49-.97-.98-1.94-1.46-2.92,.48,.98,.97,1.95,1.46,2.92Z"/><path class="cls-6" d="M222.37,533.6c-.52-.95-1.03-1.9-1.54-2.85,.51,.96,1.02,1.91,1.54,2.85Z"/><polygon class="cls-6" points="198.32 467.42 198.32 467.42 198.32 467.42 198.32 467.42 198.32 467.42"/><path class="cls-6" d="M224.08,536.65c-.55-.96-1.09-1.93-1.62-2.9,.53,.97,1.07,1.94,1.62,2.9Z"/><path class="cls-6" d="M198.32,467.42h0c3.9,19.16,9.96,37.24,17.83,53.95-7.87-16.71-13.93-34.79-17.83-53.95Z"/><path class="cls-6" d="M268.61,539.23c2.08,.35,4.16,.74,6.22,1.17-11.48-25.25-31.06-46.97-58.65-63.52-.42-.25-.84-.52-1.27-.77-.63-.37-1.28-.73-1.92-1.09-.81-.46-1.61-.93-2.43-1.39-.15-.08-.3-.16-.45-.24-2.17-1.19-4.4-2.35-6.66-3.48l65.15,69.33Z"/><path class="cls-6" d="M210.57,473.63c.82,.46,1.62,.93,2.43,1.39-.81-.46-1.61-.93-2.43-1.39Z"/><path class="cls-6" d="M274.83,540.4h0c-2.07-.43-4.14-.82-6.22-1.17h0c2.08,.35,4.16,.74,6.22,1.17Z"/><path class="cls-6" d="M214.92,476.11c.43,.25,.84,.51,1.27,.77-.42-.25-.84-.52-1.27-.77Z"/><path class="cls-6" d="M260.38,538.05h0c-11.72-1.37-23.63-1.47-35.67-.29h0c12.04-1.18,23.95-1.07,35.67,.29Z"/><path class="cls-6" d="M260.38,538.05l-59.98-69.65c-.69-.33-1.38-.66-2.08-.98,3.9,19.16,9.96,37.24,17.83,53.95l.03,.07c.48,1.01,.96,2.01,1.45,3.01,.02,.05,.05,.09,.07,.14,.48,.98,.97,1.95,1.46,2.92,.03,.06,.06,.12,.09,.18,.49,.96,.99,1.92,1.49,2.87,.03,.06,.06,.12,.09,.18,.51,.96,1.02,1.91,1.54,2.85,.03,.05,.06,.1,.08,.15,.53,.97,1.07,1.94,1.62,2.9l.03,.06c.2,.35,.4,.7,.6,1.04,12.03-1.18,23.95-1.08,35.67,.29Z"/><path class="cls-6" d="M200.4,468.4c-.69-.33-1.38-.66-2.08-.98h0c.7,.32,1.39,.65,2.08,.98h0Z"/><path class="cls-6" d="M217.63,524.46c-.49-1-.97-2-1.45-3.01,.48,1.01,.96,2.01,1.45,3.01Z"/><path class="cls-6" d="M210.12,473.39c-2.17-1.19-4.4-2.35-6.66-3.48h0c2.26,1.13,4.49,2.29,6.66,3.48Z"/><path class="cls-6" d="M244.67,566.77c-.41-.51-.83-1.02-1.24-1.53,.41,.51,.82,1.02,1.24,1.53Z"/><path class="cls-6" d="M236.81,556.53c-.58-.8-1.15-1.61-1.72-2.43,.57,.81,1.14,1.62,1.72,2.43Z"/><path class="cls-6" d="M238.73,559.14c-.5-.67-1-1.35-1.49-2.03,.49,.68,.99,1.36,1.49,2.03Z"/><path class="cls-6" d="M242.66,564.27c-.43-.54-.86-1.09-1.29-1.64,.43,.55,.85,1.1,1.29,1.64Z"/><path class="cls-6" d="M240.67,561.72c-.46-.6-.91-1.2-1.36-1.8,.45,.6,.91,1.2,1.36,1.8Z"/><path class="cls-6" d="M224.71,537.76c3.2,5.56,6.61,10.94,10.23,16.12-3.61-5.18-7.02-10.56-10.22-16.12h0Z"/><path class="cls-6" d="M278.76,550.04c-1.18-3.27-2.49-6.48-3.93-9.64-2.07-.43-4.14-.82-6.22-1.17l10.15,10.8Z"/><path class="cls-6" d="M277.79,561.19c0-.38,0-.68,0-.91l-.19-.18s.08-.02,.2-.07c0-.14,0-.24,0-.24l.2,.17c.23-.07,.57-.18,.99-.3l-18.62-21.62c-11.72-1.37-23.63-1.47-35.67-.29,3.2,5.56,6.61,10.94,10.22,16.12,.05,.08,.11,.15,.16,.22,.57,.81,1.14,1.62,1.72,2.43,.14,.2,.28,.39,.43,.58,.49,.68,.99,1.36,1.49,2.03,.19,.26,.39,.52,.58,.78,.45,.6,.91,1.2,1.36,1.8,.23,.3,.46,.6,.7,.9,.43,.55,.85,1.1,1.29,1.64,.26,.33,.52,.65,.78,.97,.41,.51,.82,1.02,1.24,1.53,.19,.23,.38,.46,.57,.69l32.55-6.27Z"/><path class="cls-6" d="M246.71,569.23c.12,.15,.25,.3,.37,.44h0c-.12-.15-.25-.29-.38-.44Z"/><path class="cls-6" d="M245.24,567.46h0c.09,.12,.19,.23,.29,.34-.09-.11-.19-.23-.28-.34Z"/><path class="cls-6" d="M245.52,567.81c-.1-.12-.19-.23-.29-.34l-6.34,1.22c2.78,.46,5.52,.78,8.19,.99-.12-.15-.25-.3-.37-.44-.4-.47-.79-.95-1.19-1.43Z"/><path class="cls-6" d="M277.79,561.19l-32.55,6.27c.09,.11,.19,.23,.28,.34,.39,.48,.79,.95,1.19,1.43,.12,.15,.25,.3,.38,.44,12.31,.97,23.24-.47,30.96-2.1-.21-2.93-.26-5.1-.26-6.39Z"/><path class="cls-6" d="M246.71,569.23c-.4-.47-.79-.95-1.19-1.43,.39,.48,.79,.95,1.19,1.43Z"/><path class="cls-6" d="M283.31,564.68l-.24-.28c.04,.15,.08,.31,.11,.46l.13-.17Z"/><path class="cls-6" d="M287.54,559.38l1.81-1.76c-1.08,.14-2.1,.3-3.04,.46l1.23,1.3Z"/><path class="cls-6" d="M287.54,559.38l2.9,3.08c.51-1.24,1.19-3,1.94-5.2-1.06,.11-2.07,.23-3.02,.36l-1.81,1.76Z"/><path class="cls-6" d="M279,559.67c-.42,.12-.76,.22-.99,.3l-.2-.17s0,.1,0,.24c-.12,.04-.2,.07-.2,.07l.19,.18c0,.22,0,.53,0,.91l2.16-.42-.95-1.1Z"/><path class="cls-6" d="M283.18,564.85h0c-.04-.15-.08-.31-.11-.46h0c.04,.15,.08,.31,.11,.46Z"/><path class="cls-6" d="M279.95,560.77l-2.16,.42c0,1.29,.05,3.46,.26,6.39,1.75-.37,3.33-.75,4.73-1.11l-.49-.43,.89-1.18c-.04-.15-.08-.31-.11-.46l-3.12-3.62Z"/><path class="cls-6" d="M283.18,564.85c.11,.47,.22,.94,.33,1.42,.33-.09,.65-.17,.95-.26l-1.15-1.33-.13,.17Z"/><path class="cls-6" d="M283.18,564.85c.11,.47,.22,.94,.33,1.42h0c-.11-.47-.22-.95-.33-1.42h0Z"/><path class="cls-6" d="M282.78,566.47c.25-.06,.49-.13,.73-.19-.11-.47-.22-.95-.33-1.42l-.89,1.18,.49,.43Z"/><polygon class="cls-4" points="293.07 566.81 293.83 566.08 292.53 564.69 291.69 565.53 293.07 566.81"/><path class="cls-4" d="M289.85,563.84l1.84,1.69,.85-.84-2.1-2.23c-.24,.58-.44,1.04-.59,1.38Z"/><path class="cls-4" d="M288.89,568.31l-2.43-2.88c-.59,.18-1.26,.38-1.99,.58l4.28,4.97,2.55-2.45,1.79-1.72-1.39-1.28-2.8,2.78Z"/><path class="cls-4" d="M289.78,564.33s-.08,.03-.19,.07c-.05,.1-.08,.18-.08,.18l-.11-.11c-.5,.18-1.51,.53-2.95,.97l2.43,2.88,2.8-2.78-1.84-1.69c-.06,.14-.12,.27-.17,.37l.1,.11Z"/><path class="cls-4" d="M182.36,447.45l15.58,18.09c-.12-.63-.24-1.26-.36-1.89l-15.22-16.2Z"/><path class="cls-4" d="M200.4,468.4c1.03,.49,2.05,1,3.06,1.5l-5.88-6.26c.12,.64,.25,1.27,.37,1.91l2.45,2.84Z"/><path class="cls-4" d="M197.58,463.65h0c.12,.63,.24,1.26,.36,1.89l.02,.02c-.12-.64-.25-1.27-.37-1.91Z"/><path class="cls-4" d="M286.31,558.07l-7.55-8.03c1.07,2.94,2.02,5.93,2.88,8.95,1.27-.29,2.83-.62,4.66-.92Z"/><path class="cls-4" d="M281.65,558.99h0c-.86-3.02-1.82-6.01-2.88-8.95h0c1.07,2.94,2.02,5.93,2.88,8.95Z"/><path class="cls-4" d="M203.46,469.9c-1.01-.51-2.03-1.01-3.06-1.5l59.98,69.65c2.76,.32,5.5,.73,8.23,1.19l-65.15-69.33Z"/><path class="cls-4" d="M203.46,469.9h0c-1.01-.51-2.03-1.01-3.06-1.5h0c1.03,.49,2.05,1,3.06,1.5Z"/><path class="cls-4" d="M268.61,539.24h0c-2.73-.46-5.48-.87-8.23-1.19h0c2.76,.32,5.5,.73,8.23,1.19Z"/><path class="cls-4" d="M260.38,538.05l18.62,21.62c.66-.19,1.54-.42,2.65-.68-.86-3.02-1.82-6.01-2.88-8.95l-10.15-10.8c-2.73-.46-5.48-.86-8.23-1.19Z"/><path class="cls-4" d="M282.04,560.37c.36,1.33,.71,2.68,1.03,4.03l.24,.28,1.18-1.57-.36-.42,3.4-3.31-1.23-1.3c-1.83,.31-3.39,.63-4.66,.92,.13,.46,.26,.92,.39,1.38Z"/><path class="cls-4" d="M282.04,560.37c-.13-.46-.26-.92-.39-1.38h0c.13,.46,.26,.92,.39,1.38h0Z"/><path class="cls-4" d="M284.49,563.11l1.86-2.47,3.49,3.21c.15-.35,.35-.81,.59-1.38l-2.9-3.08-3.4,3.31,.36,.42Z"/><path class="cls-4" d="M279.95,560.77l2.09-.4c-.13-.46-.26-.92-.39-1.38-1.11,.26-1.99,.49-2.65,.68l.95,1.1Z"/><path class="cls-4" d="M283.07,564.4h0c-.32-1.35-.67-2.69-1.03-4.03h0c.36,1.33,.71,2.68,1.03,4.03Z"/><path class="cls-4" d="M282.04,560.37l-2.09,.4,3.12,3.62c-.32-1.35-.67-2.69-1.03-4.03Z"/><path class="cls-4" d="M284.49,563.11l-1.18,1.57,1.15,1.33c.74-.2,1.4-.4,1.99-.58l-1.96-2.32Z"/><path class="cls-4" d="M289.41,564.46l.11,.11s.03-.08,.08-.18c.1-.04,.19-.07,.19-.07l-.1-.11c.05-.1,.1-.23,.17-.37l-3.49-3.21-1.86,2.47,1.96,2.32c1.44-.44,2.45-.79,2.95-.97Z"/></g><polygon class="cls-5" points="7.09 2059.45 1927.09 2059.45 1927.09 1119.26 7.09 840.53 7.09 2059.45"/><polygon class="cls-3" points="7.09 3600.45 1927.09 3600.25 1927.09 1742.71 7.09 1929.86 7.09 3600.45"/><rect class="cls-5" x="1.3" y="1987.49" width="50.7" height="25.6" transform="translate(-228.88 16.21) rotate(-6.58)"/><rect class="cls-5" x="79.84" y="1978.44" width="50.7" height="25.6" transform="translate(-227.33 25.14) rotate(-6.58)"/><rect class="cls-5" x="158.37" y="1969.39" width="50.7" height="25.6" transform="translate(-225.78 34.08) rotate(-6.58)"/><rect class="cls-5" x="236.91" y="1960.33" width="50.7" height="25.6" transform="translate(-224.22 43.01) rotate(-6.58)"/><rect class="cls-5" x="315.44" y="1951.28" width="50.7" height="25.6" transform="translate(-222.67 51.94) rotate(-6.58)"/><rect class="cls-5" x="393.98" y="1942.23" width="50.7" height="25.6" transform="translate(-221.12 60.88) rotate(-6.58)"/><rect class="cls-5" x="472.52" y="1933.17" width="50.7" height="25.6" transform="translate(-219.56 69.81) rotate(-6.58)"/><rect class="cls-5" x="551.05" y="1924.12" width="50.7" height="25.6" transform="translate(-218.01 78.75) rotate(-6.58)"/><rect class="cls-5" x="629.59" y="1915.07" width="50.7" height="25.6" transform="translate(-216.46 87.68) rotate(-6.58)"/><rect class="cls-5" x="708.13" y="1906.02" width="50.7" height="25.6" transform="translate(-214.9 96.61) rotate(-6.58)"/><rect class="cls-5" x="786.66" y="1896.96" width="50.7" height="25.6" transform="translate(-213.35 105.55) rotate(-6.58)"/><rect class="cls-5" x="865.2" y="1887.91" width="50.7" height="25.6" transform="translate(-211.8 114.48) rotate(-6.58)"/><rect class="cls-5" x="943.73" y="1878.86" width="50.7" height="25.6" transform="translate(-210.24 123.41) rotate(-6.58)"/><rect class="cls-5" x="1022.27" y="1869.8" width="50.7" height="25.6" transform="translate(-208.69 132.35) rotate(-6.58)"/><rect class="cls-5" x="1100.81" y="1860.75" width="50.7" height="25.6" transform="translate(-207.14 141.28) rotate(-6.58)"/><rect class="cls-5" x="1179.34" y="1851.7" width="50.7" height="25.6" transform="translate(-205.58 150.22) rotate(-6.58)"/><rect class="cls-5" x="1257.88" y="1842.65" width="50.7" height="25.6" transform="translate(-204.03 159.15) rotate(-6.58)"/><rect class="cls-5" x="1336.42" y="1833.59" width="50.7" height="25.6" transform="translate(-202.48 168.08) rotate(-6.58)"/><rect class="cls-5" x="1414.95" y="1824.54" width="50.7" height="25.6" transform="translate(-200.92 177.02) rotate(-6.58)"/><rect class="cls-5" x="1496.42" y="1815.59" width="50.7" height="25.6" transform="translate(-199.36 186.29) rotate(-6.58)"/><rect class="cls-5" x="1574.95" y="1806.54" width="50.7" height="25.6" transform="translate(-197.81 195.22) rotate(-6.58)"/><rect class="cls-5" x="1657.42" y="1796.59" width="50.7" height="25.6" transform="translate(-196.13 204.6) rotate(-6.58)"/><rect class="cls-5" x="1735.95" y="1787.54" width="50.7" height="25.6" transform="translate(-194.57 213.53) rotate(-6.58)"/><rect class="cls-5" x="1811.42" y="1778.59" width="50.7" height="25.6" transform="translate(-193.05 222.12) rotate(-6.58)"/><rect class="cls-5" x="1889.95" y="1769.54" width="50.7" height="25.6" transform="translate(-191.5 231.05) rotate(-6.58)"/></g></svg>