<svg xmlns="http://www.w3.org/2000/svg" viewBox="0 0 33.23 33.24"><defs><style>.cls-1{fill:#fff;}</style></defs><title>Icona IG</title><g id="Livello_2" data-name="Livello 2"><g id="Icone_Social" data-name="Icone Social"><path class="cls-1" d="M16.62,8.09a8.26,8.26,0,0,1,4.26,1.15A8.54,8.54,0,0,1,24,12.35a8.48,8.48,0,0,1,0,8.53A8.64,8.64,0,0,1,20.88,24a8.48,8.48,0,0,1-8.53,0,8.54,8.54,0,0,1-3.11-3.12,8.48,8.48,0,0,1,0-8.53,8.44,8.44,0,0,1,3.11-3.11,8.26,8.26,0,0,1,4.27-1.15m0,14.09a5.57,5.57,0,0,0,5.56-5.56,5.32,5.32,0,0,0-1.63-3.93,5.53,5.53,0,0,0-7.86,0,5.53,5.53,0,0,0,0,7.86,5.32,5.32,0,0,0,3.93,1.63M27.52,7.72a1.89,1.89,0,0,0-.59-1.41,2,2,0,0,0-3.41,1.41,2,2,0,0,0,2,2,1.8,1.8,0,0,0,1.37-.6,2.29,2.29,0,0,0,.63-1.4m5.64,2q.08,2.07.07,6.9c0,3.21,0,5.52-.11,6.93a13.74,13.74,0,0,1-.63,3.68,8.71,8.71,0,0,1-5.26,5.26,13.74,13.74,0,0,1-3.68.63q-2.11.12-6.93.12t-6.94-.12A11.86,11.86,0,0,1,6,32.42a7.93,7.93,0,0,1-3.23-2,8.76,8.76,0,0,1-2-3.22,14.58,14.58,0,0,1-.63-3.68Q0,21.44,0,16.62T.11,9.68A14.5,14.5,0,0,1,.74,6,8.67,8.67,0,0,1,6,.74,14.5,14.5,0,0,1,9.68.11Q11.8,0,16.62,0t6.93.11a14.58,14.58,0,0,1,3.68.63,8.76,8.76,0,0,1,3.22,2,8.54,8.54,0,0,1,2,3.23,14.93,14.93,0,0,1,.67,3.71M29.6,26.41a15.15,15.15,0,0,0,.59-4c0-1.08.08-2.62.08-4.6V15.43c0-2,0-3.56-.08-4.6a14.37,14.37,0,0,0-.59-4,5.37,5.37,0,0,0-3.19-3.2,15.27,15.27,0,0,0-4-.59C21.32,3,19.78,3,17.8,3H15.43c-2,0-3.51,0-4.6.07a16,16,0,0,0-4,.59,5.34,5.34,0,0,0-3.19,3.2,14.67,14.67,0,0,0-.6,4C3,11.92,3,13.45,3,15.43V17.8c0,2,0,3.52.07,4.6a15.49,15.49,0,0,0,.6,4A5.6,5.6,0,0,0,6.83,29.6a15.06,15.06,0,0,0,4,.59c1.09,0,2.62.08,4.6.08H17.8c2,0,3.56,0,4.6-.08a14.46,14.46,0,0,0,4-.59,5.63,5.63,0,0,0,3.19-3.19"/></g></g></svg>