<svg xmlns="http://www.w3.org/2000/svg" viewBox="0 0 376 63.8"><defs><style>.cls-1{fill:#5B5A5A;}</style></defs><g id="Livello_2" data-name="Livello 2"><g id="Logo_Pigna" data-name="Logo Pigna"><path class="cls-1" d="M100.36,60.81c3.54-.33,5.74-1,6.62-2.08s1.31-3.54,1.31-7.39V11.15c0-3.24-.5-5.36-1.49-6.39s-3.12-1.68-6.44-1.94V1.09h24.46q11.81,0,18,4.58a14.26,14.26,0,0,1,6.26,12c0,6.31-2.32,10.9-6.93,13.72s-10.42,4.27-17.37,4.27c-1,0-2.27,0-3.84,0s-2.69-.09-3.44-.1V52.42c0,3.52.52,5.72,1.58,6.62s3.49,1.51,7.21,1.77v1.68h-26ZM131.67,6.27a24.8,24.8,0,0,0-10-1.73c-1.9,0-3.08.19-3.53.59s-.63,1.18-.63,2.48v24.2l3.26.28c.51,0,1,0,1.49,0q6.4,0,10.06-1.81C136.79,28.11,139,24,139,18q0-8.52-7.34-11.68"/><path class="cls-1" d="M152,60.81c3.78-.26,6.22-.83,7.35-1.66S161,56,161,52.42V11.15c0-3.41-.55-5.6-1.67-6.56S155.74,3,152,2.82V1.09h27.47V2.82c-3.78.17-6.23.77-7.35,1.77s-1.67,3.15-1.67,6.56V52.42c0,3.61.55,5.83,1.67,6.73s3.57,1.4,7.35,1.66v1.68H152Z"/><path class="cls-1" d="M226.33,1.5a46.31,46.31,0,0,0,6,1.5,4.12,4.12,0,0,0,2.81-.77A6.15,6.15,0,0,0,236.56,0h2l.72,19.53h-2.12a35.64,35.64,0,0,0-5.88-10.06Q225.82,3.7,217,3.67a21.59,21.59,0,0,0-15.72,6.8q-6.75,6.75-6.75,22.29,0,12.84,6.75,20A21.89,21.89,0,0,0,218,60a29,29,0,0,0,3.93-.31,25.22,25.22,0,0,0,4.3-1,12.88,12.88,0,0,0,4.14-1.87,3.26,3.26,0,0,0,.8-2.36V39.65c0-3.55-.51-5.79-1.53-6.66s-3.21-1.42-6.62-1.64V29.64h23.65v1.71c-2.29.16-3.81.55-4.58,1.15-1.27,1-1.89,3-1.89,6V56.74q0,1.62-8,4.34a47.3,47.3,0,0,1-15.35,2.72q-13.59,0-22.93-7.93-10.29-8.74-10.29-23.47a32.41,32.41,0,0,1,8.2-22.21Q200.81,0,215.71,0a38.32,38.32,0,0,1,10.62,1.5"/><path class="cls-1" d="M249.43,60.81c3.83-.39,6.29-1.26,7.39-2.58s1.63-4.49,1.63-9.38V7.93l-1.27-1.5a9.81,9.81,0,0,0-3.5-2.94,12.45,12.45,0,0,0-4.25-.67V1.09h15.9l35.74,44.68v-31q0-7.65-2.25-10c-1-1-3.21-1.63-6.62-1.94V1.09H314V2.82q-5.3.56-7.06,2.57c-1.19,1.37-1.77,4.47-1.77,9.34V63.57h-1.59L262.52,12.69V48.85c0,5.07.74,8.39,2.22,9.92,1,1,3.13,1.69,6.48,2v1.68H249.43Z"/><path class="cls-1" d="M311.89,62.49V60.81a7.41,7.41,0,0,0,5.36-2.71q1.8-2.31,6.15-12.55L342.74,0h1.82l23.1,52.61c1.55,3.5,2.77,5.67,3.67,6.53A9.05,9.05,0,0,0,376,60.81v1.68H352.4V60.81a22.81,22.81,0,0,0,5.26-.85c.78-.37,1.18-1.23,1.18-2.59a11.06,11.06,0,0,0-.47-2.4,24.64,24.64,0,0,0-1.26-3.63l-3.84-8.92H329c-2.42,6.08-3.86,9.77-4.36,11.14a10.68,10.68,0,0,0-.68,3.18,3.36,3.36,0,0,0,1.9,3.27,15.84,15.84,0,0,0,4.45.8v1.68Zm40.05-23.84L341.2,13.1,330.6,38.65Z"/><path class="cls-1" d="M34.05,49.75a.35.35,0,0,1,0,.12v12c0,.51.14.84.41,1A4.17,4.17,0,0,0,36,63v.28h-5.6V63A3.33,3.33,0,0,0,32,62.7c.25-.18.37-.57.37-1.17V52.34a1.75,1.75,0,0,0-.12-.73.52.52,0,0,0-.51-.25,2.41,2.41,0,0,0-.68.15c-.27.1-.53.2-.76.31v-.28l3.64-1.86H34a.13.13,0,0,1,0,.07"/><path class="cls-1" d="M44.69,54.3a2.8,2.8,0,0,0,.62-1.85,2.37,2.37,0,0,0-.58-1.6A2.24,2.24,0,0,0,43,50.19a2.1,2.1,0,0,0-1.5.58,1.86,1.86,0,0,0-.6,1.4,2.63,2.63,0,0,0,.7,1.73,8.19,8.19,0,0,0,1.84,1.5,6.1,6.1,0,0,0,1.29-1.1m.31,8a2.25,2.25,0,0,0,.59-1.59A2.49,2.49,0,0,0,45,59a19.38,19.38,0,0,0-2.55-2,3.16,3.16,0,0,0-1.24,1.38A4,4,0,0,0,40.79,60a3.14,3.14,0,0,0,.7,2.16,2.52,2.52,0,0,0,3.51.17m-4.91-7.47a3.36,3.36,0,0,1-.74-2.1,2.8,2.8,0,0,1,1.09-2.23,4.23,4.23,0,0,1,2.82-.91,3.66,3.66,0,0,1,2.55.86,2.66,2.66,0,0,1,.94,2,2.85,2.85,0,0,1-1,2.09,8.9,8.9,0,0,1-1.8,1.2A13.46,13.46,0,0,1,46.41,58a3.44,3.44,0,0,1,.73,2.19,3.11,3.11,0,0,1-1.08,2.4,4.14,4.14,0,0,1-2.89,1,4.38,4.38,0,0,1-2.77-.9,2.86,2.86,0,0,1-1.16-2.37,3.34,3.34,0,0,1,.81-2.22,9,9,0,0,1,1.82-1.5,10.71,10.71,0,0,1-1.78-1.68"/><path class="cls-1" d="M51.35,62.16a2.94,2.94,0,0,0,1.53.57,2.37,2.37,0,0,0,2.06-.93,3.45,3.45,0,0,0,.68-2,3.29,3.29,0,0,0-.55-1.87A3.47,3.47,0,0,0,52,56.52h-.24l-.28,0,0-.26A8.42,8.42,0,0,0,53.91,55a2.41,2.41,0,0,0,.91-2,2,2,0,0,0-.71-1.64,2.6,2.6,0,0,0-1.65-.57,2.7,2.7,0,0,0-1.93.81,6.11,6.11,0,0,0-1,1.34l-.31-.06a4.59,4.59,0,0,1,1.48-2.42,3.82,3.82,0,0,1,2.5-.9,3.18,3.18,0,0,1,2.35.83,2.64,2.64,0,0,1,.83,1.93,2.71,2.71,0,0,1-.68,1.77,6.78,6.78,0,0,1-1.2,1,5.34,5.34,0,0,1,1.53,1,3.53,3.53,0,0,1,1.08,2.64A4.51,4.51,0,0,1,55.64,62a5.79,5.79,0,0,1-4.22,1.44,3,3,0,0,1-1.72-.36,1,1,0,0,1-.49-.78.88.88,0,0,1,.17-.5.6.6,0,0,1,.53-.23,2.94,2.94,0,0,1,1.44.56"/><path class="cls-1" d="M65,57.25c.47-.25.75-.46.82-.63a5.49,5.49,0,0,0,.06-.74c0-.43,0-.77,0-1a7.09,7.09,0,0,0-.7-3.35,2.19,2.19,0,0,0-2-1.3,1.84,1.84,0,0,0-1.58.89,4.73,4.73,0,0,0-.6,2.64,6.43,6.43,0,0,0,.56,2.68,2.06,2.06,0,0,0,2,1.23,3,3,0,0,0,1.4-.38m1.69-5.88a6.69,6.69,0,0,1,1.19,3.89,9.11,9.11,0,0,1-.56,3.07,8.79,8.79,0,0,1-1.65,2.78,7.54,7.54,0,0,1-3.2,2.09,13,13,0,0,1-2.73.6l-.1-.4a12.6,12.6,0,0,0,1.72-.51,6.09,6.09,0,0,0,2-1.19A8.47,8.47,0,0,0,65,59.46a8.23,8.23,0,0,0,.79-2.07l-.35.26a4.32,4.32,0,0,1-1.73.76,4.2,4.2,0,0,1-.95.11,3.28,3.28,0,0,1-2.68-1.19,4.34,4.34,0,0,1-1-2.85A5.11,5.11,0,0,1,60.28,51a3.77,3.77,0,0,1,3-1.37,3.85,3.85,0,0,1,3.37,1.74"/><path class="cls-1" d="M49.17.29c0,2.24,2.59,3.16,3.52,5a5.24,5.24,0,0,0,.67.93c1,.15,1.73-.56,2.44-1.26C57.62,2.69,59.86.32,63,.72h15.9a2.72,2.72,0,0,0,1.11.68H90.37a1.38,1.38,0,0,0,.71.83,38.58,38.58,0,0,0,4.59.12,1.63,1.63,0,0,1,.71,1.26,1.15,1.15,0,0,1,1,.55c.21.46-.07,1-.13,1.35.53.4,1,1,.83,1.63a14.42,14.42,0,0,1-2.77,2.2,32,32,0,0,1-23,4.61c7.42-.68,14.6-2,21-5.13a15,15,0,0,0,2.77-2c.06-.06,0-.15,0-.25-.64-.39-1.35.1-2,.31A29.46,29.46,0,0,1,85.35,9c3.11-1.1,6.31-2,9.09-3.86.15-.21.49-.34.4-.64a.62.62,0,0,0-.68-.19,29.4,29.4,0,0,1-9.67,2.27c2.58-.79,5.3-1.32,7.67-2.58l.15-.18c-.4-.43-1.11-.18-1.6-.46a4.85,4.85,0,0,1-1.54-1l-9.43-.12a4.15,4.15,0,0,1-1.45-.77l-15.37,0c-2.93,0-5,2.67-6.44,4.94A5.57,5.57,0,0,1,54.17,8c1.78,3.78,1.66,8.35,2,12.71a22.91,22.91,0,0,0,3.7-.82c4.09-1.33,8.87-3.78,10.54-8.27,2.86-.48,6.12-2.08,7.08-5.15a19,19,0,0,0,.8-3.56c1.23,2.85-.43,5.62-2.46,7.68a10.12,10.12,0,0,1-4.32,2.39c-2.71,5.34-8.35,7.64-13.52,9l-1.7.37c.16,1.81,0,3.77.83,5.31.77.76,2.1.79,2.44,2,.34,1-.31,1.9-.86,2.67a3.07,3.07,0,0,0-2-1.87c-1.75-.46-3.85-.31-5,1.29a4,4,0,0,0-3.94-1,4.15,4.15,0,0,0-2.87,2.79,3.32,3.32,0,0,1-1.48-3.32c.43-1.17,2.13-1,2.16-2.42-.43-2.58-1.39-5.55-.34-8.16a3.51,3.51,0,0,1,3.11-1.66A2.21,2.21,0,0,1,50,19a5.92,5.92,0,0,1,.55,1.63c.34-1.08.65-2.49,2-2.85.59.06,1.36,0,1.61.64v.15a1.8,1.8,0,0,0-1.88.58c-1.21,1.54-1.36,3.5-1.48,5.5-.53-1.84-.84-3.9-2.56-5.1a1.57,1.57,0,0,0-1.57.31c-1.39,1.45-.71,3.86-.31,5.56A19.78,19.78,0,0,1,47.14,28c-.68,1-1.88,1.44-2.59,2.42a1.92,1.92,0,0,0,.19,1.19c1.17-1.38,2.65-2.69,4.56-2.24a7.26,7.26,0,0,1,2.09,1.11c1.48-1.26,3.76-2.08,5.61-1a8.07,8.07,0,0,1,1.33.86.68.68,0,0,0,0-.71c-1-.83-2.65-1.1-3.09-2.58-.3-2.21.19-4.45,0-6.78C55,13.58,54.14,7,48.68,2.6a1.92,1.92,0,0,1-.56-1.33,4.8,4.8,0,0,0-4.06,1.11,1,1,0,0,1-.93-.18c-.24-1.05-1,0-1.6,0a2.41,2.41,0,0,0-2,1.07c-.09.12-.09.34-.15.49,2.55-.19,5.73-.27,6.83,2.33.41,2.49-.61,4.73-.83,7.15a9.31,9.31,0,0,0,0,3.16c-1.29-2.2-1.07-5.31-.46-7.73a4,4,0,0,0-.8-3.44c-1.17-.77-2.71-.61-4.19-.67l-1.63.12a3.36,3.36,0,0,1,1.54-3A8,8,0,0,0,42.89.54,14.91,14.91,0,0,1,49.17.29"/><path class="cls-1" d="M35.89.76c.58.12,1,.73,1.22,1.22a4.9,4.9,0,0,0-2.69-.52H19.68a3.44,3.44,0,0,1-1.54.79l-9.28.1a4.61,4.61,0,0,1-3,1.31c-.19.09,0,.21.06.31a45,45,0,0,0,7.6,2.56A30.28,30.28,0,0,1,3.9,4.27a.72.72,0,0,0-.55.09c-.16.06-.13.28-.07.37a17.37,17.37,0,0,0,5.46,2.8l4,1.41A30.1,30.1,0,0,1,3,6.53a1.11,1.11,0,0,0-1,.06c.12.62.83.82,1.26,1.26,5.21,3.29,11.31,4.48,17.5,5.49,1.59.24,3.25.43,4.9.55A31.48,31.48,0,0,1,.34,7.47a.94.94,0,0,1-.31-1,3.49,3.49,0,0,1,.86-1A1.83,1.83,0,0,1,.71,4.21a1.15,1.15,0,0,1,1-.61,1.43,1.43,0,0,1,.64-1.22l4.38-.06a1.29,1.29,0,0,0,.89-.89c3.47-.18,7,.06,10.43-.1a2.37,2.37,0,0,0,1-.6Z"/><path class="cls-1" d="M36.81,24.52h0Z"/><path class="cls-1" d="M65.33,33.07c.15.09.21.36.45.27a8.48,8.48,0,0,0,.94-3.52c0,1.07-.27,2.39.52,3.16.37,0,.6-.33.79-.59a12,12,0,0,0,1-2.75,1.11,1.11,0,0,0,.49,1.19,2.27,2.27,0,0,0,1.3-.29c-.88.68-2.33,1.46-2.22,2.74.37.72,1.31.63,2,.51l1.06-.27a6.59,6.59,0,0,0-2.12,1.17c-.06.21.17.26.3.32a13,13,0,0,0,2.58-.11,6.21,6.21,0,0,0-2.37.83c.06.24.37.27.55.39-1.34-.33-3.13-.75-4.43-.06a1.52,1.52,0,0,0-.52,1.64c.61,2.6,3.37,4.66,5.83,5.35-.55.59-1.19,1.18-1.79,1.78-1-1.19-2.13-2.8-3.64-3.34a.57.57,0,0,0-.61.36c.18,1.52,1.42,2.59,2.46,3.76a6.52,6.52,0,0,0-2.61-1.88c-.52.71-.24,1.82-.27,2.71l.17,1.65c-.33-1.11-.39-2.39-1.27-3.26-.6.13-1,.81-1.3,1.29a7.13,7.13,0,0,0,.85-2.54,3,3,0,0,0-2,.15c1.13-.6,2.77-1.4,3-2.83-.43-1.53-2.16-1.62-3.34-2.19a3.25,3.25,0,0,0-.73-.17c.52-.63,1.25-1.11,1.15-1.91a3.94,3.94,0,0,0-1.24-1.44c.15-.39.49-.9.33-1.43a3.74,3.74,0,0,0-.91-1.11,2,2,0,0,1,2,.87,1.23,1.23,0,0,1,.18,1c-.12.21-.12.44-.37.59.67.54,1.34,1.2,1.1,2.06a1.86,1.86,0,0,1-.73.84,1.73,1.73,0,0,0,1.58-.15A1,1,0,0,0,64,37a10.59,10.59,0,0,0-2.06-4.27c.54.33,1.15.78,1.82.54.82-.66.21-1.79.09-2.57l-.51-1.4c.21.33.54.75,1,.78.42-.51.15-1.26.12-1.85.33,1.64.27,3.4.94,4.89"/><path class="cls-1" d="M43.41,32.48a2.55,2.55,0,0,0,.46,2.68c-.43.45-1,.86-1.08,1.46a2,2,0,0,0,1.39,1.52,2.45,2.45,0,0,0,0,1.75,1.77,1.77,0,0,0,2,.65,2.34,2.34,0,0,0,1.11,1.79,2.24,2.24,0,0,0,2.12,0,2.75,2.75,0,0,0,2.22,1.08,1.87,1.87,0,0,0,1.45-.72c1,.36,2.52.63,3.48-.08a1.18,1.18,0,0,0,.58-1,2.45,2.45,0,0,0,2-.38A2.63,2.63,0,0,0,60,38.76a2.79,2.79,0,0,1,.71,2.29,2.09,2.09,0,0,1-2.62,1.52,2.8,2.8,0,0,1-1.78,1.66,3.34,3.34,0,0,1-2.89-.51,2.55,2.55,0,0,1-2.13.92,2.51,2.51,0,0,1-2.12-1.34,3.75,3.75,0,0,1-2.5.21,1.57,1.57,0,0,1-1-.92,3,3,0,0,1-.16-1.18,2.76,2.76,0,0,1-1.93-.33,2.53,2.53,0,0,1-.93-1.64c-1,.27-1.63,1.46-2,2.35l-.18.65c-.16-.74,0-1.69-.53-2.25-.4.17-.4.62-.58,1a14.53,14.53,0,0,0-.68,2.41,4.41,4.41,0,0,0-.49-2.21,6.64,6.64,0,0,0-1.91,1.79c.4-.6,1-1.16.92-1.91-.15-.23-.49-.08-.71,0a9.66,9.66,0,0,0-1.94,1.07c.46-.42,1.24-.87,1.33-1.46a5.6,5.6,0,0,0-2.34,0,2,2,0,0,0,1.26-.62c-.12-.81-1.11-.86-1.69-1.19l-.53-.15a15.46,15.46,0,0,0,3.85.59v-.2a14.81,14.81,0,0,0-2.61-2.18,19.24,19.24,0,0,0,5,2.35.27.27,0,0,0,.28-.15,8.77,8.77,0,0,0-2.62-2,18.46,18.46,0,0,0,4.25,1.34l.06-.09a13.76,13.76,0,0,0-2.58-1.93c1.2.44,2.46.8,3.66,1.22a1.82,1.82,0,0,1-.09-1.61,2.07,2.07,0,0,1,1-1,1.81,1.81,0,0,1-.4-1.75,1.63,1.63,0,0,1,1.08-.93"/><path class="cls-1" d="M56.9,32.5a1.74,1.74,0,0,0-1.29.81c-.28.49-.21,1.18-.77,1.52-.94.18-1.62-.73-2.6-.37-1.32.21-.8,1.79-1.78,2.34-1,.39-2.54-.58-3.16.84l-.39.73c.21-.67.49-1.76,1.44-2a2.66,2.66,0,0,0,1.5-.25c.64-.72.56-2,1.69-2.26,1.1-.52,1.93.81,2.91.14.52-.54.64-1.5,1.59-1.5Z"/><path class="cls-1" d="M57.8,35.27c-1.6-.06-.8,2.24-2.3,2.06A2.23,2.23,0,0,0,53.75,37c-1.44.18-.46,2.29-2.11,2.14a3.76,3.76,0,0,0-1.53-.06,3.51,3.51,0,0,0-1,1.27c.21-.51.4-1.36,1.1-1.69.52-.12,1.23.15,1.59-.37.37-.69.56-1.81,1.57-1.87,1-.3,2,1.09,2.6-.23a1.3,1.3,0,0,1,.61-.76,2.89,2.89,0,0,1,1.2-.16"/><path class="cls-1" d="M58.75,38c-1.34-.05-.66,1.76-2,1.57a2,2,0,0,0-1.49-.24c-1.14.24-.36,1.75-1.68,1.67A3.35,3.35,0,0,0,52.23,41a3,3,0,0,0-.78,1,1.83,1.83,0,0,1,1-1.32c.45,0,1,.1,1.25-.22.39-.54.45-1.49,1.41-1.49.81-.27,1.7.84,2.18-.21.16-.62.87-.76,1.5-.68"/><path class="cls-1" d="M23.77,10.25a11.58,11.58,0,0,0,3.63,1.39c3.12,6.23,9.92,8.1,16.1,9.13l0,1.48L40,21.62a8.07,8.07,0,0,0,0,3.32c.12.21.33.06.48,0a10.11,10.11,0,0,0,1.82-1.82C41.74,24,41,24.87,41.05,26a.55.55,0,0,0,.69.21,3.87,3.87,0,0,0,1.3-.82c-1,1.48-2.78,3-2,4.93a2.38,2.38,0,0,0,1,.9L39.87,34.7a2.3,2.3,0,0,0-.55-1.6,9.42,9.42,0,0,0-2.78,1.39,11.11,11.11,0,0,0,2.12-2.27c-.18-.15-.43,0-.64,0l-1,.42c.46-.36,1.12-.54,1.3-1.17a15.79,15.79,0,0,0-4-.91,6,6,0,0,0,0,3.08c-.18-.09-.18-.42-.24-.64a6.21,6.21,0,0,0-.91-2.62c-.24,0-.24.24-.33.36a17.92,17.92,0,0,0-.58,3.65,21.62,21.62,0,0,0-.36-4.46c-.16-.16-.34,0-.45,0a17.19,17.19,0,0,0-1.43,1.24,14.51,14.51,0,0,1,.79-1.26c.06-.25.3-.49.18-.79a5.63,5.63,0,0,0-2.06.72c-.82.39-1.63,1-2.45,1.33a6,6,0,0,0,1.09-1.9c-.33-.42-.91-.06-1.36,0-.82.27-1.63.57-2.42.91.48-.49,1.21-.82,1.63-1.45A2.47,2.47,0,0,0,24,28.35l-2-.12a7.6,7.6,0,0,0,2.64-.66c-.22-.76-1-1.27-1.52-1.9,1.18.66,2.21,1.71,3.54,1.84.19-.7-.42-1.27-.72-1.84l-.64-.82a15.42,15.42,0,0,0,3.6,2.77c.12.07.21-.05.21-.14-.24-1.33-1.21-2.36-1.87-3.51h.15a14,14,0,0,0,3.63,2.72.29.29,0,0,0,.24-.21,2.89,2.89,0,0,0-.78-1.36,6.72,6.72,0,0,0,1.54,1.09c.39-.34.33-.88.33-1.42a5.87,5.87,0,0,0,1,2.45c.36,0,.43-.37.58-.58a15,15,0,0,0,.87-2.81,11.86,11.86,0,0,0,.58,4.08l.3.24,2,.37c.15-.07.39-.13.45-.34-.15-.9-1.15-1.18-1.81-1.6.57.12,1.3.45,1.81,0-.18-.76-.94-1.33-1.51-1.93.42.24.88.84,1.36.45A14.5,14.5,0,0,0,37.11,21a13.88,13.88,0,0,0,1.81,3.69c.25,0,.34-.25.46-.37A16.35,16.35,0,0,0,40,21.64c-4.94-1.23-10.41-3.32-13.41-8.31l-.09-.26a10.14,10.14,0,0,1-6.9-6.9,4.88,4.88,0,0,1,.3-3.08c.37,2.75,1,5.74,3.88,7.16M39.38,30.14a9.4,9.4,0,0,0-2.66-1.21,2.07,2.07,0,0,0-1.64.45,1.62,1.62,0,0,0-.69,1.15,26.61,26.61,0,0,0,4.66-.15c.09-.06.33-.06.33-.24"/></g></g></svg>