<svg xmlns="http://www.w3.org/2000/svg" viewBox="0 0 155.53 120.63"><defs><style>.cls-1{fill:#312318;}</style></defs><g id="Livello_2" data-name="Livello 2"><g id="Livello_1-2" data-name="Livello 1"><path class="cls-1" d="M63.45,89.29a1.13,1.13,0,0,1-1.15-1.22c0-1.18,1-2.64,2.07-2.64a1.19,1.19,0,0,1,1.36,1.21,2.63,2.63,0,0,1-2.28,2.65m-5.57,6.49h1A11.44,11.44,0,0,0,63.41,95L59.7,106.63a9.3,9.3,0,0,0-.57,2.22.86.86,0,0,0,.85.93c1.9,0,3.54-2.43,4-3.07l.42.28c-.46.79-2.57,3.64-5.35,3.64a2.29,2.29,0,0,1-2.46-2.39A8.4,8.4,0,0,1,57,106.1l3-9.75H57.77Z"/><path class="cls-1" d="M149.12,102.56v4.74c0,.72-1.19,2.75-3.91,2.75-2.32,0-2.65-1.52-2.65-3.55,0-3.87,3.3-3.94,5.94-3.94Zm3-3.52c0-2.78-3.26-4.2-6-4.2-3.62,0-5.58,2-5.58,3.88,0,1.23.58,2,1.6,2a1.57,1.57,0,0,0,1.66-1.52c0-1.63-1.19-1.24-1.19-2.1,0-1.31,2.46-1.71,3.51-1.71,1.38,0,3,.4,3,2.1V102h-.69c-3.73,0-9.12,1-9.12,5.07,0,2.46,1.7,3.87,4.52,3.87,2.39,0,4-.61,5.25-2.24h.08a3,3,0,0,0,3.18,2.24,3.45,3.45,0,0,0,3.19-2l-.4-.29c-.54.76-1,1.45-1.88,1.45s-1.09-.91-1.09-1.6Zm-30.57,10.87h-2.86v.58h8.66v-.58h-2.76V99.7c.66-1.23,2.21-4.28,5.25-4.28,1.16,0,2.14.65,2.14,2.65v11.84h-2.86v.58h8.76v-.58h-2.86v-11c0-2.14-1.08-4.1-5-4.1-2.64,0-4.45,2-5.39,3.7h-.08v-3.7c-.65.8-1.3.8-3,.8h-2.86v.58h2.86Zm-16.07-9.64c0-1.91,0-4.85,3-4.85s3,2,3,4.85c0,2.58,0,4.86-3,4.86s-3-2.54-3-4.86M112,111.65c1.88,0,3.4.54,3.4,2.42,0,3.62-3.62,6-7.32,6-2.82,0-5.43-1.2-5.43-4.24a3.77,3.77,0,0,1,3.3-4.16Zm-8.22-2.83a1.5,1.5,0,0,1-1.6-1.48c0-1.7,1.6-2.25,3.55-2.28a5.46,5.46,0,0,0,2.72.65c2.82,0,6-2.32,6-5.33a5.65,5.65,0,0,0-1.41-3.62,3.08,3.08,0,0,1,2.06-1.34,1.39,1.39,0,0,0-.4,1.2,1.16,1.16,0,0,0,1.16,1.12,1.29,1.29,0,0,0,1.45-1.27,1.64,1.64,0,0,0-1.85-1.63,3.92,3.92,0,0,0-2.79,1.56,5.75,5.75,0,0,0-4.23-1.56,5.83,5.83,0,0,0-6,5.65c0,2,1.08,3.08,2.71,4.13v.07c-2.32,0-3.55,1-3.55,3.59,0,2,1,3.37,2.94,3.37v.07c-1.56.69-3.63,2.21-3.63,4.24,0,3.47,3.66,4.67,7,4.67,4.38,0,8.37-2.72,8.37-7.64,0-3.34-2-4.17-4-4.17ZM93.52,88.33a1.85,1.85,0,1,0,1.84-1.85,1.85,1.85,0,0,0-1.84,1.85m.32,21.58H91v.58h8.83v-.58h-2.9V94.84a4.17,4.17,0,0,1-3,.8H91v.58h2.89ZM76.7,85.57h2.21c4.31,0,6.48,2.07,6.48,6.81,0,4.89-3.51,6.16-5.9,6.16a5.35,5.35,0,0,1-2.79-.76ZM73,109.91H69.42v.58h11v-.58H76.7V98.5a9,9,0,0,0,3.41.62c4.38,0,9.19-2,9.19-7.07S85.14,85,79.74,85H69.42v.58H73Z"/><path class="cls-1" d="M53.06,108.1c-.47.61-1.56,2-2.43,2a.84.84,0,0,1-.91-.9,4.72,4.72,0,0,1,.26-1.49l7.1-23.79a7.91,7.91,0,0,1-4,.91H51.43l-.15.58h2.46L50.3,97.78h-.07a4.1,4.1,0,0,0-4.09-2.94c-3.69,0-9.27,4.42-9.27,9.89,0,3.87,2.24,6.19,5.07,6.19s4.56-2.32,5.32-3.33l.08.07c-.22,1.41.39,3.26,2.06,3.26a4.61,4.61,0,0,0,3.73-2.06l1.23-1.7-.44-.26Zm-6.23-.55a6.2,6.2,0,0,1-4.64,2.79c-1.66,0-2.46-1.23-2.5-3-.07-3.83,2.32-12,7.1-12,1.88,0,3.08,2.28,3.08,3.12,0,1.08-2.57,8.36-3,9"/><path class="cls-1" d="M0,0V110.53H26.35V75.73H41.26C32.44,69.58,24.7,59.45,24.7,47.67c0-10.06,6.22-20.76,17.76-20.76A13.52,13.52,0,0,1,55.88,40.5,10.52,10.52,0,0,1,45.62,51.26C39.84,51.26,35.54,48,34.68,43l-.36-2.13-1.26,1.76c-1.46,2-2.17,5-2.17,9,0,10.54,7.33,19.37,15.16,24,23.19-.65,39-16,39-37.84S68.55,0,44.53,0Z"/></g></g></svg>