<svg xmlns="http://www.w3.org/2000/svg" viewBox="0 0 31.85 31.72"><defs><style>.cls-1{fill:#5b5a5a;}</style></defs><g id="Livello_2" data-name="Livello 2"><g id="Livello_1-2" data-name="Livello 1"><path class="cls-1" d="M7.89,23.47h0Z"/><path class="cls-1" d="M31.85,6.73A6.61,6.61,0,0,0,26.57.16,7,7,0,0,0,25.06,0H6.8A6.64,6.64,0,0,0,.35,4.55C.19,5,.12,5.54,0,6V25.68c.12.5.19,1,.35,1.48A6.58,6.58,0,0,0,6.71,31.7q9.22,0,18.44,0a6.53,6.53,0,0,0,6.34-4.55A6.93,6.93,0,0,0,31.83,25Q31.88,15.86,31.85,6.73ZM29.42,24.92a4.21,4.21,0,0,1-4.36,4.35H6.81A4.22,4.22,0,0,1,3,27.16,4.08,4.08,0,0,1,2.43,25c0-6.12,0-12.23,0-18.35A4.17,4.17,0,0,1,6.71,2.44q9.21,0,18.41,0a4.21,4.21,0,0,1,4.3,4.35Z"/><path class="cls-1" d="M6.81,29.28h0Z"/><path class="cls-1" d="M24,8.25H7.87A1.21,1.21,0,0,0,6.53,9.6V22.1a2,2,0,0,0,0,.43,1.25,1.25,0,0,0,1.33.94h16a1.24,1.24,0,0,0,1.41-1.41V9.63A1.22,1.22,0,0,0,24,8.25ZM21.75,10.7l-.28.18-5.3,3a.36.36,0,0,1-.42,0c-1.78-1-3.57-2.06-5.35-3.09l-.15-.11ZM22.88,21H9v-8.2l.4.22c1.91,1.09,3.82,2.18,5.71,3.29a1.55,1.55,0,0,0,1.69,0c1.92-1.11,3.85-2.19,5.79-3.27.09-.06.19-.1.32-.17Z"/></g></g></svg>