<svg xmlns="http://www.w3.org/2000/svg" viewBox="0 0 31.85 31.85"><defs><style>.cls-1{fill:#5b5a5a;}</style></defs><g id="Livello_2" data-name="Livello 2"><g id="Livello_1-2" data-name="Livello 1"><path class="cls-1" d="M31.54,9.09,22.23.26A.81.81,0,0,0,21.6,0H6.44A4.06,4.06,0,0,0,2.09,4.15v9.07H1.63A1.58,1.58,0,0,0,0,14.72c0,.94,0,1.87,0,2.8v6.81a1.63,1.63,0,0,0,1.34,1.74,5.3,5.3,0,0,0,.75.06c0,.35,0,.71,0,1.07a8.57,8.57,0,0,0,.25,2,3.88,3.88,0,0,0,3.14,2.61l.21.07H28.23a5,5,0,0,0,2-.83,3.83,3.83,0,0,0,1.61-2.93c0-.19,0-.37,0-.55V9.82A.91.91,0,0,0,31.54,9.09ZM4.42,16.56A9.19,9.19,0,0,1,8,16.64a1.88,1.88,0,0,1,1.41,1.83,2,2,0,0,1-1.24,2A4.84,4.84,0,0,1,6,20.8v2.37H4.42Zm23,12.87H6.57c-1.32,0-1.94-.59-1.94-1.85V26.11h.5c6.4,0,12.79,0,19.18,0a1.8,1.8,0,0,0,2-1.9c0-3,0-6.09,0-9.14,0-1.23-.66-1.86-1.95-1.86H4.63v-9a1.63,1.63,0,0,1,1.84-1.8H20.65l.36,0v.5c0,1.67,0,3.33,0,5a2.66,2.66,0,0,0,2.53,2.4c1.72.05,3.44,0,5.16,0h.49v.43c0,7.42,0,9.4.06,16.82C29.3,28.84,28.69,29.43,27.39,29.43ZM10.51,23.2V16.57a10.27,10.27,0,0,1,3.83.05,2.91,2.91,0,0,1,2.38,3.16c-.07,2-1.17,3.18-3.36,3.4A27,27,0,0,1,10.51,23.2Zm11.38-3.95v1.23h-2.5v2.7H17.81V16.51h4.26v1.2H19.41v1.54Z"/><path class="cls-1" d="M14.62,21.23a2.78,2.78,0,0,0,0-2.84,2.47,2.47,0,0,0-2.54-.72V22A2.44,2.44,0,0,0,14.62,21.23Z"/><path class="cls-1" d="M7.21,19.52a1,1,0,0,0,.67-1.05A.91.91,0,0,0,7,17.62a3.3,3.3,0,0,0-.83,0,.31.31,0,0,0-.21.22c0,.59,0,1.18,0,1.86A7.65,7.65,0,0,0,7.21,19.52Z"/></g></g></svg>