<svg xmlns="http://www.w3.org/2000/svg" viewBox="0 0 246.11 133.15"><defs><style>.cls-1{fill:#a23120;}.cls-2{fill:#fff;}</style></defs><g id="Livello_2" data-name="Livello 2"><g id="Livello_1-2" data-name="Livello 1"><polygon class="cls-1" points="246.11 0 0 0 0 95.46 83.46 95.46 121.15 133.15 158.84 95.46 246.11 95.46 246.11 0"/><path class="cls-2" d="M73.36,60.88c2-.19,3.27-.59,3.78-1.19s.74-2,.74-4.21V32.58c0-1.84-.28-3-.85-3.64s-1.78-1-3.67-1.1v-1H87.3q6.72,0,10.28,2.61a8.11,8.11,0,0,1,3.57,6.86c0,3.6-1.32,6.22-4,7.83a18.62,18.62,0,0,1-9.9,2.43l-2.19,0c-.88,0-1.53,0-2,0v9.6c0,2,.3,3.26.9,3.77s2,.86,4.11,1v1H73.36ZM91.2,29.8a14.11,14.11,0,0,0-5.68-1,3.58,3.58,0,0,0-2,.34q-.36.3-.36,1.41V44.35l1.86.16c.29,0,.57,0,.85,0a13.24,13.24,0,0,0,5.73-1c2.53-1.26,3.8-3.6,3.8-7A6.63,6.63,0,0,0,91.2,29.8"/><path class="cls-2" d="M102.77,60.88c2.15-.15,3.54-.47,4.18-1s1-1.78,1-3.83V32.58c0-1.94-.31-3.19-1-3.74s-2-.91-4.18-1v-1h15.65v1c-2.15.09-3.55.43-4.19,1s-1,1.8-1,3.74V56.1c0,2,.31,3.32,1,3.83s2,.8,4.19,1v1H102.77Z"/><path class="cls-2" d="M145.14,27.08a27.26,27.26,0,0,0,3.41.86,2.35,2.35,0,0,0,1.6-.44,3.54,3.54,0,0,0,.83-1.27h1.15l.41,11.13h-1.2A20.26,20.26,0,0,0,148,31.63a10.72,10.72,0,0,0-8.13-3.31,12.34,12.34,0,0,0-9,3.87Q127,36,127,44.9q0,7.32,3.85,11.41a12.48,12.48,0,0,0,9.5,4.1,16.26,16.26,0,0,0,2.24-.17,14.71,14.71,0,0,0,2.46-.57,7.16,7.16,0,0,0,2.35-1.06,1.87,1.87,0,0,0,.46-1.35V48.82c0-2-.29-3.29-.87-3.79s-1.83-.81-3.77-.94v-1h13.47v1a5.18,5.18,0,0,0-2.61.66c-.72.54-1.08,1.68-1.08,3.4V58.56q0,.93-4.57,2.47a26.9,26.9,0,0,1-8.75,1.55,19.46,19.46,0,0,1-13.07-4.52q-5.85-5-5.86-13.37A18.45,18.45,0,0,1,125.46,32q5.14-5.8,13.64-5.81a21.76,21.76,0,0,1,6,.85"/><path class="cls-2" d="M158.31,60.88c2.18-.22,3.58-.72,4.21-1.47s.93-2.56.93-5.35V30.75l-.73-.86a5.51,5.51,0,0,0-2-1.67,6.72,6.72,0,0,0-2.42-.38v-1h9.06l20.37,25.46V34.62q0-4.36-1.29-5.68c-.57-.56-1.82-.93-3.77-1.1v-1H195.1v1c-2,.2-3.35.69-4,1.46s-1,2.55-1,5.32V62.46h-.91l-23.39-29v20.6c0,2.9.42,4.78,1.26,5.66.55.57,1.79,1,3.7,1.16v1H158.31Z"/><path class="cls-2" d="M193.9,61.84v-1A4.29,4.29,0,0,0,197,59.34a43,43,0,0,0,3.5-7.16l11-25.94h1l13.16,30a13.74,13.74,0,0,0,2.09,3.72,5.08,5.08,0,0,0,2.67,1v1H217v-1a13.32,13.32,0,0,0,3-.48c.45-.22.67-.71.67-1.48a6,6,0,0,0-.26-1.37,15.11,15.11,0,0,0-.72-2.07l-2.19-5.08H203.64c-1.38,3.46-2.2,5.57-2.48,6.35a6,6,0,0,0-.39,1.81,1.93,1.93,0,0,0,1.08,1.87,9.36,9.36,0,0,0,2.54.45v1Zm22.83-13.58L210.6,33.69l-6,14.57Z"/><path class="cls-2" d="M35.58,54.58v6.88c0,.29.08.47.23.55a2.26,2.26,0,0,0,.87.14v.16H33.49v-.17a1.88,1.88,0,0,0,.89-.18.82.82,0,0,0,.21-.67V56.05a.89.89,0,0,0-.07-.41c0-.1-.14-.14-.29-.14a1.29,1.29,0,0,0-.38.08l-.44.17V55.6l2.07-1.06h.07l0,0"/><path class="cls-2" d="M41.64,57.17A1.59,1.59,0,0,0,42,56.12a1.32,1.32,0,0,0-.33-.91,1.27,1.27,0,0,0-1-.38,1.17,1.17,0,0,0-.86.33,1.05,1.05,0,0,0-.34.8,1.44,1.44,0,0,0,.4,1,4.63,4.63,0,0,0,1,.86,3.76,3.76,0,0,0,.74-.63m.18,4.58a1.28,1.28,0,0,0,.33-.9,1.45,1.45,0,0,0-.35-1,10.8,10.8,0,0,0-1.45-1.15,1.69,1.69,0,0,0-.71.79,2.19,2.19,0,0,0-.22.94,1.8,1.8,0,0,0,.4,1.23,1.28,1.28,0,0,0,1,.45,1.31,1.31,0,0,0,1-.36M39,57.5a2,2,0,0,1-.41-1.2A1.58,1.58,0,0,1,39.22,55a2.4,2.4,0,0,1,1.61-.52,2,2,0,0,1,1.44.49,1.51,1.51,0,0,1,.54,1.14,1.6,1.6,0,0,1-.55,1.19,5.16,5.16,0,0,1-1,.69,7.45,7.45,0,0,1,1.38,1.25A2,2,0,0,1,43,60.51a1.76,1.76,0,0,1-.61,1.37,2.37,2.37,0,0,1-1.65.56,2.46,2.46,0,0,1-1.58-.52,1.62,1.62,0,0,1-.66-1.35A1.94,1.94,0,0,1,39,59.31a5.51,5.51,0,0,1,1-.86,7.84,7.84,0,0,1-1-1"/><path class="cls-2" d="M45.44,61.65a1.7,1.7,0,0,0,.86.33,1.36,1.36,0,0,0,1.18-.54,1.91,1.91,0,0,0,.39-1.16,1.85,1.85,0,0,0-.32-1.07,2,2,0,0,0-1.77-.77h-.3V58.3a4.59,4.59,0,0,0,1.42-.75,1.35,1.35,0,0,0,.52-1.12,1.14,1.14,0,0,0-.41-.94,1.48,1.48,0,0,0-.93-.32,1.5,1.5,0,0,0-1.1.46,3.13,3.13,0,0,0-.56.77l-.18,0A2.6,2.6,0,0,1,45.08,55a2.15,2.15,0,0,1,1.42-.51,1.82,1.82,0,0,1,1.34.47,1.51,1.51,0,0,1,.47,1.1,1.53,1.53,0,0,1-.39,1,3.29,3.29,0,0,1-.68.58,3,3,0,0,1,.87.55,2,2,0,0,1,.62,1.5,2.59,2.59,0,0,1-.85,1.9,3.35,3.35,0,0,1-2.41.82,1.66,1.66,0,0,1-1-.21.57.57,0,0,1-.28-.44.52.52,0,0,1,.09-.29.33.33,0,0,1,.3-.13,1.79,1.79,0,0,1,.83.32"/><path class="cls-2" d="M53.2,58.85c.27-.14.43-.26.47-.36a3.63,3.63,0,0,0,0-.42c0-.24,0-.44,0-.59a4.08,4.08,0,0,0-.39-1.91,1.28,1.28,0,0,0-1.17-.74,1,1,0,0,0-.9.51,2.73,2.73,0,0,0-.34,1.5,3.71,3.71,0,0,0,.32,1.53,1.16,1.16,0,0,0,1.16.7,1.67,1.67,0,0,0,.8-.22m1-3.35a3.81,3.81,0,0,1,.68,2.22,5,5,0,0,1-.32,1.75,4.77,4.77,0,0,1-.94,1.58,4.31,4.31,0,0,1-1.82,1.19,6.76,6.76,0,0,1-1.56.34l-.05-.22a7.44,7.44,0,0,0,1-.29,3.61,3.61,0,0,0,1.13-.68,4.94,4.94,0,0,0,1-1.28,5,5,0,0,0,.45-1.18l-.2.15a2.47,2.47,0,0,1-1,.43,2.11,2.11,0,0,1-.54.07,1.87,1.87,0,0,1-1.52-.68,2.47,2.47,0,0,1-.57-1.63,2.91,2.91,0,0,1,.67-2,2.32,2.32,0,0,1,3.64.21"/><path class="cls-2" d="M44.19,26.39c0,1.28,1.48,1.8,2,2.87a3.63,3.63,0,0,0,.39.53c.56.09,1-.32,1.39-.72,1-1.31,2.31-2.66,4.13-2.43h9.06a1.62,1.62,0,0,0,.63.39h5.88a.77.77,0,0,0,.4.47,22.62,22.62,0,0,0,2.62.07.93.93,0,0,1,.4.71.68.68,0,0,1,.57.32c.12.26,0,.54-.07.77.29.23.57.54.47.92a8,8,0,0,1-1.58,1.26A18.31,18.31,0,0,1,57.4,34.18a33.74,33.74,0,0,0,12-2.92,9.29,9.29,0,0,0,1.58-1.12s0-.09,0-.14c-.36-.23-.77.05-1.12.17a16.66,16.66,0,0,1-5,1.17A23,23,0,0,0,70,29.14c.09-.12.28-.19.22-.37a.33.33,0,0,0-.38-.1A16.87,16.87,0,0,1,64.32,30a24.14,24.14,0,0,0,4.37-1.47l.09-.1c-.23-.25-.64-.11-.92-.26a3,3,0,0,1-.87-.56l-5.38-.07a2.18,2.18,0,0,1-.82-.44l-8.76,0c-1.67,0-2.87,1.52-3.68,2.81a3.14,3.14,0,0,1-1.31.88c1,2.15,1,4.75,1.12,7.24a14.24,14.24,0,0,0,2.11-.47c2.33-.76,5.06-2.16,6-4.71,1.64-.28,3.5-1.19,4-2.94a11.3,11.3,0,0,0,.46-2c.7,1.63-.25,3.2-1.41,4.38a5.73,5.73,0,0,1-2.45,1.36c-1.55,3-4.76,4.35-7.71,5.11l-1,.21a7.67,7.67,0,0,0,.48,3c.44.44,1.19.46,1.39,1.14a1.71,1.71,0,0,1-.5,1.52,1.75,1.75,0,0,0-1.1-1.06,2.57,2.57,0,0,0-2.85.73,2.31,2.31,0,0,0-2.25-.56,2.37,2.37,0,0,0-1.63,1.59,1.86,1.86,0,0,1-.84-1.89c.24-.67,1.21-.59,1.23-1.38-.25-1.47-.79-3.16-.2-4.65a2,2,0,0,1,1.78-1,1.29,1.29,0,0,1,.95.6A3.33,3.33,0,0,1,45,38c.19-.61.37-1.41,1.12-1.62.34,0,.78,0,.92.37v.08a1,1,0,0,0-1.07.33,5.42,5.42,0,0,0-.85,3.14c-.29-1-.47-2.23-1.45-2.91a.91.91,0,0,0-.9.18c-.79.82-.4,2.2-.17,3.16A12.22,12.22,0,0,1,43,42.19c-.38.57-1.07.82-1.47,1.38a1.13,1.13,0,0,0,.11.68A2.68,2.68,0,0,1,44.26,43a4.06,4.06,0,0,1,1.2.63A2.91,2.91,0,0,1,48.65,43a4.64,4.64,0,0,1,.76.49.38.38,0,0,0,0-.4c-.6-.48-1.51-.63-1.76-1.47-.18-1.26.11-2.54,0-3.87-.16-3.79-.65-7.57-3.76-10A1.11,1.11,0,0,1,43.6,27a2.78,2.78,0,0,0-2.32.63.55.55,0,0,1-.53-.1c-.14-.6-.59,0-.91,0a1.4,1.4,0,0,0-1.16.61c0,.07,0,.2-.09.28,1.46-.1,3.27-.15,3.9,1.33.23,1.42-.35,2.69-.47,4.08a5,5,0,0,0,0,1.8,6.15,6.15,0,0,1-.27-4.41,2.31,2.31,0,0,0-.45-2,4.6,4.6,0,0,0-2.39-.38l-.93.07a1.9,1.9,0,0,1,.88-1.7,4.27,4.27,0,0,0,1.75-.65,8.8,8.8,0,0,1,3.58-.14"/><path class="cls-2" d="M36.62,26.66c.33.07.56.42.7.69a2.9,2.9,0,0,0-1.54-.29H27.39a2,2,0,0,1-.88.45l-5.29,0a2.56,2.56,0,0,1-1.71.75c-.11.06,0,.13,0,.18A26.56,26.56,0,0,0,23.87,30a17.12,17.12,0,0,1-5.48-1.29.43.43,0,0,0-.31.05c-.09,0-.07.16,0,.21a9.89,9.89,0,0,0,3.11,1.6l2.27.8A17.07,17.07,0,0,1,17.87,30a.65.65,0,0,0-.58,0c.07.35.47.47.72.72,3,1.88,6.44,2.56,10,3.13.91.14,1.85.24,2.79.31a17.92,17.92,0,0,1-14.4-3.65.55.55,0,0,1-.18-.58,2.06,2.06,0,0,1,.49-.59,1,1,0,0,1-.1-.69.64.64,0,0,1,.59-.35.82.82,0,0,1,.36-.7l2.5,0a.75.75,0,0,0,.51-.51c2-.1,4,0,5.94-.05a1.35,1.35,0,0,0,.56-.35Z"/><path class="cls-2" d="M37.15,40.2h0Z"/><path class="cls-2" d="M53.4,45.07c.09.06.12.21.26.16a4.84,4.84,0,0,0,.53-2c0,.61-.15,1.36.3,1.8.21,0,.34-.18.45-.34a7.05,7.05,0,0,0,.55-1.56.64.64,0,0,0,.28.68,1.27,1.27,0,0,0,.74-.17c-.5.39-1.33.83-1.26,1.56.21.41.74.36,1.14.29l.61-.15a3.76,3.76,0,0,0-1.21.66c0,.12.1.16.17.19a6.56,6.56,0,0,0,1.47-.07,3.63,3.63,0,0,0-1.35.48c0,.13.21.15.31.22a3.76,3.76,0,0,0-2.52,0,.88.88,0,0,0-.3.94,4.76,4.76,0,0,0,3.32,3c-.31.33-.67.68-1,1a5.64,5.64,0,0,0-2.07-1.91.33.33,0,0,0-.35.21,4.33,4.33,0,0,0,1.4,2.14,3.6,3.6,0,0,0-1.48-1.07c-.3.4-.14,1-.16,1.54l.1.94a3.84,3.84,0,0,0-.73-1.85c-.34.07-.55.46-.74.73a4,4,0,0,0,.49-1.45,1.66,1.66,0,0,0-1.16.09c.64-.34,1.57-.8,1.71-1.62-.24-.87-1.23-.92-1.9-1.24a1.84,1.84,0,0,0-.42-.1c.3-.36.71-.63.66-1.09a2.21,2.21,0,0,0-.71-.82,1.23,1.23,0,0,0,.19-.81,1.93,1.93,0,0,0-.52-.63,1.11,1.11,0,0,1,1.14.49.66.66,0,0,1,.11.58c-.07.12-.07.25-.21.34.38.3.76.68.62,1.17a1,1,0,0,1-.41.48,1,1,0,0,0,.9-.09.56.56,0,0,0,.29-.53,6.11,6.11,0,0,0-1.18-2.43c.31.19.66.45,1,.31.47-.38.12-1,.05-1.46l-.29-.8a.86.86,0,0,0,.56.44c.24-.29.08-.72.06-1.05a13.29,13.29,0,0,0,.54,2.78"/><path class="cls-2" d="M40.91,44.74a1.46,1.46,0,0,0,.26,1.53c-.24.25-.56.49-.61.83a1.12,1.12,0,0,0,.79.86,1.38,1.38,0,0,0,0,1,1,1,0,0,0,1.15.37,1.34,1.34,0,0,0,.64,1,1.29,1.29,0,0,0,1.21,0,1.59,1.59,0,0,0,1.26.61,1.05,1.05,0,0,0,.83-.41,2.22,2.22,0,0,0,2-.05.66.66,0,0,0,.33-.56,1.36,1.36,0,0,0,1.13-.22,1.49,1.49,0,0,0,.47-1.39,1.62,1.62,0,0,1,.4,1.31,1.28,1.28,0,0,1-.71.83,1.22,1.22,0,0,1-.78,0,1.58,1.58,0,0,1-1,1,1.89,1.89,0,0,1-1.65-.29,1.47,1.47,0,0,1-2.42-.23,2.15,2.15,0,0,1-1.42.11.91.91,0,0,1-.58-.52,1.79,1.79,0,0,1-.09-.67,1.63,1.63,0,0,1-1.1-.19,1.5,1.5,0,0,1-.53-.94c-.59.16-.93.83-1.12,1.34l-.1.37c-.09-.42,0-1-.3-1.28-.23.1-.23.35-.34.54A8.94,8.94,0,0,0,38.21,51a2.48,2.48,0,0,0-.28-1.25,3.88,3.88,0,0,0-1.09,1c.23-.33.56-.66.53-1.08-.09-.14-.28,0-.41,0a5.62,5.62,0,0,0-1.1.61c.26-.24.7-.49.75-.83a3.31,3.31,0,0,0-1.33,0,1.14,1.14,0,0,0,.72-.35c-.07-.46-.63-.49-1-.68l-.3-.09a8.08,8.08,0,0,0,2.2.34v-.11a8.6,8.6,0,0,0-1.49-1.24,11.37,11.37,0,0,0,2.84,1.34.18.18,0,0,0,.16-.09A5.33,5.33,0,0,0,37,47.43a10.21,10.21,0,0,0,2.42.77l0-.05a7.31,7.31,0,0,0-1.47-1.1c.68.25,1.4.45,2.09.69a1,1,0,0,1-.06-.91,1.17,1.17,0,0,1,.56-.56,1,1,0,0,1-.22-1,.89.89,0,0,1,.61-.52"/><path class="cls-2" d="M48.6,44.75a1,1,0,0,0-.74.46c-.16.28-.12.67-.44.86-.53.11-.92-.41-1.48-.2-.75.12-.45,1-1,1.33s-1.45-.33-1.8.48l-.23.41c.12-.38.28-1,.82-1.14.3,0,.63,0,.86-.14.36-.41.32-1.12,1-1.29s1.1.47,1.66.09c.3-.31.37-.86.91-.86Z"/><path class="cls-2" d="M49.11,46.33c-.91,0-.46,1.27-1.31,1.17a1.25,1.25,0,0,0-1-.19c-.82.1-.26,1.31-1.2,1.22a2.13,2.13,0,0,0-.87,0,1.93,1.93,0,0,0-.56.72c.12-.29.23-.77.63-1s.69.08.9-.21S46,47,46.59,47s1.15.62,1.49-.13a.71.71,0,0,1,.35-.43,1.63,1.63,0,0,1,.68-.09"/><path class="cls-2" d="M49.65,47.9c-.77,0-.38,1-1.13.89a1.18,1.18,0,0,0-.85-.14c-.65.14-.2,1-1,1a2.12,2.12,0,0,0-.79,0,1.76,1.76,0,0,0-.44.56,1.06,1.06,0,0,1,.55-.76c.25,0,.54.07.71-.12s.26-.85.8-.85,1,.48,1.25-.12c.08-.35.49-.43.85-.38"/><path class="cls-2" d="M29.72,32.07a6.52,6.52,0,0,0,2.06.79c1.78,3.55,5.66,4.62,9.18,5.2l0,.85-2-.36a4.63,4.63,0,0,0,0,1.89c.06.12.19,0,.27,0a6,6,0,0,0,1-1A2.73,2.73,0,0,0,39.56,41a.31.31,0,0,0,.4.12,2,2,0,0,0,.74-.46c-.59.84-1.59,1.69-1.16,2.81a1.47,1.47,0,0,0,.57.51l-1.22,2a1.31,1.31,0,0,0-.31-.91,5.76,5.76,0,0,0-1.59.79,6.15,6.15,0,0,0,1.21-1.29c-.1-.09-.24,0-.36,0l-.55.24c.25-.21.63-.31.74-.67a8.92,8.92,0,0,0-2.28-.52,3.5,3.5,0,0,0,0,1.76c-.1,0-.1-.24-.14-.36a3.48,3.48,0,0,0-.51-1.5c-.14,0-.14.14-.19.21a9.6,9.6,0,0,0-.33,2.08,12.43,12.43,0,0,0-.21-2.55c-.09-.09-.19,0-.26,0a9,9,0,0,0-.81.7c.09-.24.33-.48.45-.72s.17-.28.1-.45a3.11,3.11,0,0,0-1.17.42c-.46.22-.93.57-1.4.75.21-.36.56-.67.63-1.08-.19-.24-.52,0-.78,0-.47.16-.93.33-1.38.52.28-.28.69-.47.93-.83a1.41,1.41,0,0,0-.83-.2l-1.12-.07a4.3,4.3,0,0,0,1.5-.38c-.12-.43-.56-.72-.86-1.09a5.51,5.51,0,0,0,2,1c.1-.39-.24-.72-.42-1l-.36-.46A8.92,8.92,0,0,0,32.67,42c.06,0,.11,0,.11-.08a6.53,6.53,0,0,0-1.06-2h.08a8.43,8.43,0,0,0,2.07,1.55c.07,0,.12-.07.14-.12a1.63,1.63,0,0,0-.45-.78,3.64,3.64,0,0,0,.88.62c.22-.19.19-.5.19-.81a3.27,3.27,0,0,0,.59,1.4c.2,0,.24-.21.32-.33a9,9,0,0,0,.51-1.6,6.75,6.75,0,0,0,.32,2.32l.17.14,1.14.21c.09,0,.23-.07.26-.19-.08-.52-.65-.67-1-.91.32.07.74.25,1,0-.1-.43-.53-.76-.86-1.1.24.13.5.48.78.25a8.62,8.62,0,0,0-.54-2.36,8.08,8.08,0,0,0,1,2.11c.14,0,.19-.14.26-.21A8.41,8.41,0,0,0,39,38.56c-2.81-.7-5.93-1.89-7.64-4.73l-.05-.16a5.73,5.73,0,0,1-3.93-3.93A2.74,2.74,0,0,1,27.51,28c.21,1.57.59,3.27,2.21,4.08M38.61,43.4a5.72,5.72,0,0,0-1.51-.69,1.21,1.21,0,0,0-.94.26.91.91,0,0,0-.39.65,14.54,14.54,0,0,0,2.65-.08c.06,0,.19,0,.19-.14"/></g></g></svg>